{"glyphs":{"0":{"ha":560,"x_min":38,"x_max":508,"o":"m 283 -8 q 138 56 214 11 q 38 144 63 100 q 58 336 58 214 l 58 547 l 147 572 l 235 703 l 407 657 q 491 608 474 639 q 508 468 508 576 l 508 213 q 283 -8 372 92 m 199 215 q 350 117 244 164 q 357 360 357 256 q 354 510 357 404 q 214 553 326 521 l 214 396 q 199 215 214 300 z "},"1":{"ha":311,"x_min":-42,"x_max":353,"o":"m 221 -8 q 131 58 175 15 q 61 144 86 100 q 82 336 82 214 l 82 526 q 7 572 40 558 q -22 540 -12 553 l -42 561 q 90 703 8 607 l 181 656 q 226 613 215 638 q 238 551 238 589 l 238 396 q 235 267 238 297 q 222 201 233 236 q 304 121 243 164 q 333 154 319 136 l 353 133 q 221 -8 303 88 z "},"2":{"ha":419,"x_min":13,"x_max":407,"o":"m 275 -8 q 22 81 136 24 q 31 186 31 129 l 31 229 q 218 371 143 307 q 226 514 231 435 q 76 574 156 553 q 32 524 39 532 l 13 544 q 160 703 67 593 l 326 646 q 385 536 385 625 q 374 433 385 468 q 190 290 229 325 l 190 274 q 185 178 190 225 q 354 117 247 140 q 388 154 371 133 l 407 133 q 275 -8 357 88 z "},"3":{"ha":432,"x_min":-56,"x_max":403,"o":"m 178 -147 l 179 -143 l 176 -147 q 42 -84 113 -129 q -56 6 -29 -39 q 90 147 28 79 l 113 129 q 72 92 97 117 q 242 -21 142 22 q 251 103 251 42 q 249 183 251 125 q 69 269 174 228 l 69 281 l 192 367 q 204 514 208 443 q 54 574 133 553 q 10 524 17 532 l -10 544 q 138 703 44 593 l 304 646 q 363 536 363 625 q 351 432 363 467 l 238 357 l 332 310 q 390 260 376 288 q 403 171 403 233 l 403 74 q 178 -147 267 -47 z "},"4":{"ha":575,"x_min":29,"x_max":579,"o":"m 376 -271 l 335 -283 q 351 -71 351 -167 l 351 154 l 272 61 q 69 214 151 113 q 85 433 85 303 l 85 599 q 40 574 61 586 l 29 600 q 233 703 104 629 l 240 697 l 240 360 q 232 269 240 300 q 351 188 292 213 l 351 449 l 497 525 l 506 519 l 503 183 l 579 183 l 561 150 q 535 152 556 150 q 503 156 515 154 l 501 -58 l 376 -132 l 376 -271 z "},"5":{"ha":524,"x_min":18,"x_max":489,"o":"m 264 -147 q 119 -83 194 -128 q 18 6 43 -39 q 157 140 99 75 l 179 122 q 146 92 167 113 q 332 -22 211 28 q 338 101 338 32 q 335 199 338 135 q 200 275 279 247 l 60 193 l 50 199 q 60 457 60 319 l 60 546 l 147 571 l 239 703 q 483 643 378 688 q 415 463 438 538 l 388 469 q 403 506 399 494 q 215 561 322 542 l 215 517 q 210 319 215 349 l 310 392 l 419 333 q 475 285 461 311 q 489 197 489 258 l 489 74 q 264 -147 353 -47 z "},"6":{"ha":578,"x_min":56,"x_max":526,"o":"m 301 -8 q 156 56 232 11 q 56 144 81 100 q 76 336 76 214 l 76 665 l 163 689 l 254 822 q 504 763 396 808 q 382 551 440 631 l 468 515 q 526 418 526 492 l 526 213 q 301 -8 390 92 m 232 417 q 404 633 340 526 q 232 681 332 665 l 232 417 m 372 386 q 278 425 311 414 q 232 378 250 393 q 219 213 232 253 q 368 117 267 161 q 374 301 374 244 q 372 386 374 357 z "},"7":{"ha":449,"x_min":-49,"x_max":407,"o":"m 65 -299 q 82 -86 82 -182 l 82 228 q 233 344 182 297 q 249 507 254 424 q 10 568 138 546 q -29 524 -15 540 l -49 544 q 99 703 6 593 l 326 647 q 388 613 368 638 q 407 536 407 588 q 396 432 407 490 q 242 299 268 324 l 242 -74 l 107 -147 l 107 -286 l 65 -299 z "},"8":{"ha":557,"x_min":50,"x_max":507,"o":"m 290 -8 l 50 93 l 50 111 q 57 314 50 207 l 193 375 q 61 461 115 424 l 61 479 q 68 657 61 582 l 181 707 l 242 821 l 442 763 q 499 678 499 746 q 488 518 499 593 l 354 454 q 465 394 413 422 q 507 307 507 372 q 496 194 507 268 l 497 194 l 496 193 l 493 192 q 290 -8 383 103 m 343 631 q 221 669 263 658 q 214 539 214 597 q 332 467 261 506 q 343 608 343 560 l 343 631 m 350 286 q 215 363 306 308 q 203 197 206 275 q 343 135 278 157 q 350 247 350 190 l 350 286 z "},"9":{"ha":593,"x_min":32,"x_max":517,"o":"m 517 75 q 435 5 493 54 q 345 -75 378 -44 q 278 -146 313 -106 q 133 -82 208 -126 q 32 7 57 -37 q 179 143 108 68 q 50 283 103 193 q 61 475 61 354 l 61 547 l 150 572 l 238 703 l 415 657 q 499 608 482 640 q 517 468 517 576 l 517 75 m 206 343 q 285 260 228 301 q 358 360 342 333 q 356 435 357 385 q 356 510 356 485 q 217 556 303 539 l 217 535 q 206 343 217 411 m 358 282 l 358 314 q 164 90 285 207 q 351 -22 228 29 q 358 282 358 142 z "},"ν":{"ha":879,"x_min":128,"x_max":751,"o":"m 128 0 l 128 1056 l 751 1056 l 751 0 l 128 0 m 651 71 l 651 983 l 226 983 l 226 71 l 651 71 m 442 174 l 399 168 q 425 279 425 221 l 425 286 l 371 342 l 425 397 l 425 775 l 424 775 q 357 735 378 775 q 347 635 336 696 l 335 625 l 247 650 q 298 744 247 700 q 425 790 349 789 l 425 886 l 469 893 q 443 790 447 847 q 631 663 631 786 q 611 600 631 626 q 564 558 592 574 q 508 528 536 543 q 461 488 481 513 q 442 432 442 464 l 442 397 l 499 340 l 442 283 l 442 174 m 442 490 q 464 525 447 506 q 492 571 481 544 q 503 640 503 597 q 442 774 503 760 l 442 490 z "},"ξ":{"ha":879,"x_min":128,"x_max":751,"o":"m 128 0 l 128 1056 l 751 1056 l 751 0 l 128 0 m 651 71 l 651 983 l 226 983 l 226 71 l 651 71 m 442 174 l 399 168 q 425 279 425 221 l 425 286 l 371 342 l 425 397 l 425 775 l 424 775 q 357 735 378 775 q 347 635 336 696 l 335 625 l 247 650 q 298 744 247 700 q 425 790 349 789 l 425 886 l 469 893 q 443 790 447 847 q 631 663 631 786 q 611 600 631 626 q 564 558 592 574 q 508 528 536 543 q 461 488 481 513 q 442 432 442 464 l 442 397 l 499 340 l 442 283 l 442 174 m 442 490 q 464 525 447 506 q 492 571 481 544 q 503 640 503 597 q 442 774 503 760 l 442 490 z "},"ο":{"ha":879,"x_min":128,"x_max":751,"o":"m 128 0 l 128 1056 l 751 1056 l 751 0 l 128 0 m 651 71 l 651 983 l 226 983 l 226 71 l 651 71 m 442 174 l 399 168 q 425 279 425 221 l 425 286 l 371 342 l 425 397 l 425 775 l 424 775 q 357 735 378 775 q 347 635 336 696 l 335 625 l 247 650 q 298 744 247 700 q 425 790 349 789 l 425 886 l 469 893 q 443 790 447 847 q 631 663 631 786 q 611 600 631 626 q 564 558 592 574 q 508 528 536 543 q 461 488 481 513 q 442 432 442 464 l 442 397 l 499 340 l 442 283 l 442 174 m 442 490 q 464 525 447 506 q 492 571 481 544 q 503 640 503 597 q 442 774 503 760 l 442 490 z "},"―":{"ha":879,"x_min":128,"x_max":751,"o":"m 128 0 l 128 1056 l 751 1056 l 751 0 l 128 0 m 651 71 l 651 983 l 226 983 l 226 71 l 651 71 m 442 174 l 399 168 q 425 279 425 221 l 425 286 l 371 342 l 425 397 l 425 775 l 424 775 q 357 735 378 775 q 347 635 336 696 l 335 625 l 247 650 q 298 744 247 700 q 425 790 349 789 l 425 886 l 469 893 q 443 790 447 847 q 631 663 631 786 q 611 600 631 626 q 564 558 592 574 q 508 528 536 543 q 461 488 481 513 q 442 432 442 464 l 442 397 l 499 340 l 442 283 l 442 174 m 442 490 q 464 525 447 506 q 492 571 481 544 q 503 640 503 597 q 442 774 503 760 l 442 490 z "},"‖":{"ha":879,"x_min":128,"x_max":751,"o":"m 128 0 l 128 1056 l 751 1056 l 751 0 l 128 0 m 651 71 l 651 983 l 226 983 l 226 71 l 651 71 m 442 174 l 399 168 q 425 279 425 221 l 425 286 l 371 342 l 425 397 l 425 775 l 424 775 q 357 735 378 775 q 347 635 336 696 l 335 625 l 247 650 q 298 744 247 700 q 425 790 349 789 l 425 886 l 469 893 q 443 790 447 847 q 631 663 631 786 q 611 600 631 626 q 564 558 592 574 q 508 528 536 543 q 461 488 481 513 q 442 432 442 464 l 442 397 l 499 340 l 442 283 l 442 174 m 442 490 q 464 525 447 506 q 492 571 481 544 q 503 640 503 597 q 442 774 503 760 l 442 490 z "},"‗":{"ha":879,"x_min":128,"x_max":751,"o":"m 128 0 l 128 1056 l 751 1056 l 751 0 l 128 0 m 651 71 l 651 983 l 226 983 l 226 71 l 651 71 m 442 174 l 399 168 q 425 279 425 221 l 425 286 l 371 342 l 425 397 l 425 775 l 424 775 q 357 735 378 775 q 347 635 336 696 l 335 625 l 247 650 q 298 744 247 700 q 425 790 349 789 l 425 886 l 469 893 q 443 790 447 847 q 631 663 631 786 q 611 600 631 626 q 564 558 592 574 q 508 528 536 543 q 461 488 481 513 q 442 432 442 464 l 442 397 l 499 340 l 442 283 l 442 174 m 442 490 q 464 525 447 506 q 492 571 481 544 q 503 640 503 597 q 442 774 503 760 l 442 490 z "},"‛":{"ha":879,"x_min":128,"x_max":751,"o":"m 128 0 l 128 1056 l 751 1056 l 751 0 l 128 0 m 651 71 l 651 983 l 226 983 l 226 71 l 651 71 m 442 174 l 399 168 q 425 279 425 221 l 425 286 l 371 342 l 425 397 l 425 775 l 424 775 q 357 735 378 775 q 347 635 336 696 l 335 625 l 247 650 q 298 744 247 700 q 425 790 349 789 l 425 886 l 469 893 q 443 790 447 847 q 631 663 631 786 q 611 600 631 626 q 564 558 592 574 q 508 528 536 543 q 461 488 481 513 q 442 432 442 464 l 442 397 l 499 340 l 442 283 l 442 174 m 442 490 q 464 525 447 506 q 492 571 481 544 q 503 640 503 597 q 442 774 503 760 l 442 490 z "},"‟":{"ha":879,"x_min":128,"x_max":751,"o":"m 128 0 l 128 1056 l 751 1056 l 751 0 l 128 0 m 651 71 l 651 983 l 226 983 l 226 71 l 651 71 m 442 174 l 399 168 q 425 279 425 221 l 425 286 l 371 342 l 425 397 l 425 775 l 424 775 q 357 735 378 775 q 347 635 336 696 l 335 625 l 247 650 q 298 744 247 700 q 425 790 349 789 l 425 886 l 469 893 q 443 790 447 847 q 631 663 631 786 q 611 600 631 626 q 564 558 592 574 q 508 528 536 543 q 461 488 481 513 q 442 432 442 464 l 442 397 l 499 340 l 442 283 l 442 174 m 442 490 q 464 525 447 506 q 492 571 481 544 q 503 640 503 597 q 442 774 503 760 l 442 490 z "},"‣":{"ha":879,"x_min":128,"x_max":751,"o":"m 128 0 l 128 1056 l 751 1056 l 751 0 l 128 0 m 651 71 l 651 983 l 226 983 l 226 71 l 651 71 m 442 174 l 399 168 q 425 279 425 221 l 425 286 l 371 342 l 425 397 l 425 775 l 424 775 q 357 735 378 775 q 347 635 336 696 l 335 625 l 247 650 q 298 744 247 700 q 425 790 349 789 l 425 886 l 469 893 q 443 790 447 847 q 631 663 631 786 q 611 600 631 626 q 564 558 592 574 q 508 528 536 543 q 461 488 481 513 q 442 432 442 464 l 442 397 l 499 340 l 442 283 l 442 174 m 442 490 q 464 525 447 506 q 492 571 481 544 q 503 640 503 597 q 442 774 503 760 l 442 490 z "},"․":{"ha":879,"x_min":128,"x_max":751,"o":"m 128 0 l 128 1056 l 751 1056 l 751 0 l 128 0 m 651 71 l 651 983 l 226 983 l 226 71 l 651 71 m 442 174 l 399 168 q 425 279 425 221 l 425 286 l 371 342 l 425 397 l 425 775 l 424 775 q 357 735 378 775 q 347 635 336 696 l 335 625 l 247 650 q 298 744 247 700 q 425 790 349 789 l 425 886 l 469 893 q 443 790 447 847 q 631 663 631 786 q 611 600 631 626 q 564 558 592 574 q 508 528 536 543 q 461 488 481 513 q 442 432 442 464 l 442 397 l 499 340 l 442 283 l 442 174 m 442 490 q 464 525 447 506 q 492 571 481 544 q 503 640 503 597 q 442 774 503 760 l 442 490 z "},"‥":{"ha":879,"x_min":128,"x_max":751,"o":"m 128 0 l 128 1056 l 751 1056 l 751 0 l 128 0 m 651 71 l 651 983 l 226 983 l 226 71 l 651 71 m 442 174 l 399 168 q 425 279 425 221 l 425 286 l 371 342 l 425 397 l 425 775 l 424 775 q 357 735 378 775 q 347 635 336 696 l 335 625 l 247 650 q 298 744 247 700 q 425 790 349 789 l 425 886 l 469 893 q 443 790 447 847 q 631 663 631 786 q 611 600 631 626 q 564 558 592 574 q 508 528 536 543 q 461 488 481 513 q 442 432 442 464 l 442 397 l 499 340 l 442 283 l 442 174 m 442 490 q 464 525 447 506 q 492 571 481 544 q 503 640 503 597 q 442 774 503 760 l 442 490 z "},"ⁱ":{"ha":879,"x_min":128,"x_max":751,"o":"m 128 0 l 128 1056 l 751 1056 l 751 0 l 128 0 m 651 71 l 651 983 l 226 983 l 226 71 l 651 71 m 442 174 l 399 168 q 425 279 425 221 l 425 286 l 371 342 l 425 397 l 425 775 l 424 775 q 357 735 378 775 q 347 635 336 696 l 335 625 l 247 650 q 298 744 247 700 q 425 790 349 789 l 425 886 l 469 893 q 443 790 447 847 q 631 663 631 786 q 611 600 631 626 q 564 558 592 574 q 508 528 536 543 q 461 488 481 513 q 442 432 442 464 l 442 397 l 499 340 l 442 283 l 442 174 m 442 490 q 464 525 447 506 q 492 571 481 544 q 503 640 503 597 q 442 774 503 760 l 442 490 z "},"⁲":{"ha":879,"x_min":128,"x_max":751,"o":"m 128 0 l 128 1056 l 751 1056 l 751 0 l 128 0 m 651 71 l 651 983 l 226 983 l 226 71 l 651 71 m 442 174 l 399 168 q 425 279 425 221 l 425 286 l 371 342 l 425 397 l 425 775 l 424 775 q 357 735 378 775 q 347 635 336 696 l 335 625 l 247 650 q 298 744 247 700 q 425 790 349 789 l 425 886 l 469 893 q 443 790 447 847 q 631 663 631 786 q 611 600 631 626 q 564 558 592 574 q 508 528 536 543 q 461 488 481 513 q 442 432 442 464 l 442 397 l 499 340 l 442 283 l 442 174 m 442 490 q 464 525 447 506 q 492 571 481 544 q 503 640 503 597 q 442 774 503 760 l 442 490 z "},"⁳":{"ha":879,"x_min":128,"x_max":751,"o":"m 128 0 l 128 1056 l 751 1056 l 751 0 l 128 0 m 651 71 l 651 983 l 226 983 l 226 71 l 651 71 m 442 174 l 399 168 q 425 279 425 221 l 425 286 l 371 342 l 425 397 l 425 775 l 424 775 q 357 735 378 775 q 347 635 336 696 l 335 625 l 247 650 q 298 744 247 700 q 425 790 349 789 l 425 886 l 469 893 q 443 790 447 847 q 631 663 631 786 q 611 600 631 626 q 564 558 592 574 q 508 528 536 543 q 461 488 481 513 q 442 432 442 464 l 442 397 l 499 340 l 442 283 l 442 174 m 442 490 q 464 525 447 506 q 492 571 481 544 q 503 640 503 597 q 442 774 503 760 l 442 490 z "},"∐":{"ha":879,"x_min":128,"x_max":751,"o":"m 128 0 l 128 1056 l 751 1056 l 751 0 l 128 0 m 651 71 l 651 983 l 226 983 l 226 71 l 651 71 m 442 174 l 399 168 q 425 279 425 221 l 425 286 l 371 342 l 425 397 l 425 775 l 424 775 q 357 735 378 775 q 347 635 336 696 l 335 625 l 247 650 q 298 744 247 700 q 425 790 349 789 l 425 886 l 469 893 q 443 790 447 847 q 631 663 631 786 q 611 600 631 626 q 564 558 592 574 q 508 528 536 543 q 461 488 481 513 q 442 432 442 464 l 442 397 l 499 340 l 442 283 l 442 174 m 442 490 q 464 525 447 506 q 492 571 481 544 q 503 640 503 597 q 442 774 503 760 l 442 490 z "},"∓":{"ha":879,"x_min":128,"x_max":751,"o":"m 128 0 l 128 1056 l 751 1056 l 751 0 l 128 0 m 651 71 l 651 983 l 226 983 l 226 71 l 651 71 m 442 174 l 399 168 q 425 279 425 221 l 425 286 l 371 342 l 425 397 l 425 775 l 424 775 q 357 735 378 775 q 347 635 336 696 l 335 625 l 247 650 q 298 744 247 700 q 425 790 349 789 l 425 886 l 469 893 q 443 790 447 847 q 631 663 631 786 q 611 600 631 626 q 564 558 592 574 q 508 528 536 543 q 461 488 481 513 q 442 432 442 464 l 442 397 l 499 340 l 442 283 l 442 174 m 442 490 q 464 525 447 506 q 492 571 481 544 q 503 640 503 597 q 442 774 503 760 l 442 490 z "},"∔":{"ha":879,"x_min":128,"x_max":751,"o":"m 128 0 l 128 1056 l 751 1056 l 751 0 l 128 0 m 651 71 l 651 983 l 226 983 l 226 71 l 651 71 m 442 174 l 399 168 q 425 279 425 221 l 425 286 l 371 342 l 425 397 l 425 775 l 424 775 q 357 735 378 775 q 347 635 336 696 l 335 625 l 247 650 q 298 744 247 700 q 425 790 349 789 l 425 886 l 469 893 q 443 790 447 847 q 631 663 631 786 q 611 600 631 626 q 564 558 592 574 q 508 528 536 543 q 461 488 481 513 q 442 432 442 464 l 442 397 l 499 340 l 442 283 l 442 174 m 442 490 q 464 525 447 506 q 492 571 481 544 q 503 640 503 597 q 442 774 503 760 l 442 490 z "},"∛":{"ha":879,"x_min":128,"x_max":751,"o":"m 128 0 l 128 1056 l 751 1056 l 751 0 l 128 0 m 651 71 l 651 983 l 226 983 l 226 71 l 651 71 m 442 174 l 399 168 q 425 279 425 221 l 425 286 l 371 342 l 425 397 l 425 775 l 424 775 q 357 735 378 775 q 347 635 336 696 l 335 625 l 247 650 q 298 744 247 700 q 425 790 349 789 l 425 886 l 469 893 q 443 790 447 847 q 631 663 631 786 q 611 600 631 626 q 564 558 592 574 q 508 528 536 543 q 461 488 481 513 q 442 432 442 464 l 442 397 l 499 340 l 442 283 l 442 174 m 442 490 q 464 525 447 506 q 492 571 481 544 q 503 640 503 597 q 442 774 503 760 l 442 490 z "},"∜":{"ha":879,"x_min":128,"x_max":751,"o":"m 128 0 l 128 1056 l 751 1056 l 751 0 l 128 0 m 651 71 l 651 983 l 226 983 l 226 71 l 651 71 m 442 174 l 399 168 q 425 279 425 221 l 425 286 l 371 342 l 425 397 l 425 775 l 424 775 q 357 735 378 775 q 347 635 336 696 l 335 625 l 247 650 q 298 744 247 700 q 425 790 349 789 l 425 886 l 469 893 q 443 790 447 847 q 631 663 631 786 q 611 600 631 626 q 564 558 592 574 q 508 528 536 543 q 461 488 481 513 q 442 432 442 464 l 442 397 l 499 340 l 442 283 l 442 174 m 442 490 q 464 525 447 506 q 492 571 481 544 q 503 640 503 597 q 442 774 503 760 l 442 490 z "},"∝":{"ha":879,"x_min":128,"x_max":751,"o":"m 128 0 l 128 1056 l 751 1056 l 751 0 l 128 0 m 651 71 l 651 983 l 226 983 l 226 71 l 651 71 m 442 174 l 399 168 q 425 279 425 221 l 425 286 l 371 342 l 425 397 l 425 775 l 424 775 q 357 735 378 775 q 347 635 336 696 l 335 625 l 247 650 q 298 744 247 700 q 425 790 349 789 l 425 886 l 469 893 q 443 790 447 847 q 631 663 631 786 q 611 600 631 626 q 564 558 592 574 q 508 528 536 543 q 461 488 481 513 q 442 432 442 464 l 442 397 l 499 340 l 442 283 l 442 174 m 442 490 q 464 525 447 506 q 492 571 481 544 q 503 640 503 597 q 442 774 503 760 l 442 490 z "},"≡":{"ha":879,"x_min":128,"x_max":751,"o":"m 128 0 l 128 1056 l 751 1056 l 751 0 l 128 0 m 651 71 l 651 983 l 226 983 l 226 71 l 651 71 m 442 174 l 399 168 q 425 279 425 221 l 425 286 l 371 342 l 425 397 l 425 775 l 424 775 q 357 735 378 775 q 347 635 336 696 l 335 625 l 247 650 q 298 744 247 700 q 425 790 349 789 l 425 886 l 469 893 q 443 790 447 847 q 631 663 631 786 q 611 600 631 626 q 564 558 592 574 q 508 528 536 543 q 461 488 481 513 q 442 432 442 464 l 442 397 l 499 340 l 442 283 l 442 174 m 442 490 q 464 525 447 506 q 492 571 481 544 q 503 640 503 597 q 442 774 503 760 l 442 490 z "},"≢":{"ha":879,"x_min":128,"x_max":751,"o":"m 128 0 l 128 1056 l 751 1056 l 751 0 l 128 0 m 651 71 l 651 983 l 226 983 l 226 71 l 651 71 m 442 174 l 399 168 q 425 279 425 221 l 425 286 l 371 342 l 425 397 l 425 775 l 424 775 q 357 735 378 775 q 347 635 336 696 l 335 625 l 247 650 q 298 744 247 700 q 425 790 349 789 l 425 886 l 469 893 q 443 790 447 847 q 631 663 631 786 q 611 600 631 626 q 564 558 592 574 q 508 528 536 543 q 461 488 481 513 q 442 432 442 464 l 442 397 l 499 340 l 442 283 l 442 174 m 442 490 q 464 525 447 506 q 492 571 481 544 q 503 640 503 597 q 442 774 503 760 l 442 490 z "},"≣":{"ha":879,"x_min":128,"x_max":751,"o":"m 128 0 l 128 1056 l 751 1056 l 751 0 l 128 0 m 651 71 l 651 983 l 226 983 l 226 71 l 651 71 m 442 174 l 399 168 q 425 279 425 221 l 425 286 l 371 342 l 425 397 l 425 775 l 424 775 q 357 735 378 775 q 347 635 336 696 l 335 625 l 247 650 q 298 744 247 700 q 425 790 349 789 l 425 886 l 469 893 q 443 790 447 847 q 631 663 631 786 q 611 600 631 626 q 564 558 592 574 q 508 528 536 543 q 461 488 481 513 q 442 432 442 464 l 442 397 l 499 340 l 442 283 l 442 174 m 442 490 q 464 525 447 506 q 492 571 481 544 q 503 640 503 597 q 442 774 503 760 l 442 490 z "},"\r":{"ha":0,"x_min":0,"x_max":0,"o":""}," ":{"ha":208,"x_min":0,"x_max":0,"o":""},"!":{"ha":318,"x_min":32,"x_max":281,"o":"m 79 258 l 79 892 q 43 871 68 885 l 32 897 q 236 1000 107 926 l 239 997 l 239 346 l 79 258 m 160 -8 l 39 113 l 160 233 l 281 113 l 160 -8 z "},"\"":{"ha":419,"x_min":0,"x_max":419,"o":"m 108 657 l 81 657 l 0 908 l 92 1000 l 186 906 l 108 657 m 342 657 l 314 657 l 233 908 l 325 1000 l 419 906 l 342 657 z "},"#":{"ha":967,"x_min":46,"x_max":921,"o":"m 481 -8 l 381 14 q 497 189 465 99 l 528 274 l 271 274 l 168 -8 l 68 14 q 185 189 153 99 l 215 272 q 46 254 124 268 l 58 390 l 258 390 l 338 604 q 154 586 224 600 l 167 722 l 381 722 l 483 1004 l 586 982 q 456 776 503 906 l 436 722 l 693 722 l 796 1004 l 899 982 q 768 776 815 906 l 749 724 q 921 742 854 728 l 908 606 l 706 606 l 626 392 q 813 410 726 394 l 800 274 l 583 274 l 481 -8 m 650 606 l 393 606 l 314 390 l 571 390 l 650 606 z "},"$":{"ha":518,"x_min":28,"x_max":490,"o":"m 185 -204 q 233 1 233 -100 l 233 4 l 54 136 l 28 156 q 126 244 50 172 l 154 271 l 36 363 l 36 381 q 61 553 36 471 l 153 596 l 239 676 l 239 878 l 319 890 q 271 700 279 807 l 468 569 l 486 557 l 371 444 l 453 386 q 490 313 490 360 q 465 143 490 226 l 353 89 l 263 4 l 263 -194 l 185 -204 m 344 453 q 193 565 275 525 q 175 432 175 493 q 256 368 201 410 l 344 453 m 350 274 q 264 340 311 315 l 175 254 q 332 125 253 169 q 350 274 350 207 z "},"%":{"ha":985,"x_min":42,"x_max":928,"o":"m 235 431 q 118 477 176 446 q 42 540 60 508 q 57 678 57 590 l 57 831 l 150 851 l 200 942 l 342 908 q 401 874 389 897 q 414 774 414 850 l 414 589 q 344 528 386 563 q 285 481 301 494 l 235 431 m 628 721 l 256 -11 l 157 21 q 293 181 250 94 l 679 942 l 781 910 q 628 721 694 850 m 185 719 q 178 604 185 667 q 285 536 215 567 q 286 786 292 671 q 185 817 246 800 l 185 719 m 749 1 q 632 48 690 17 q 556 111 574 79 q 571 249 571 161 l 571 401 l 664 422 l 714 513 l 856 479 q 915 444 903 468 q 928 344 928 421 l 928 160 q 858 99 900 133 q 799 51 815 65 l 749 1 m 699 290 q 692 175 699 238 q 799 107 729 138 q 800 357 806 242 q 699 388 760 371 l 699 290 z "},"&":{"ha":593,"x_min":-57,"x_max":631,"o":"m 631 133 q 499 -8 581 88 q 376 93 432 28 q 275 -8 329 51 q 143 55 213 10 q 47 144 74 100 q -42 31 11 107 l -57 71 l 58 193 q 68 332 68 243 q -7 322 56 331 l 11 361 l 68 361 l 68 546 l 174 575 l 261 703 l 383 625 q 417 583 408 610 q 439 667 439 624 q 382 808 439 736 l 389 824 l 553 869 q 581 790 581 836 q 574 746 581 768 q 553 699 568 724 q 526 656 539 675 q 489 609 514 636 q 450 567 464 582 q 406 522 436 553 q 365 481 376 492 q 253 361 321 428 l 353 361 l 500 465 l 500 361 l 601 361 l 583 328 q 500 335 578 328 l 500 201 q 582 121 521 164 q 611 154 597 136 l 631 133 m 224 369 q 321 472 267 411 q 224 543 274 515 l 224 369 m 210 215 q 342 118 263 154 q 349 336 349 243 l 226 336 l 222 332 q 208 217 218 253 l 210 215 z "},"'":{"ha":186,"x_min":0,"x_max":186,"o":"m 108 657 l 81 657 l 0 908 l 92 1000 l 186 906 l 108 657 z "},"(":{"ha":382,"x_min":44,"x_max":401,"o":"m 229 -169 q 44 338 44 51 q 133 713 44 533 q 374 1007 221 892 l 392 990 q 247 760 299 903 q 196 458 196 617 q 346 -7 196 175 q 382 35 357 7 l 401 14 q 229 -169 338 -44 z "},")":{"ha":374,"x_min":-43,"x_max":314,"o":"m -15 -169 l -33 -153 q 111 78 60 -65 q 163 379 163 221 q 13 844 163 663 q -24 803 1 831 l -43 824 q 129 1007 21 882 q 314 500 314 786 q 226 125 314 304 q -15 -169 138 -54 z "},"*":{"ha":519,"x_min":17,"x_max":503,"o":"m 274 746 l 246 746 q 217 826 240 778 q 193 892 193 874 q 195 908 193 900 q 201 922 197 915 q 210 932 206 928 q 221 941 214 936 q 233 949 228 946 q 247 956 238 951 q 260 963 256 961 q 274 956 264 961 q 288 949 283 951 q 299 941 292 946 q 310 932 307 936 q 318 922 314 928 q 324 908 322 915 q 326 892 326 900 q 303 826 326 874 q 274 746 279 778 m 301 706 l 293 732 q 360 783 322 746 q 415 826 399 821 q 435 829 425 829 q 450 828 444 829 q 465 821 456 828 q 478 812 475 814 q 491 799 481 810 q 503 786 501 788 q 501 774 503 783 q 499 760 500 764 q 497 747 499 756 q 492 735 494 739 q 487 724 490 731 q 480 713 483 717 q 470 706 476 710 q 457 700 464 703 q 385 703 439 694 q 301 706 332 711 m 226 732 l 218 706 q 134 703 188 711 q 63 700 81 694 q 48 706 54 703 q 38 717 42 710 q 31 728 33 724 q 25 742 28 732 q 22 756 22 753 q 19 772 21 758 q 17 786 17 785 q 28 799 18 788 q 42 812 39 810 q 54 821 44 814 q 69 828 64 828 q 85 829 75 829 q 104 826 94 829 q 159 783 121 821 q 226 732 197 746 m 271 667 l 294 683 q 365 636 317 661 q 422 596 413 611 q 433 577 429 586 q 433 556 436 568 q 430 539 431 543 q 421 518 429 535 q 411 500 413 501 q 359 494 388 493 q 315 517 331 494 q 295 585 304 532 q 271 667 286 639 m 225 683 l 249 667 q 224 585 233 639 q 204 517 215 532 q 160 494 189 494 q 108 500 132 493 q 101 515 107 504 q 92 531 94 526 q 88 547 90 536 q 85 563 85 557 q 88 578 85 569 q 97 596 90 588 q 155 636 107 611 q 225 683 203 661 z "},"+":{"ha":694,"x_min":44,"x_max":649,"o":"m 372 172 l 275 160 q 321 399 321 256 l 321 404 l 267 404 q 44 385 149 404 l 57 521 l 321 521 l 321 753 l 418 765 q 372 526 372 669 l 372 521 l 410 521 q 649 540 544 521 l 636 404 l 372 404 l 372 172 z "},",":{"ha":236,"x_min":40,"x_max":250,"o":"m 78 -129 l 60 -110 q 119 8 119 -24 q 104 40 119 25 l 40 103 l 150 215 l 232 135 q 250 90 250 118 q 100 -107 250 39 q 78 -129 85 -122 z "},"-":{"ha":456,"x_min":44,"x_max":411,"o":"m 396 329 l 218 329 q 44 308 117 329 l 60 381 l 238 381 q 411 401 339 381 l 396 329 z "},".":{"ha":267,"x_min":39,"x_max":281,"o":"m 160 -8 l 39 113 l 160 233 l 281 113 l 160 -8 z "},"/":{"ha":471,"x_min":-24,"x_max":496,"o":"m 365 774 l 78 -11 l -24 10 q 93 185 61 94 l 392 1000 l 496 979 q 365 774 413 903 z "},":":{"ha":319,"x_min":39,"x_max":281,"o":"m 160 464 l 39 585 l 160 706 l 281 585 l 160 464 m 160 -8 l 39 113 l 160 233 l 281 113 l 160 -8 z "},";":{"ha":319,"x_min":39,"x_max":281,"o":"m 160 465 l 39 586 l 160 707 l 281 586 l 160 465 m 89 -129 l 71 -110 q 131 8 131 -24 q 115 40 131 25 l 51 103 l 161 215 l 243 135 q 261 90 261 118 q 111 -107 261 39 q 89 -129 96 -122 z "},"<":{"ha":694,"x_min":57,"x_max":672,"o":"m 576 136 l 57 379 l 58 381 l 57 381 l 57 410 l 413 575 q 614 721 546 636 l 642 618 l 260 440 l 401 374 q 672 271 606 283 l 576 136 z "},"=":{"ha":694,"x_min":44,"x_max":649,"o":"m 283 543 q 44 524 149 543 l 57 660 l 410 660 q 649 679 544 660 l 636 543 l 283 543 m 283 265 q 44 246 149 265 l 57 382 l 410 382 q 649 401 544 382 l 636 265 l 283 265 z "},">":{"ha":694,"x_min":57,"x_max":672,"o":"m 115 139 l 88 242 l 469 419 l 328 486 q 57 589 124 576 l 153 724 l 672 481 l 671 479 l 672 479 l 672 450 l 317 285 q 115 139 183 224 z "},"?":{"ha":392,"x_min":-68,"x_max":403,"o":"m 78 258 l 78 501 q 231 618 176 569 q 246 747 246 674 q 244 801 246 782 q -10 863 157 832 q -49 818 -35 835 l -68 839 q 79 997 -14 888 l 322 942 q 383 907 364 932 q 403 831 403 882 q 392 706 403 763 q 238 572 264 597 l 238 346 l 78 258 m 160 -8 l 39 113 l 160 233 l 281 113 l 160 -8 z "},"@":{"ha":1260,"x_min":74,"x_max":1190,"o":"m 650 -194 q 378 -126 510 -194 q 160 63 246 -58 q 74 326 74 185 q 245 722 74 557 q 657 886 417 886 q 1040 756 889 886 q 1190 429 1190 626 q 1083 138 1190 263 q 769 -8 975 14 q 665 135 710 26 q 513 -8 592 57 q 381 96 426 43 q 511 567 376 354 l 626 593 l 728 701 l 871 656 q 910 551 928 638 l 867 347 q 838 188 849 263 q 928 58 868 110 q 1090 401 1090 169 q 979 735 1090 613 q 657 858 868 858 q 334 724 444 858 q 224 347 224 589 q 347 -31 224 106 q 664 -167 469 -167 q 967 -93 826 -167 l 978 -114 q 650 -194 835 -194 m 533 178 q 608 122 569 142 q 724 378 682 200 l 750 526 q 656 563 706 550 q 533 178 557 401 z "},"A":{"ha":1122,"x_min":-32,"x_max":1060,"o":"m 672 -200 l 594 -210 q 643 -4 643 -106 l 643 0 l 556 0 l 556 28 l 643 28 l 643 538 q 576 408 601 486 q 539 263 550 331 q 496 113 528 196 q 411 -29 464 31 q 239 -110 336 -110 q -3 4 118 -110 q -32 32 -24 24 l -15 50 q 83 10 31 10 q 303 150 174 10 q 499 390 367 218 l 393 390 q 154 339 261 390 l 168 418 l 521 418 q 643 575 611 538 l 643 715 q 381 732 460 732 q 185 699 247 732 q 121 575 124 665 l 96 575 q 94 615 94 588 q 153 853 94 764 q 321 942 213 942 q 434 908 379 942 q 550 819 489 874 q 643 744 611 764 l 643 1119 l 724 1132 q 672 893 672 1025 l 672 28 l 758 28 l 758 219 q 721 893 758 703 q 971 928 875 901 q 956 499 956 728 q 972 28 956 222 l 1060 28 l 1060 0 l 672 0 l 672 -200 z "},"B":{"ha":1086,"x_min":65,"x_max":1001,"o":"m 496 -200 l 418 -210 q 467 -4 467 -106 l 467 465 l 383 465 q 403 1 383 196 l 403 0 l 75 0 l 75 28 l 186 28 l 186 219 q 178 642 186 515 q 151 864 171 769 l 65 864 l 65 892 q 399 928 272 890 q 383 499 383 728 l 383 493 l 467 493 l 467 1119 l 547 1132 q 496 893 496 1025 l 496 824 q 642 942 532 942 q 879 883 785 942 q 974 715 974 824 q 890 552 974 613 q 649 479 807 492 q 910 415 818 479 q 1001 238 1001 351 q 907 48 1001 110 q 665 -14 813 -14 q 496 113 536 -14 l 496 -200 m 496 533 l 496 493 l 561 493 q 697 545 656 493 q 738 703 738 597 q 708 858 738 804 q 625 913 679 913 q 523 816 550 913 q 496 533 496 719 m 643 15 q 733 74 700 15 q 765 236 765 132 q 719 409 765 353 q 561 465 672 465 l 496 465 l 496 388 q 527 110 496 206 q 643 15 558 15 z "},"C":{"ha":1011,"x_min":72,"x_max":938,"o":"m 507 -200 l 429 -210 q 478 -6 478 -106 q 188 158 304 26 q 72 464 72 290 q 189 772 72 638 q 478 935 306 906 l 478 1119 l 558 1132 q 508 939 519 1053 q 558 942 542 942 q 686 931 621 942 q 786 921 751 921 q 871 937 833 921 q 910 992 908 953 l 935 992 l 935 951 q 901 777 935 843 q 804 711 867 711 q 744 732 771 711 q 700 783 718 753 q 663 842 682 813 q 611 893 643 872 q 536 914 579 914 q 507 913 517 914 l 507 510 l 596 599 l 717 478 l 599 360 l 507 451 l 507 21 q 568 14 539 14 q 711 69 651 14 q 771 211 771 125 q 765 258 771 225 l 788 274 l 938 229 q 831 64 938 142 q 568 -14 724 -14 q 507 -10 536 -14 l 507 -200 m 308 464 q 348 170 308 278 q 478 29 388 63 l 478 906 q 308 464 308 854 z "},"D":{"ha":1221,"x_min":-4,"x_max":1150,"o":"m 590 -200 l 513 -210 q 561 -11 561 -106 q 249 108 367 7 q 132 349 132 210 q 244 575 132 481 q 561 669 356 669 l 561 906 q 490 870 526 894 q 426 819 454 846 q 367 767 397 792 q 301 725 338 742 q 226 708 265 708 q 56 797 115 708 q -4 1035 -4 886 l -4 1075 l 21 1075 q 83 952 24 986 q 267 918 143 918 q 561 939 336 918 l 561 1119 l 642 1132 q 592 942 600 1042 l 621 942 q 992 807 835 942 q 1150 478 1150 672 q 1003 124 1150 263 q 633 -14 856 -14 q 590 -12 608 -14 l 590 -200 m 632 14 q 914 457 914 14 q 838 795 914 676 q 621 914 761 914 q 590 911 604 914 l 590 510 l 679 599 l 800 478 l 682 360 l 590 451 l 590 17 q 632 14 615 14 m 353 353 q 406 130 353 217 q 561 21 460 43 l 561 642 q 406 563 460 638 q 353 353 353 488 z "},"E":{"ha":1079,"x_min":71,"x_max":1007,"o":"m 506 -200 l 428 -210 q 476 -4 476 -106 l 476 1 q 185 169 300 40 q 71 464 71 299 q 188 769 71 639 q 476 932 306 900 l 476 1119 l 557 1132 q 507 938 515 1047 q 571 942 544 942 q 733 931 656 942 q 844 921 810 921 q 935 937 893 921 q 982 992 978 953 l 1007 992 l 1007 951 q 968 778 1007 844 q 863 711 929 711 q 788 743 821 711 q 733 813 754 775 q 667 882 711 850 q 560 914 622 914 q 506 908 528 914 l 506 543 l 557 543 q 753 556 697 543 l 753 621 l 781 621 l 781 332 l 753 332 l 753 397 q 557 410 697 410 l 506 410 l 506 28 q 608 14 549 14 q 771 69 704 14 q 838 214 838 125 q 833 258 838 236 l 856 274 l 1006 229 q 891 64 1006 142 q 608 -14 776 -14 q 506 -6 556 -14 l 506 -200 m 310 543 l 476 543 l 476 899 q 310 543 325 839 m 476 39 l 476 410 l 308 410 q 476 39 319 111 z "},"F":{"ha":956,"x_min":65,"x_max":908,"o":"m 496 -200 l 418 -210 q 467 -4 467 -106 l 467 0 l 75 0 l 75 28 l 186 28 l 186 219 q 178 642 186 515 q 151 864 171 769 l 65 864 l 65 892 q 399 928 275 890 q 383 501 383 728 l 467 501 l 467 1119 l 547 1132 q 497 926 504 1043 q 693 910 668 910 q 836 938 790 910 q 883 1039 882 965 l 908 1039 l 908 999 q 867 782 908 864 q 753 700 826 700 q 663 737 707 700 q 573 827 619 774 q 496 900 526 881 l 496 501 l 508 501 q 704 514 647 501 l 704 579 l 732 579 l 732 290 l 704 290 l 704 356 q 508 368 647 368 l 496 368 l 496 28 l 658 28 l 658 0 l 496 0 l 496 -200 m 467 28 l 467 368 l 385 368 q 400 28 388 164 l 467 28 z "},"G":{"ha":1100,"x_min":72,"x_max":1013,"o":"m 503 -200 l 425 -210 q 474 -6 474 -106 q 187 159 301 26 q 72 464 72 292 q 187 772 72 640 q 474 933 301 903 l 474 1119 l 554 1132 q 504 939 517 1054 q 564 942 543 942 q 708 931 636 942 q 818 921 781 921 q 909 937 867 921 q 956 992 951 953 l 981 992 l 981 951 q 942 786 981 850 q 836 722 903 722 q 780 742 804 722 q 736 790 756 761 q 694 847 717 818 q 633 894 672 875 q 543 914 594 914 q 503 910 524 914 l 503 413 q 603 558 535 507 q 764 608 671 608 q 947 538 881 608 q 1013 361 1013 468 q 887 94 1013 201 q 568 -14 761 -14 q 503 -10 539 -14 l 503 -200 m 308 464 q 347 173 308 281 q 474 31 386 65 l 474 903 q 308 464 308 843 m 568 14 q 758 81 686 14 q 829 278 829 149 q 664 492 829 492 q 542 426 581 492 q 503 200 503 361 l 503 21 q 568 14 538 14 z "},"H":{"ha":1157,"x_min":65,"x_max":1068,"o":"m 496 -200 l 418 -210 q 467 -4 467 -106 l 467 0 l 75 0 l 75 28 l 186 28 l 186 219 q 178 642 186 515 q 151 864 171 769 l 65 864 l 65 892 q 399 928 275 890 q 383 499 383 728 q 400 28 383 222 l 467 28 l 467 1119 l 547 1132 q 497 928 504 1043 q 749 911 671 911 q 944 942 882 911 q 1008 1054 1006 972 l 1033 1054 l 1033 1014 q 975 787 1033 872 q 808 701 917 701 q 699 746 754 701 q 590 841 643 790 q 496 900 538 892 l 496 440 q 569 581 518 540 q 717 622 621 622 q 964 548 860 622 q 1068 350 1068 474 q 1008 177 1068 261 q 836 28 949 93 l 1031 28 l 1031 0 l 769 0 q 836 317 836 129 q 821 449 836 390 q 767 549 806 508 q 672 590 729 590 q 536 481 576 590 q 496 117 496 371 l 496 28 l 582 28 l 582 0 l 496 0 l 496 -200 z "},"I":{"ha":657,"x_min":65,"x_max":578,"o":"m 492 -200 l 414 -210 q 463 -4 463 -106 l 463 0 l 75 0 l 75 28 l 186 28 l 186 219 q 178 642 186 515 q 151 864 171 769 l 65 864 l 65 892 q 399 928 275 890 q 383 499 383 728 q 400 28 383 222 l 463 28 l 463 1119 l 543 1132 q 492 893 492 1025 l 492 28 l 578 28 l 578 0 l 492 0 l 492 -200 z "},"J":{"ha":806,"x_min":-1,"x_max":772,"o":"m 349 -204 q 233 -187 297 -204 l 178 -393 l 104 -385 q 201 -197 174 -297 l 207 -178 q 60 -90 103 -142 l 78 -69 q 217 -142 135 -135 l 449 722 q 272 732 354 732 q 85 699 144 732 q 24 575 26 665 l -1 575 l -1 615 q 54 852 -1 763 q 213 942 110 942 q 271 935 243 942 q 330 911 299 929 q 376 883 361 893 q 428 845 392 874 q 474 811 465 817 l 551 1103 l 629 1096 q 521 876 556 1007 l 499 793 q 586 749 542 763 q 732 860 649 860 q 772 782 772 819 q 738 728 772 749 q 633 708 704 708 q 603 710 614 708 q 561 481 561 592 q 584 281 561 406 q 607 97 607 157 q 589 -32 607 26 q 499 -160 563 -117 q 349 -204 436 -204 m 408 89 q 500 444 450 225 q 569 711 550 664 q 479 719 532 715 l 246 -140 q 337 -76 299 -132 q 408 89 375 -21 z "},"K":{"ha":1067,"x_min":65,"x_max":1115,"o":"m 492 -200 l 414 -210 q 463 -4 463 -106 l 463 0 l 75 0 l 75 28 l 186 28 l 186 219 q 178 642 186 515 q 151 864 171 769 l 65 864 l 65 892 q 399 928 272 890 q 383 499 383 728 q 400 28 383 222 l 463 28 l 463 1119 l 543 1132 q 492 893 492 1025 l 492 514 q 554 436 501 503 q 751 753 751 614 q 720 868 751 828 q 632 908 689 908 l 632 936 q 724 942 676 942 q 916 898 850 942 q 982 793 982 854 q 960 724 982 757 q 894 656 938 690 q 805 589 851 621 q 691 508 758 557 q 571 414 624 460 q 786 157 724 225 q 1004 11 919 11 q 1099 50 1051 11 l 1115 32 q 1086 4 1107 24 q 844 -110 965 -110 q 672 -29 747 -110 q 592 125 617 35 q 549 310 568 215 q 492 465 531 404 l 492 -200 z "},"L":{"ha":882,"x_min":60,"x_max":879,"o":"m 499 -200 l 421 -210 q 469 -4 469 -106 l 469 0 l 78 0 l 78 28 l 189 28 l 189 219 q 181 642 189 515 q 154 864 174 769 l 60 864 l 60 892 q 401 928 275 890 q 386 499 386 728 q 403 28 386 222 l 469 28 l 469 1119 l 550 1132 q 499 893 499 1025 l 499 510 l 588 599 l 708 478 l 590 360 l 499 451 l 499 213 q 678 196 625 196 q 810 229 768 196 q 854 353 851 263 l 879 353 l 879 313 q 842 76 879 165 q 738 -14 804 -14 q 653 22 694 -14 q 569 110 613 57 q 499 183 526 163 l 499 -200 z "},"M":{"ha":1717,"x_min":65,"x_max":1633,"o":"m 1085 -199 l 1007 -208 q 1056 -3 1056 -94 l 1056 0 l 678 0 l 678 28 l 789 28 l 789 513 q 751 822 789 736 q 636 908 713 908 q 496 594 496 908 l 496 510 l 585 599 l 706 478 l 588 360 l 496 451 l 496 28 l 582 28 l 582 0 l 496 0 l 496 -199 l 418 -208 q 467 -3 467 -94 l 467 0 l 75 0 l 75 28 l 186 28 l 186 219 q 178 642 186 515 q 151 864 171 769 l 65 864 l 65 892 q 399 928 272 890 q 383 499 383 728 q 400 28 383 222 l 467 28 l 467 1119 l 547 1132 q 496 893 496 1025 l 496 810 q 669 942 536 942 q 919 810 842 942 q 997 453 997 679 l 997 28 l 1056 28 l 1056 1119 l 1136 1132 q 1085 893 1085 1025 l 1085 786 q 1261 942 1129 942 q 1522 825 1411 942 q 1633 526 1633 708 q 1369 28 1633 249 l 1564 28 l 1564 0 l 1303 0 q 1397 493 1397 189 q 1240 910 1397 910 q 1085 510 1089 910 l 1174 599 l 1294 478 l 1176 360 l 1085 451 l 1085 28 l 1171 28 l 1171 0 l 1085 0 l 1085 -199 z "},"N":{"ha":1261,"x_min":65,"x_max":1179,"o":"m 496 510 l 585 599 l 706 478 l 588 360 l 496 451 l 496 28 l 582 28 l 582 0 l 496 0 l 496 -200 l 418 -210 q 467 -4 467 -106 l 467 0 l 75 0 l 75 28 l 186 28 l 186 219 q 178 642 186 515 q 151 864 171 769 l 65 864 l 65 892 q 399 928 272 890 q 383 499 383 728 q 400 28 383 222 l 467 28 l 467 1119 l 547 1132 q 496 893 496 1025 l 496 756 q 743 942 558 942 q 1012 867 910 942 q 1114 647 1114 793 q 1086 514 1114 578 q 1019 402 1058 450 q 941 310 981 354 q 874 215 901 265 q 846 117 846 165 q 869 41 846 68 q 931 14 892 14 q 1013 53 976 14 q 1050 178 1050 93 q 1044 246 1050 213 l 1058 261 l 1179 232 q 1117 56 1179 125 q 953 -14 1056 -14 q 840 28 882 -14 q 799 154 799 71 q 840 364 799 217 q 882 611 882 511 q 714 907 882 907 q 551 805 607 907 q 496 533 496 703 l 496 510 z "},"O":{"ha":1242,"x_min":69,"x_max":1172,"o":"m 500 -200 l 422 -210 q 471 -4 471 -106 l 471 4 q 183 172 296 46 q 69 457 69 297 q 182 751 69 621 q 471 926 294 881 l 471 1119 l 551 1132 q 500 893 500 1025 l 500 789 q 708 942 549 942 q 924 883 817 942 q 1101 716 1031 824 q 1172 485 1172 608 q 1010 133 1172 279 q 621 -14 847 -14 q 500 -3 563 -14 l 500 -200 m 621 14 q 863 126 789 14 q 936 464 936 238 q 872 797 936 681 q 692 914 808 914 q 596 887 635 914 q 537 806 557 860 q 508 688 517 753 q 500 533 500 624 l 500 510 l 589 599 l 710 478 l 592 360 l 500 451 l 500 32 q 621 14 557 14 m 306 464 q 471 44 306 128 l 471 897 q 344 738 383 844 q 306 464 306 632 z "},"P":{"ha":1044,"x_min":60,"x_max":990,"o":"m 421 -210 q 469 -4 469 -106 l 469 0 l 78 0 l 78 28 l 189 28 l 189 219 q 181 642 189 515 q 154 864 174 769 l 60 864 l 60 892 q 401 928 275 890 q 386 499 386 728 q 388 354 386 406 l 469 354 l 469 1119 l 550 1132 q 499 893 499 1025 l 499 817 q 651 942 538 942 q 890 858 790 942 q 990 654 990 775 q 873 421 990 515 q 564 326 756 326 l 499 326 l 499 28 l 661 28 l 661 0 l 499 0 l 499 -200 l 421 -210 m 499 533 l 499 354 l 564 354 q 710 424 665 354 q 754 633 754 493 q 723 841 754 768 q 635 914 692 914 q 549 863 581 914 q 508 733 518 811 q 499 533 499 656 m 469 326 l 388 326 q 403 28 393 139 l 469 28 l 469 326 z "},"Q":{"ha":1242,"x_min":69,"x_max":1172,"o":"m 894 -406 q 751 -374 822 -406 q 633 -301 681 -342 q 521 -212 585 -261 q 408 -140 457 -164 q 233 -204 325 -204 q 201 -135 201 -161 q 290 -87 201 -87 q 383 -96 332 -87 q 457 7 439 -64 q 178 176 288 53 q 69 457 69 300 q 182 751 69 621 q 471 926 294 881 l 471 1119 l 551 1132 q 500 893 500 1025 l 500 797 q 708 942 553 942 q 924 883 817 942 q 1101 716 1031 824 q 1172 485 1172 608 q 1010 133 1172 279 q 621 -14 847 -14 q 488 0 549 -14 q 443 -107 475 -58 q 595 -142 471 -112 q 801 -184 719 -171 q 953 -197 883 -197 q 1076 -169 1033 -197 q 1133 -74 1119 -140 l 1157 -78 q 1153 -118 1157 -97 q 1067 -328 1133 -250 q 894 -406 1000 -406 m 621 14 q 863 126 789 14 q 936 464 936 238 q 872 797 936 681 q 692 914 808 914 q 596 887 635 914 q 537 806 557 860 q 508 688 517 753 q 500 533 500 624 l 500 510 l 589 599 l 710 478 l 592 360 l 500 451 l 500 115 q 494 35 500 68 q 621 14 549 14 m 306 464 q 465 47 306 132 q 471 131 471 81 l 471 897 q 344 738 383 844 q 306 464 306 632 z "},"R":{"ha":1076,"x_min":67,"x_max":1189,"o":"m 494 -200 l 417 -210 q 465 -4 465 -106 l 465 0 l 74 0 l 74 28 l 185 28 l 185 219 q 177 642 185 515 q 150 864 169 769 l 67 864 l 67 892 q 397 928 271 890 q 382 499 382 728 l 382 438 l 465 438 l 465 1119 l 546 1132 q 494 893 494 1025 l 494 821 q 647 942 532 942 q 887 872 788 942 q 986 696 986 803 q 884 501 986 581 q 610 411 782 422 q 710 275 625 393 q 860 89 796 157 q 1078 -57 993 -57 q 1172 -18 1125 -57 l 1189 -36 q 1160 -64 1181 -44 q 918 -178 1039 -178 q 746 -97 821 -178 q 676 22 701 -49 q 643 153 650 92 q 621 288 636 214 q 582 410 606 361 l 494 410 l 494 28 l 581 28 l 581 0 l 494 0 l 494 -200 m 494 533 l 494 438 l 560 438 q 706 497 661 438 q 750 675 750 556 q 719 851 750 790 q 631 913 688 913 q 545 861 576 913 q 504 732 514 810 q 494 533 494 654 m 465 28 l 465 410 l 382 410 q 399 28 385 200 l 465 28 z "},"S":{"ha":1181,"x_min":69,"x_max":1103,"o":"m 624 -200 l 546 -210 q 594 -12 593 -110 q 222 147 375 3 q 69 485 69 290 q 221 808 69 675 q 575 942 372 942 l 594 942 l 594 1119 l 675 1132 q 626 940 636 1051 q 724 930 669 939 q 810 921 779 921 q 1018 1033 1015 921 l 1043 1033 l 1043 993 q 991 797 1043 871 q 843 722 939 722 q 736 738 801 722 q 639 753 671 753 q 624 751 629 753 l 624 539 q 767 553 667 539 q 910 568 868 568 q 1051 517 1000 568 q 1103 379 1103 465 q 968 99 1103 213 q 640 -14 833 -14 l 624 -14 l 624 -200 m 306 464 q 373 141 306 253 q 594 15 440 29 l 594 351 q 465 416 513 357 q 417 556 417 475 q 469 703 417 646 q 594 775 522 760 l 594 913 q 575 914 582 914 q 376 797 447 914 q 306 464 306 679 m 763 760 q 731 810 750 774 q 687 873 711 847 q 624 908 663 899 l 624 781 l 639 781 q 763 760 682 781 m 503 631 q 594 540 503 549 l 594 747 q 528 703 553 735 q 503 631 503 671 m 640 14 q 863 84 790 14 q 935 238 935 154 q 905 335 935 303 q 806 367 875 367 q 708 359 768 367 q 624 351 649 351 l 624 14 l 640 14 z "},"T":{"ha":1135,"x_min":42,"x_max":1100,"o":"m 646 -200 l 568 -210 q 617 -8 617 -106 q 330 126 439 14 q 221 390 221 239 q 225 440 221 415 q 42 682 42 511 q 140 872 42 803 q 357 942 238 942 q 426 939 386 942 q 522 931 465 936 q 617 924 579 926 l 617 1119 l 697 1132 q 647 922 651 1036 q 764 918 703 918 q 999 951 925 918 q 1075 1075 1072 985 l 1100 1075 l 1100 1035 q 1028 797 1100 886 q 824 708 957 708 q 646 761 738 708 l 646 510 l 735 599 l 856 478 l 738 360 l 646 451 l 646 19 q 700 14 668 14 q 843 68 785 14 q 901 208 901 122 q 896 258 901 225 l 918 274 l 1068 229 q 963 63 1068 140 q 699 -14 858 -14 q 646 -11 679 -14 l 646 -200 m 167 700 q 232 474 167 543 q 363 673 261 589 q 610 782 464 757 q 547 825 601 788 q 473 873 492 863 q 414 898 454 883 q 339 913 374 913 q 210 853 253 913 q 167 700 167 793 m 457 413 q 617 26 457 81 l 617 751 q 457 413 457 696 z "},"U":{"ha":1201,"x_min":42,"x_max":1140,"o":"m 725 482 l 725 864 l 639 864 l 639 892 l 725 892 l 725 1121 l 803 1131 q 754 925 754 1026 l 754 892 q 1050 928 933 896 q 1035 499 1035 728 q 1051 28 1035 222 l 1140 28 l 1140 0 l 754 0 l 754 -186 l 674 -199 q 725 40 725 -92 l 725 165 q 492 -14 665 -14 q 237 60 335 -14 q 139 281 139 135 q 163 414 139 350 q 222 526 188 478 q 292 618 257 574 q 351 713 326 663 q 375 811 375 763 q 350 886 375 858 q 283 914 325 914 q 203 876 236 914 q 169 757 169 839 q 176 682 169 728 l 163 667 l 42 696 q 101 873 42 804 q 263 942 161 942 q 379 896 336 942 q 422 754 422 850 q 397 562 422 704 q 371 317 371 419 q 521 21 371 21 q 673 121 621 21 q 725 388 725 221 l 725 424 l 636 335 l 515 456 l 633 574 l 725 482 m 803 864 l 754 864 l 754 28 l 838 28 l 838 219 q 830 642 838 515 q 803 864 822 769 z "},"V":{"ha":1264,"x_min":-18,"x_max":1189,"o":"m 535 -210 q 583 -4 583 -106 l 583 0 l 161 0 l 161 28 l 275 28 q 300 456 300 264 q 283 747 300 640 q 242 883 265 853 q 183 914 218 914 q 128 881 150 914 q 107 779 107 849 q 117 682 107 735 l 103 667 l -18 696 q 37 874 -18 806 q 197 942 92 942 q 428 828 356 942 q 500 485 500 715 l 500 28 l 583 28 l 583 1119 l 664 1132 q 613 893 613 1025 l 613 776 q 818 942 665 942 q 1084 842 979 942 q 1189 546 1189 742 q 1028 167 1189 321 q 613 1 868 14 l 613 -200 l 535 -210 m 704 360 l 613 451 l 613 29 q 769 85 703 39 q 876 204 836 131 q 934 367 915 278 q 953 563 953 457 q 908 823 953 736 q 789 910 863 910 q 658 808 703 910 q 613 533 613 706 l 613 510 l 701 599 l 822 478 l 704 360 z "},"W":{"ha":1750,"x_min":-31,"x_max":1672,"o":"m 801 -168 l 738 -212 q 710 -8 742 -93 l 707 0 l 268 0 l 268 28 l 396 28 q 64 864 253 444 l -31 864 l -31 892 q 269 928 149 890 q 618 28 476 388 l 696 28 l 285 1106 l 350 1153 q 390 917 347 1035 l 442 781 q 493 900 446 858 q 610 942 540 942 q 744 913 679 942 q 867 824 810 883 q 960 660 925 764 q 996 422 996 557 l 996 28 l 1081 28 l 1081 1119 l 1161 1132 q 1110 893 1110 1025 l 1110 769 q 1308 942 1156 942 q 1569 840 1467 942 q 1672 539 1672 739 q 1517 163 1672 313 q 1110 1 1361 14 l 1110 -200 l 1032 -210 q 1081 0 1079 -110 l 738 0 l 801 -168 m 471 767 q 492 650 471 714 l 728 28 l 788 28 l 788 443 q 776 642 788 557 q 746 778 764 728 q 701 858 728 828 q 649 899 675 889 q 592 910 624 910 q 504 872 538 910 q 471 767 471 835 m 1201 360 l 1110 451 l 1110 29 q 1299 117 1224 42 q 1405 303 1374 193 q 1436 556 1436 413 q 1392 821 1436 733 q 1279 908 1349 908 q 1153 807 1196 908 q 1110 533 1110 706 l 1110 510 l 1199 599 l 1319 478 l 1201 360 z "},"X":{"ha":1119,"x_min":47,"x_max":1125,"o":"m 261 -232 q 244 -221 256 -229 q 226 -210 232 -212 q 47 50 47 -99 q 89 182 47 115 q 188 277 126 242 q 333 343 249 313 q 458 397 418 374 q 183 864 357 572 l 89 864 l 89 892 q 403 928 275 890 q 615 522 518 692 q 672 578 644 549 l 385 1085 l 450 1135 q 522 901 457 1018 l 692 601 q 761 768 761 685 q 730 872 761 836 q 642 908 699 908 l 642 936 q 740 942 690 942 q 927 904 863 942 q 992 818 992 867 q 917 696 992 763 q 721 550 843 629 l 1017 28 l 1096 28 l 1096 0 l 1033 0 l 1125 -162 l 1061 -210 q 1003 -7 1051 -92 l 999 0 l 544 0 l 544 28 l 667 28 l 613 128 q 475 368 586 176 q 291 123 374 263 q 208 -92 208 -17 q 274 -210 208 -164 l 261 -232 m 983 28 l 696 535 q 632 493 682 525 q 922 28 724 335 l 983 28 z "},"Y":{"ha":1240,"x_min":-18,"x_max":1174,"o":"m 892 -96 q 778 -270 892 -193 q 471 -347 664 -347 q 162 -279 272 -347 q 51 -111 51 -211 q 115 36 51 -26 q 294 121 179 99 l 294 513 q 279 767 294 675 q 242 886 264 858 q 183 914 219 914 q 128 882 150 914 q 107 781 107 850 q 117 682 107 736 l 103 667 l -18 696 q 37 874 -18 806 q 197 942 92 942 q 430 828 357 942 q 503 485 503 715 l 503 132 l 585 132 l 585 1119 l 671 1132 q 614 893 614 1011 l 614 788 q 814 942 663 942 q 1073 856 972 942 q 1174 601 1174 771 q 1019 258 1174 397 q 614 106 864 118 l 614 -89 l 536 -99 q 585 104 585 6 l 443 104 q 280 40 336 104 q 224 -117 224 -24 q 291 -265 224 -210 q 471 -319 358 -319 q 663 -249 593 -319 q 733 -90 733 -178 q 726 -42 733 -67 l 740 -29 l 892 -96 m 706 360 l 614 451 l 614 135 q 803 217 728 146 q 910 390 879 289 q 942 618 942 490 q 898 837 942 764 q 785 910 854 910 q 614 533 614 910 l 614 510 l 703 599 l 824 478 l 706 360 z "},"Z":{"ha":1097,"x_min":-64,"x_max":1040,"o":"m 10 -208 l -64 -178 q 81 -25 33 -107 l 94 0 l 36 0 l 36 28 l 111 28 l 613 904 q 451 873 518 897 q 350 814 383 849 q 302 747 317 779 q 288 679 288 714 q 338 590 288 624 l 321 568 q 149 698 204 631 q 93 822 93 765 q 163 914 93 888 q 383 940 233 940 q 628 929 443 940 l 743 1132 l 819 1100 q 657 919 722 1036 l 146 28 l 206 28 q 710 901 478 432 q 1029 928 889 899 l 1036 901 l 942 879 q 460 28 749 576 l 531 28 q 766 95 682 28 q 850 244 850 163 q 804 332 850 297 l 821 353 q 987 220 933 288 q 1040 96 1040 153 q 988 13 1040 33 q 821 -8 935 -8 q 651 -4 772 -8 q 463 0 529 0 l 129 0 l 10 -208 z "},"[":{"ha":374,"x_min":58,"x_max":453,"o":"m 433 -26 q 301 -168 383 -72 q 58 -15 150 -125 q 79 176 79 54 l 79 843 l 196 875 l 267 1000 l 453 951 l 404 815 q 235 858 265 853 l 235 236 q 219 56 235 124 q 381 -43 283 -6 q 414 -6 397 -26 l 433 -26 z "},"\\":{"ha":471,"x_min":-24,"x_max":496,"o":"m 496 10 l 394 -11 l 107 774 q -24 979 60 903 l 81 1000 l 379 185 q 496 10 411 94 z "},"]":{"ha":365,"x_min":-76,"x_max":296,"o":"m 110 -169 l -76 -121 l -28 15 q 139 -31 129 -29 q 149 396 149 174 q 142 807 149 568 q -8 865 71 846 q -40 829 -24 850 l -60 850 q 76 1000 -14 892 l 194 958 q 278 904 261 935 q 296 765 296 874 l 296 43 l 179 -58 l 110 -169 z "},"^":{"ha":694,"x_min":19,"x_max":604,"o":"m 469 325 q 367 596 458 386 l 300 738 l 122 356 l 19 383 q 165 585 104 451 l 331 940 l 360 940 l 360 939 l 361 940 l 604 421 l 469 325 z "},"_":{"ha":708,"x_min":42,"x_max":667,"o":"m 651 -214 l 215 -214 q 42 -235 114 -214 l 57 -162 l 493 -162 q 667 -142 594 -162 l 651 -214 z "},"`":{"ha":694,"x_min":229,"x_max":465,"o":"m 415 781 q 229 940 307 842 l 353 1006 q 465 835 404 901 q 415 781 429 799 z "},"a":{"ha":554,"x_min":33,"x_max":596,"o":"m 464 -8 q 315 126 372 40 q 210 -8 263 47 q 110 54 161 10 q 33 144 60 99 q 54 322 54 217 l 54 357 l 144 383 q 58 485 58 408 q 110 596 58 532 l 197 703 l 424 656 q 481 551 481 644 l 481 394 q 465 201 481 286 q 547 121 486 164 q 576 154 561 136 l 596 133 q 464 -8 546 88 m 231 404 q 325 422 279 404 l 325 526 q 136 571 214 561 q 117 507 117 533 q 231 404 117 404 m 190 208 q 279 129 224 161 q 325 338 325 196 l 325 394 q 208 375 272 375 l 206 375 l 206 357 q 190 208 206 275 z "},"b":{"ha":588,"x_min":-42,"x_max":533,"o":"m 308 -8 q 163 56 239 11 q 63 144 88 100 q 83 336 83 214 l 83 836 l 8 872 q -8 853 3 867 q -22 838 -19 840 l -42 858 q 90 1000 8 904 l 214 946 l 214 1093 l 256 1106 q 239 935 239 1014 l 239 574 q 342 703 286 647 l 475 649 q 533 551 533 625 l 533 213 q 308 -8 397 92 m 239 396 q 226 213 239 281 q 375 117 274 161 q 382 354 382 253 q 379 519 382 463 q 269 563 321 549 q 239 522 263 554 l 239 396 z "},"c":{"ha":396,"x_min":38,"x_max":426,"o":"m 240 -8 q 124 53 185 7 q 38 144 64 99 q 58 336 58 214 l 58 546 l 157 574 l 246 703 l 426 618 l 347 504 l 347 396 l 314 385 q 322 496 321 435 q 214 544 279 517 l 214 396 q 199 215 214 283 q 319 119 261 147 q 357 163 329 129 l 376 142 q 303 65 344 111 l 240 -8 z "},"d":{"ha":574,"x_min":-50,"x_max":514,"o":"m 289 -8 q 151 56 222 11 q 53 144 79 100 q 74 336 74 214 l 74 547 l 229 590 l 229 396 q 214 215 229 283 q 356 117 267 156 q 364 361 364 224 q 360 565 364 456 l 19 754 q -43 814 -36 785 q -12 892 -50 843 q 72 1019 40 958 l 93 1004 l 72 968 q 65 942 65 954 q 137 864 65 913 q 422 708 208 815 q 496 641 478 681 q 514 524 514 601 l 514 213 q 289 -8 378 92 z "},"e":{"ha":453,"x_min":-7,"x_max":439,"o":"m 276 -8 q 142 55 211 10 q 47 144 74 100 q 68 332 68 213 q -7 322 56 331 l 11 361 l 68 361 l 68 546 l 174 575 l 261 703 l 397 625 q 432 582 425 610 q 415 524 439 554 q 254 361 367 465 l 418 361 l 400 328 q 222 336 325 336 q 208 215 218 256 q 356 119 260 160 q 393 163 382 149 l 413 142 q 339 65 381 111 l 276 -8 m 224 369 l 332 474 q 224 546 283 515 l 224 369 z "},"f":{"ha":339,"x_min":0,"x_max":454,"o":"m 239 -8 q 133 51 188 6 q 50 144 78 97 q 71 336 71 214 l 71 643 q 0 633 21 636 l 18 694 l 71 694 l 71 843 l 169 871 l 258 1000 l 454 908 l 347 779 q 226 846 296 818 l 226 694 l 369 694 l 351 639 q 226 647 283 646 l 226 382 q 211 201 226 269 q 318 119 250 151 q 356 163 328 129 l 375 142 q 301 65 343 111 l 239 -8 z "},"g":{"ha":560,"x_min":39,"x_max":528,"o":"m 392 -347 l 371 -332 l 388 -308 q 406 -262 406 -281 q 293 -151 406 -217 l 189 -92 q 153 -43 153 -72 q 200 31 153 -12 q 257 83 235 63 q 125 148 189 107 q 39 228 61 189 q 60 419 60 297 l 60 547 l 149 572 l 236 703 l 408 657 q 460 639 442 649 l 460 789 l 524 811 q 510 653 510 717 l 510 296 q 261 46 390 190 q 368 -13 294 21 q 469 -64 442 -47 q 528 -149 528 -103 q 500 -211 528 -181 q 392 -347 439 -278 m 200 299 q 354 200 249 244 q 358 365 358 307 q 356 510 358 449 q 215 553 328 521 l 215 479 q 200 299 215 367 z "},"h":{"ha":607,"x_min":-42,"x_max":649,"o":"m 517 -8 q 426 58 471 15 q 357 144 382 100 q 378 336 378 214 l 378 521 q 272 564 317 550 q 239 521 254 543 l 239 396 q 224 201 239 264 q 322 110 243 163 l 222 -8 q 132 58 176 15 q 63 144 88 100 q 83 336 83 214 l 83 836 l 8 872 q -8 853 3 867 q -22 838 -19 840 l -42 858 q 90 1000 8 904 l 214 946 l 214 1093 l 256 1106 q 239 935 239 1014 l 239 571 q 343 703 285 644 l 476 649 q 533 551 533 626 l 533 396 q 518 201 533 264 q 600 121 539 164 q 629 154 614 136 l 649 133 q 517 -8 599 88 z "},"i":{"ha":313,"x_min":-40,"x_max":354,"o":"m 50 799 q 189 990 111 913 l 269 928 l 67 783 l 50 799 m 222 -8 q 132 58 176 15 q 63 144 88 100 q 83 336 83 214 l 83 526 q 8 572 42 558 q -21 540 -11 553 l -40 561 q 92 703 10 607 l 182 656 q 228 613 217 638 q 239 551 239 589 l 239 396 q 224 201 239 264 q 306 121 244 164 q 335 154 319 136 l 354 133 q 222 -8 304 88 z "},"j":{"ha":307,"x_min":-47,"x_max":264,"o":"m 44 799 q 183 990 106 913 l 264 928 l 61 783 l 44 799 m 4 -282 l -17 -269 q 62 -1 40 -112 q 83 275 83 111 q 78 526 83 419 q 1 574 36 558 q -28 540 -14 558 l -47 561 q 85 703 3 607 l 176 656 q 222 613 211 638 q 233 551 233 589 l 233 110 q 4 -282 103 -104 z "},"k":{"ha":603,"x_min":-42,"x_max":649,"o":"m 517 -8 q 431 57 472 15 q 363 144 389 99 q 378 239 378 189 l 378 310 q 308 340 326 333 l 306 342 q 236 292 276 319 q 224 201 232 239 q 322 110 243 163 l 222 -8 q 132 58 176 15 q 63 144 88 100 q 83 336 83 214 l 83 836 l 8 872 q -8 853 3 867 q -22 838 -19 840 l -42 858 q 90 1000 8 904 l 214 946 l 214 1093 l 256 1106 q 239 935 239 1014 l 239 518 q 410 703 310 603 l 474 665 q 542 585 542 626 q 493 501 542 550 q 436 447 478 486 l 481 429 q 524 398 514 415 q 533 347 533 381 l 533 288 q 524 201 533 239 q 600 121 546 160 q 629 154 614 136 l 649 133 q 517 -8 599 88 m 239 396 q 238 325 239 347 q 385 438 324 385 q 417 488 417 465 q 356 551 417 518 l 321 571 q 239 471 278 524 l 239 396 z "},"l":{"ha":313,"x_min":-42,"x_max":340,"o":"m 239 935 l 239 396 q 224 201 239 268 q 292 121 247 157 q 321 154 306 136 l 340 133 q 208 -8 290 88 q 63 144 128 33 q 83 336 83 214 l 83 836 l 8 872 q -8 853 3 867 q -22 838 -19 840 l -42 858 q 90 1000 8 904 l 214 946 l 214 1093 l 256 1106 q 239 935 239 1014 z "},"m":{"ha":899,"x_min":-42,"x_max":940,"o":"m 808 -8 q 718 58 763 15 q 649 144 674 100 q 669 336 669 214 l 669 526 q 567 568 617 553 q 533 525 549 547 l 533 396 q 518 201 533 264 q 617 110 538 163 l 517 -8 q 426 58 471 15 q 357 144 382 100 q 378 336 378 214 l 378 532 q 275 568 326 554 q 239 521 250 536 l 239 396 q 224 201 239 264 q 322 110 243 163 l 222 -8 q 132 58 176 15 q 63 144 88 100 q 83 336 83 214 l 83 539 l 8 575 q -8 556 3 569 q -22 540 -19 543 l -42 561 q 90 703 8 607 l 239 638 l 239 571 q 343 703 285 644 l 533 638 l 533 575 q 635 703 581 649 l 768 649 q 825 551 825 626 l 825 396 q 810 201 825 264 q 892 121 831 164 q 921 154 906 136 l 940 133 q 808 -8 890 88 z "},"n":{"ha":607,"x_min":-42,"x_max":649,"o":"m 517 -8 q 426 58 471 15 q 357 144 382 100 q 378 336 378 214 l 378 526 q 275 568 325 553 q 239 521 250 536 l 239 396 q 224 201 239 257 q 322 110 243 163 l 222 -8 q 132 58 176 15 q 63 144 88 100 q 83 336 83 214 l 83 539 l 8 575 q -8 556 3 569 q -22 540 -19 543 l -42 561 q 90 703 8 607 l 239 638 l 239 571 q 343 703 285 644 l 476 649 q 533 551 533 626 l 533 396 q 518 201 533 257 q 600 121 539 164 q 629 154 614 136 l 649 133 q 517 -8 599 88 z "},"o":{"ha":560,"x_min":38,"x_max":508,"o":"m 283 -8 q 138 56 214 11 q 38 144 63 100 q 58 336 58 214 l 58 547 l 147 572 l 235 703 l 407 657 q 491 608 474 639 q 508 468 508 576 l 508 213 q 283 -8 372 92 m 199 215 q 350 117 244 164 q 357 360 357 256 q 354 510 357 404 q 214 553 326 521 l 214 396 q 199 215 214 300 z "},"p":{"ha":585,"x_min":-42,"x_max":533,"o":"m 108 -400 l 67 -412 q 83 -200 83 -296 l 83 25 q -18 8 36 21 l -22 17 l 82 119 l 83 119 l 83 539 l 8 575 q -8 556 3 569 q -22 540 -19 543 l -42 561 q 90 703 8 607 l 239 638 l 239 574 q 342 703 286 647 l 475 649 q 533 551 533 625 l 533 213 q 308 -8 397 92 q 239 14 267 7 l 239 -197 l 108 -274 l 108 -400 m 379 519 q 269 563 321 549 q 239 522 263 554 l 239 144 q 375 117 308 140 q 382 365 382 253 q 379 519 382 414 z "},"q":{"ha":567,"x_min":38,"x_max":500,"o":"m 329 -412 q 344 -222 340 -333 q 353 174 350 -25 q 197 -8 310 107 q 107 58 151 15 q 38 144 63 100 q 58 336 58 214 l 58 547 l 147 572 l 235 703 l 399 657 q 483 607 465 638 q 500 468 500 576 l 500 -197 l 371 -274 l 371 -400 l 329 -412 m 279 122 q 353 222 317 164 l 353 236 q 346 510 353 346 q 214 551 288 532 l 214 396 q 199 201 214 264 q 279 122 217 165 z "},"r":{"ha":438,"x_min":-42,"x_max":471,"o":"m 222 -8 q 132 58 176 15 q 63 144 88 100 q 83 336 83 214 l 83 539 l 8 575 q -8 556 3 569 q -22 540 -19 543 l -42 561 q 90 703 8 607 l 239 638 l 239 567 q 346 703 289 646 l 471 607 l 386 497 l 386 401 l 353 390 q 360 493 360 439 q 272 561 326 528 q 239 517 250 533 l 239 396 q 224 201 239 264 q 304 122 242 165 q 339 163 326 147 l 358 142 q 285 65 326 111 l 222 -8 z "},"s":{"ha":518,"x_min":28,"x_max":490,"o":"m 250 -8 l 54 136 l 28 156 q 126 244 50 172 l 154 271 l 36 363 l 36 381 q 61 553 36 471 l 153 596 l 267 703 l 468 569 l 486 557 l 371 444 l 453 386 q 490 313 490 360 q 465 143 490 226 l 353 89 l 250 -8 m 256 368 l 344 453 q 193 565 275 525 q 175 432 175 493 q 256 368 201 410 m 350 274 q 264 340 311 315 l 175 254 q 332 125 253 169 q 350 274 350 207 z "},"t":{"ha":356,"x_min":-11,"x_max":388,"o":"m 314 65 l 251 -8 q 145 51 200 6 q 63 144 90 97 q 83 336 83 214 l 83 644 q -11 633 22 639 l 7 694 l 83 694 l 83 789 l 214 865 l 214 1007 l 256 1019 q 239 849 239 903 l 239 694 l 386 694 l 368 639 q 239 647 296 646 l 239 364 q 224 201 236 253 q 331 119 263 151 q 368 163 340 129 l 388 142 q 314 65 356 111 z "},"u":{"ha":607,"x_min":-42,"x_max":649,"o":"m 517 -8 q 426 58 471 15 q 357 143 382 100 q 222 -8 322 94 q 132 58 176 15 q 63 144 88 100 q 83 336 83 214 l 83 539 l 8 575 q -8 556 3 569 q -22 540 -19 543 l -42 561 q 90 703 8 607 l 239 638 l 239 396 q 224 201 239 264 q 303 122 242 167 q 372 221 342 167 q 378 336 378 261 l 378 526 q 285 575 340 553 l 374 703 l 476 656 q 533 551 533 629 l 533 396 q 518 201 533 264 q 600 121 539 164 q 629 154 614 136 l 649 133 q 517 -8 599 88 z "},"v":{"ha":585,"x_min":-42,"x_max":533,"o":"m 308 -8 q 161 56 235 13 q 63 144 88 99 q 83 336 83 214 l 83 539 l 8 575 q -8 556 3 569 q -22 540 -19 543 l -42 561 q 90 703 8 607 l 239 638 l 239 396 q 224 215 239 283 q 375 118 271 163 q 382 374 382 274 q 379 526 382 418 q 285 575 331 557 l 374 703 l 469 658 q 533 544 533 628 l 533 213 q 308 -8 397 92 z "},"w":{"ha":840,"x_min":-42,"x_max":817,"o":"m 531 -8 q 357 143 408 57 q 222 -8 322 94 q 132 58 176 15 q 63 144 88 100 q 83 336 83 214 l 83 539 l 8 575 q -8 556 3 569 q -22 540 -19 543 l -42 561 q 90 703 8 607 l 239 638 l 239 396 q 237 267 239 297 q 224 201 235 236 q 303 122 242 167 q 372 221 342 167 q 378 336 378 261 l 378 526 q 285 575 340 553 l 374 703 l 533 625 l 533 396 q 531 267 533 297 q 518 201 529 236 q 617 117 546 156 q 678 306 678 193 q 569 568 678 492 l 679 703 q 817 446 817 600 q 799 328 817 385 q 740 217 781 272 q 674 133 699 161 q 592 51 650 106 q 531 -8 535 -4 z "},"x":{"ha":442,"x_min":-82,"x_max":471,"o":"m 114 82 l -61 -253 l -82 -240 q 51 74 15 -58 q 88 331 88 207 q -25 319 7 325 l -7 361 l 88 361 l 88 539 l 13 575 q -4 556 7 569 q -18 540 -15 543 l -37 561 q 94 703 13 607 l 243 638 l 243 574 q 346 703 290 647 l 471 607 l 386 497 l 386 401 l 353 390 q 360 493 360 439 q 272 561 326 528 q 243 522 253 536 l 243 361 l 428 361 l 410 325 q 265 333 338 333 l 242 333 q 228 201 239 250 q 308 122 246 165 q 343 163 331 147 l 363 142 q 289 65 331 111 l 226 -8 q 114 82 164 22 z "},"y":{"ha":576,"x_min":-44,"x_max":550,"o":"m 414 -347 l 393 -332 l 410 -308 q 428 -262 428 -281 q 315 -151 428 -217 l 211 -92 q 175 -43 175 -72 q 222 31 175 -12 q 276 82 244 50 q 147 145 211 104 q 60 226 83 186 q 81 418 81 296 l 81 539 l 6 575 q -11 556 0 569 q -25 540 -22 543 l -44 561 q 88 703 6 607 l 236 638 l 236 478 q 221 297 236 365 q 372 199 267 246 q 379 376 379 306 q 376 526 379 467 q 282 575 328 557 l 371 703 l 467 658 q 531 544 531 628 l 531 294 q 283 46 413 190 q 390 -13 317 21 q 492 -64 464 -47 q 550 -149 550 -103 q 522 -211 550 -181 q 414 -347 461 -278 z "},"z":{"ha":363,"x_min":-35,"x_max":383,"o":"m 297 -254 q 183 -347 224 -308 l 163 -325 l 196 -297 q 214 -264 214 -283 q 200 -217 214 -246 l 69 75 q 51 133 51 118 q 89 189 51 160 l 150 239 q 158 333 154 294 q 0 319 94 333 l 18 361 l 160 361 q 161 431 161 385 q 158 526 161 460 q 14 574 92 558 q -15 540 0 558 l -35 561 q 97 703 15 607 l 247 663 q 313 544 313 646 l 313 361 l 383 361 l 365 325 q 293 332 314 331 q 172 219 219 268 q 333 -114 264 14 q 351 -172 351 -146 q 297 -254 351 -214 z "},"{":{"ha":376,"x_min":-12,"x_max":447,"o":"m 315 -168 q 72 -15 164 -125 q 93 176 93 54 l 93 256 q -12 310 53 283 l 19 340 q 93 419 81 406 l 93 574 q 169 833 93 722 q 383 1010 246 944 l 396 989 q 278 851 306 935 q 250 606 251 768 l 250 533 q 122 417 174 472 l 192 385 q 249 281 249 358 l 249 236 q 233 56 249 115 q 394 -43 297 -6 q 428 -6 411 -26 l 447 -26 q 315 -168 397 -72 z "},"|":{"ha":175,"x_min":13,"x_max":163,"o":"m 111 -353 l 13 -362 q 61 -157 61 -258 l 61 1001 l 163 1014 q 111 775 111 907 l 111 -353 z "},"}":{"ha":375,"x_min":-69,"x_max":390,"o":"m -6 -178 l -18 -157 q 99 -19 72 -103 q 128 226 126 64 l 128 285 q 263 408 207 349 q 108 543 151 469 q 129 703 129 613 l 129 824 q -21 871 69 850 q -50 838 -36 856 l -69 858 q 63 1000 -19 904 l 228 953 q 285 849 285 936 l 285 743 q 269 600 285 672 q 293 572 278 585 q 343 538 308 558 q 388 510 378 517 l 390 508 q 285 399 335 456 l 285 258 q 208 -1 285 110 q -6 -178 132 -112 z "},"~":{"ha":694,"x_min":50,"x_max":643,"o":"m 456 358 q 317 422 410 358 q 181 486 225 486 q 75 428 121 486 l 50 451 q 109 517 76 479 q 157 570 142 554 q 194 599 172 586 q 238 613 215 613 q 376 549 285 613 q 513 485 468 485 q 618 543 572 485 l 643 519 q 584 454 617 492 q 536 401 551 417 q 499 372 521 385 q 456 358 478 358 z "}," ":{"ha":208,"x_min":0,"x_max":0,"o":""},"¡":{"ha":314,"x_min":38,"x_max":285,"o":"m 158 704 l 279 583 l 158 463 l 38 583 l 158 704 m 81 -304 l 78 -301 l 78 350 l 238 438 l 238 -196 q 274 -175 249 -189 l 285 -201 q 81 -304 210 -231 z "},"¢":{"ha":396,"x_min":38,"x_max":426,"o":"m 251 -181 l 174 -190 q 222 -3 218 -93 q 115 60 168 17 q 38 144 61 103 q 58 336 58 214 l 58 546 l 157 574 l 222 668 l 222 883 l 303 896 q 253 700 261 810 l 426 618 l 347 504 l 347 396 l 314 385 q 322 496 321 435 q 214 544 279 517 l 214 396 q 199 215 214 283 q 319 119 261 147 q 357 163 329 129 l 376 142 q 303 65 344 111 l 251 4 l 251 -181 z "},"£":{"ha":476,"x_min":0,"x_max":454,"o":"m 451 133 q 319 -8 401 88 q 176 15 256 -8 q 68 35 97 38 q 32 -6 50 18 l 13 15 q 72 75 33 33 q 86 240 86 135 l 86 256 q 35 247 67 253 q 0 242 4 242 l 15 290 l 86 290 l 86 546 l 185 574 l 274 703 l 454 618 l 375 504 l 375 396 l 342 385 q 350 496 349 435 q 242 544 307 517 l 242 290 q 415 311 311 293 l 400 263 l 240 263 q 229 149 238 197 q 273 138 243 146 q 334 125 303 129 q 406 124 365 121 q 432 154 422 143 l 451 133 z "},"¤":{"ha":664,"x_min":-7,"x_max":685,"o":"m 615 39 q 504 219 576 147 l 481 243 q 336 96 404 174 q 182 165 263 115 l 67 50 l -7 108 q 144 192 82 140 q 90 249 104 225 q 111 468 111 322 l 111 540 l 140 549 l 4 685 l 63 758 q 174 578 101 650 l 189 563 l 204 567 l 288 696 l 460 650 q 500 636 488 643 l 611 747 l 685 689 q 539 608 597 656 q 561 461 561 578 l 561 317 q 513 274 543 301 l 674 113 l 615 39 m 246 319 q 406 218 299 260 q 413 508 418 385 q 261 553 360 529 l 261 528 q 246 319 261 406 z "},"¥":{"ha":660,"x_min":-17,"x_max":689,"o":"m 444 -347 l 424 -332 l 440 -308 q 458 -262 458 -281 q 346 -151 458 -217 l 242 -92 q 206 -43 206 -72 q 253 31 206 -12 q 307 82 275 50 q 107 203 175 126 q -17 186 53 200 l -1 235 l 93 235 q 111 408 111 301 q -17 390 76 407 l -1 439 l 111 439 l 111 539 l 36 575 q 19 556 31 569 q 6 540 8 543 l -14 561 q 118 703 36 607 l 267 638 l 267 478 q 251 297 267 365 q 403 199 297 246 q 410 376 410 306 q 407 526 410 467 q 313 575 358 557 l 401 703 l 497 658 q 561 544 561 628 l 561 442 q 689 460 619 447 l 674 411 l 561 411 l 561 294 q 497 235 499 236 q 689 256 574 236 l 674 207 l 468 207 q 314 46 388 129 q 421 -13 347 21 q 522 -64 494 -47 q 581 -149 581 -103 q 553 -211 581 -181 q 444 -347 492 -278 z "},"¦":{"ha":179,"x_min":13,"x_max":167,"o":"m 64 1001 l 167 1014 q 115 775 115 907 l 115 390 l 64 390 l 64 1001 m 64 258 l 115 258 l 115 -353 l 13 -365 q 64 -126 64 -258 l 64 258 z "},"§":{"ha":1199,"x_min":86,"x_max":1119,"o":"m 636 -533 l 563 -543 q 611 -344 610 -440 q 239 -134 392 -325 q 86 315 86 57 q 238 759 86 576 q 592 942 389 942 l 611 942 l 611 1119 l 688 1132 q 639 940 649 1051 q 739 930 683 939 q 826 921 794 921 q 1035 1033 1032 921 l 1060 1033 q 1061 993 1061 1021 q 1009 797 1061 871 q 860 722 957 722 q 753 738 818 722 q 656 753 688 753 q 636 751 643 753 l 636 539 l 638 539 q 783 553 681 539 q 932 568 886 568 q 1119 413 1119 568 q 976 168 1119 267 q 1119 15 1119 151 q 985 -244 1119 -140 q 657 -347 850 -347 l 636 -347 l 636 -533 m 322 294 q 390 -145 322 7 q 611 -317 457 -297 l 611 -46 q 481 19 529 -40 q 433 158 433 78 q 469 283 433 232 q 561 361 506 335 q 467 435 501 382 q 433 556 433 489 q 486 703 433 646 q 611 775 539 760 l 611 913 q 592 914 606 914 q 393 753 464 914 q 322 294 322 592 m 779 760 q 746 812 767 774 q 701 875 725 850 q 636 910 676 900 l 636 779 q 656 781 643 781 q 779 760 699 781 m 519 631 q 611 540 519 549 l 611 747 q 544 703 569 735 q 519 631 519 671 m 638 142 q 778 156 681 142 q 918 171 876 169 q 951 265 951 215 q 822 367 951 367 q 722 359 783 367 q 636 351 661 351 l 636 142 l 638 142 m 519 233 q 611 143 519 151 l 611 350 q 544 306 569 338 q 519 233 519 274 m 657 -319 q 879 -261 807 -319 q 951 -132 951 -203 q 822 -31 951 -31 q 722 -38 783 -31 q 636 -46 661 -46 l 636 -319 l 657 -319 z "},"¨":{"ha":694,"x_min":168,"x_max":526,"o":"m 335 863 l 253 781 l 168 865 l 250 947 l 335 863 m 526 860 l 444 778 l 360 863 l 442 944 l 526 860 z "},"©":{"ha":1156,"x_min":63,"x_max":1092,"o":"m 1092 467 q 947 97 1092 243 q 579 -49 801 -49 q 210 98 358 -49 q 63 467 63 244 q 210 834 63 686 q 576 982 357 982 q 944 835 797 982 q 1092 467 1092 688 m 234 809 q 166 739 234 809 q 99 467 99 669 q 234 124 99 264 q 576 -17 369 -17 q 922 123 788 -17 q 1056 467 1056 263 q 922 809 1056 669 q 576 949 788 949 q 234 809 369 949 m 565 44 l 506 38 q 538 164 538 101 q 350 265 425 183 q 275 453 275 346 q 350 642 275 561 q 538 742 425 724 l 538 856 l 596 865 q 567 744 571 808 q 590 746 574 746 q 667 740 628 746 q 728 735 706 735 q 806 778 804 735 l 821 778 q 822 753 822 771 q 801 635 822 679 q 740 590 779 590 q 696 610 715 590 q 665 655 676 631 q 631 699 654 679 q 575 719 607 719 l 565 719 l 565 489 l 625 550 l 714 461 l 626 375 l 565 435 l 565 189 q 594 186 585 186 q 672 217 639 186 q 704 296 704 249 q 701 325 704 315 l 715 336 l 822 308 q 756 207 822 254 q 594 160 690 160 q 565 161 575 160 l 565 44 m 435 453 q 538 196 435 235 l 538 714 q 435 453 435 682 z "},"ª":{"ha":457,"x_min":50,"x_max":415,"o":"m 322 464 q 233 544 271 493 q 169 464 199 494 q 101 503 136 476 q 50 556 67 529 q 63 663 63 600 l 63 683 l 126 699 q 65 760 65 713 q 96 826 65 789 l 149 892 l 313 863 q 346 800 346 857 l 346 706 q 339 601 346 650 q 379 560 354 578 q 388 569 382 563 q 397 581 394 576 l 415 564 q 322 464 389 539 m 182 719 q 239 729 211 719 l 239 771 q 113 797 168 792 q 107 774 107 785 q 182 719 107 719 m 168 683 q 160 600 168 647 q 215 561 182 576 q 239 672 239 600 l 239 707 q 169 694 208 694 l 168 694 l 168 683 m 367 393 l 61 393 l 61 426 l 367 426 l 367 393 z "},"«":{"ha":753,"x_min":13,"x_max":714,"o":"m 596 106 l 346 339 l 346 368 l 621 589 l 714 546 q 506 432 606 513 l 472 406 l 526 354 q 711 204 607 276 l 596 106 m 263 106 l 13 339 l 13 368 l 288 589 l 381 546 q 172 432 272 513 l 139 406 l 193 354 q 378 204 274 276 l 263 106 z "},"¬":{"ha":694,"x_min":44,"x_max":649,"o":"m 519 219 q 581 404 563 297 l 283 404 q 44 385 149 404 l 57 521 l 410 521 q 649 540 544 521 l 636 404 l 619 225 l 519 219 z "},"­":{"ha":0,"x_min":0,"x_max":0,"o":""},"®":{"ha":1151,"x_min":75,"x_max":1076,"o":"m 1076 638 q 935 278 1076 421 q 578 135 794 135 q 219 278 363 135 q 75 638 75 421 q 218 996 75 853 q 575 1139 361 1139 q 934 996 792 1139 q 1076 638 1076 853 m 575 168 q 932 328 799 168 q 808 290 878 290 q 681 342 728 290 q 624 489 640 388 q 592 621 607 590 l 561 621 l 561 417 l 604 417 l 604 388 l 561 388 l 561 274 l 504 268 q 532 385 532 326 l 532 388 l 301 388 l 301 417 l 365 417 l 365 513 q 346 868 365 771 l 297 868 l 297 896 q 500 917 425 896 q 490 671 490 800 l 490 650 l 532 650 l 532 1026 l 590 1033 q 561 897 561 971 l 561 874 q 642 925 583 925 q 783 885 725 925 q 842 785 842 846 q 782 673 842 718 q 622 622 722 628 q 768 451 751 469 q 925 361 850 361 q 971 382 956 361 q 1040 638 1040 497 q 910 970 1040 835 q 575 1106 781 1106 q 242 970 372 1106 q 111 638 111 835 q 242 304 111 440 q 575 168 372 168 m 561 690 l 561 650 l 592 650 q 670 678 647 650 q 693 772 693 707 q 633 894 693 894 q 574 847 588 894 q 561 690 561 799 m 532 621 l 490 621 q 500 417 493 499 l 532 417 l 532 621 z "},"¯":{"ha":694,"x_min":190,"x_max":503,"o":"m 190 794 l 233 899 l 358 899 q 503 913 433 899 l 460 808 l 335 808 q 190 794 260 808 z "},"°":{"ha":469,"x_min":35,"x_max":435,"o":"m 256 472 q 128 517 188 486 q 35 582 68 549 q 50 719 50 632 l 50 831 l 143 851 l 193 942 l 363 896 q 422 863 408 883 q 435 774 435 842 l 435 631 q 256 472 332 553 m 178 761 q 171 647 178 710 q 306 583 247 604 q 307 772 311 669 q 269 785 294 776 q 220 802 243 794 q 178 815 197 810 l 178 761 z "},"±":{"ha":694,"x_min":44,"x_max":649,"o":"m 372 242 l 275 229 q 321 468 321 325 l 321 474 l 267 474 q 44 454 149 474 l 57 590 l 321 590 l 321 822 l 418 835 q 372 596 372 739 l 372 590 l 410 590 q 649 610 544 590 l 636 474 l 372 474 l 372 242 m 283 61 q 44 42 149 61 l 57 178 l 410 178 q 649 197 544 178 l 636 61 l 283 61 z "},"²":{"ha":208,"x_min":-26,"x_max":300,"o":"m 178 431 q -21 493 46 460 q -14 569 -14 532 l -14 600 q 69 655 18 622 q 135 697 119 688 q 142 789 146 739 q 26 831 107 808 q -8 790 4 803 l -26 813 q 96 942 44 879 l 232 900 q 274 822 274 889 q 265 749 274 771 q 190 696 239 729 q 117 643 140 663 l 117 633 q 113 581 117 600 q 243 538 156 558 q 282 582 268 568 l 300 560 q 178 431 229 494 z "},"³":{"ha":233,"x_min":-28,"x_max":319,"o":"m 140 331 l 142 333 l 139 331 q 42 374 93 342 q -28 440 -8 407 q 78 558 38 504 l 99 543 q 72 511 89 531 q 189 436 114 471 q 190 560 194 482 q 63 622 133 593 l 63 631 l 153 708 q 158 789 161 750 q 58 831 114 814 q 42 811 53 825 q 24 790 31 797 l 4 811 q 111 942 56 864 l 247 900 q 290 822 290 888 q 282 747 290 775 l 196 697 l 267 667 q 310 633 300 653 q 319 567 319 613 l 319 489 q 257 436 294 467 q 192 382 219 406 q 140 331 165 358 z "},"´":{"ha":694,"x_min":242,"x_max":451,"o":"m 242 764 q 311 940 308 856 l 435 1006 q 451 892 450 953 q 254 749 364 819 l 242 764 z "},"¶":{"ha":858,"x_min":54,"x_max":824,"o":"m 333 -199 q 383 0 375 -112 l 222 0 l 222 28 l 385 28 l 385 358 q 138 458 222 378 q 54 668 54 538 q 145 867 54 796 q 385 942 236 939 l 385 1121 l 463 1131 q 414 942 418 1031 l 622 942 q 824 963 704 942 l 808 914 l 707 914 q 693 499 693 718 q 710 28 693 222 l 800 28 l 800 0 l 414 0 l 414 -186 l 333 -199 m 493 499 q 479 914 493 718 l 414 914 l 414 28 l 476 28 q 493 499 493 222 z "},"·":{"ha":694,"x_min":242,"x_max":453,"o":"m 453 471 l 349 367 l 242 474 l 346 578 l 453 471 z "},"¸":{"ha":694,"x_min":210,"x_max":483,"o":"m 315 -285 q 374 -239 374 -285 q 349 -183 374 -211 q 240 -99 324 -156 l 240 -89 q 321 1 279 -49 q 368 65 363 50 l 483 142 q 347 -12 419 78 q 451 -105 425 -71 q 478 -178 478 -139 q 428 -266 478 -222 q 307 -310 378 -310 q 210 -289 250 -310 l 217 -240 l 224 -240 q 315 -285 264 -285 z "},"¹":{"ha":194,"x_min":-28,"x_max":272,"o":"m 161 431 q 97 478 129 447 q 46 540 65 508 q 61 678 61 590 l 61 799 q 13 829 38 817 q 3 817 10 825 q -7 804 -4 808 l -28 824 q 67 942 24 879 l 149 908 q 190 833 190 892 l 190 719 q 179 597 190 635 q 231 544 190 574 q 253 569 239 553 l 272 549 q 200 475 249 525 l 161 431 z "},"º":{"ha":407,"x_min":50,"x_max":360,"o":"m 211 464 q 50 556 79 504 q 63 671 63 597 l 63 797 l 140 817 l 182 892 l 300 864 q 349 835 339 854 q 360 750 360 815 l 360 597 q 292 540 344 583 q 211 464 240 496 m 169 707 q 163 604 169 656 q 253 563 193 583 q 256 682 256 643 q 254 761 256 733 q 169 788 238 768 l 169 707 m 360 393 l 63 393 l 63 426 l 360 426 l 360 393 z "},"»":{"ha":753,"x_min":39,"x_max":740,"o":"m 132 107 l 39 150 q 247 264 147 183 l 281 290 l 226 342 q 42 492 146 419 l 157 590 l 407 357 l 407 328 l 132 107 m 465 107 l 372 150 q 581 264 481 183 l 614 290 l 560 342 q 375 492 479 419 l 490 590 l 740 357 l 740 328 l 465 107 z "},"¼":{"ha":896,"x_min":-14,"x_max":885,"o":"m 175 431 q 111 478 143 447 q 60 540 79 508 q 75 678 75 590 l 75 799 q 26 829 51 817 q 17 817 24 825 q 7 804 11 808 l -14 824 q 81 942 38 879 l 163 908 q 204 833 204 892 l 204 719 q 193 597 204 635 q 244 544 204 574 q 267 569 253 553 l 286 549 q 214 475 263 525 l 175 431 m 526 721 l 154 -11 l 56 21 q 192 181 149 94 l 578 942 l 679 910 q 526 721 593 850 m 726 -189 l 690 -197 q 703 -44 703 -110 l 703 132 l 646 51 q 482 161 532 99 q 494 319 494 224 l 494 425 q 481 418 492 424 q 467 410 471 413 l 454 439 q 567 486 526 467 l 618 513 l 622 510 l 622 265 q 618 215 622 232 q 703 158 658 175 l 703 329 l 824 385 l 831 381 l 829 156 l 885 156 l 871 125 q 829 129 854 128 l 828 -36 l 726 -86 l 726 -189 z "},"½":{"ha":796,"x_min":-14,"x_max":768,"o":"m 175 431 q 111 478 143 447 q 60 540 79 508 q 75 678 75 590 l 75 799 q 26 829 51 817 q 17 817 24 825 q 7 804 11 808 l -14 824 q 81 942 38 879 l 163 908 q 204 833 204 892 l 204 719 q 193 597 204 635 q 244 544 204 574 q 267 569 253 553 l 286 549 q 214 475 263 525 l 175 431 m 526 721 l 154 -11 l 56 21 q 192 181 149 94 l 578 942 l 679 910 q 526 721 593 850 m 646 -8 q 447 54 514 21 q 454 131 454 93 l 454 161 q 537 216 486 183 q 603 258 588 249 q 610 350 614 300 q 494 392 575 369 q 460 351 472 364 l 442 374 q 564 503 513 440 l 700 461 q 742 383 742 450 q 733 310 742 332 q 658 257 707 290 q 585 204 608 224 l 585 194 q 581 142 585 161 q 711 99 624 119 q 750 143 736 129 l 768 121 q 646 -8 697 56 z "},"¾":{"ha":1007,"x_min":17,"x_max":996,"o":"m 185 331 l 186 333 l 183 331 q 87 374 138 342 q 17 440 36 407 q 122 558 82 504 l 143 543 q 117 511 133 531 q 233 436 158 471 q 235 560 239 482 q 107 622 178 593 l 107 631 l 197 708 q 203 789 206 750 q 103 831 158 814 q 86 811 97 825 q 68 790 75 797 l 49 811 q 156 942 100 864 l 292 900 q 335 822 335 888 q 326 747 335 775 l 240 697 l 311 667 q 354 633 344 653 q 364 567 364 613 l 364 489 q 301 436 339 467 q 237 382 264 406 q 185 331 210 358 m 638 721 l 265 -11 l 167 21 q 303 181 260 94 l 689 942 l 790 910 q 638 721 704 850 m 838 -189 l 801 -197 q 814 -44 814 -110 l 814 132 l 757 51 q 593 161 643 99 q 606 319 606 224 l 606 425 q 592 418 603 424 q 578 410 582 413 l 565 439 q 678 486 638 467 l 729 513 l 733 510 l 733 265 q 729 215 733 232 q 814 158 769 175 l 814 329 l 935 385 l 942 381 l 940 156 l 996 156 l 982 125 q 940 129 965 128 l 939 -36 l 838 -86 l 838 -189 z "},"¿":{"ha":342,"x_min":-61,"x_max":410,"o":"m 182 703 l 303 582 l 182 461 l 61 582 l 182 703 m 263 -303 q -61 -179 53 -265 q -50 -60 -50 -143 l -50 -11 q 104 122 78 97 l 104 349 l 264 436 l 264 193 q 106 71 154 115 l 106 47 q 96 -92 106 -35 q 346 -174 186 -149 q 390 -124 369 -150 l 410 -144 q 263 -303 356 -193 z "},"À":{"ha":1122,"x_min":-32,"x_max":1060,"o":"m 432 1203 q 572 1293 432 1271 q 689 1022 613 1171 l 665 1006 q 565 1078 628 1039 q 467 1146 501 1118 q 432 1203 432 1174 m 672 -200 l 594 -210 q 643 -4 643 -106 l 643 0 l 556 0 l 556 28 l 643 28 l 643 538 q 576 408 601 486 q 539 263 550 331 q 496 113 528 196 q 411 -29 464 31 q 239 -110 336 -110 q -3 4 118 -110 q -32 32 -24 24 l -15 50 q 83 10 31 10 q 303 150 174 10 q 499 390 367 218 l 393 390 q 154 339 261 390 l 168 418 l 521 418 q 643 575 611 538 l 643 715 q 381 732 460 732 q 185 699 247 732 q 121 575 124 665 l 96 575 q 94 615 94 588 q 153 853 94 764 q 321 942 213 942 q 434 908 379 942 q 550 819 489 874 q 643 744 611 764 l 643 892 l 676 892 q 971 928 867 896 q 956 499 956 728 q 972 28 956 222 l 1060 28 l 1060 0 l 672 0 l 672 -200 m 726 864 l 672 864 l 672 28 l 758 28 l 758 219 q 726 864 758 686 z "},"Á":{"ha":1122,"x_min":-32,"x_max":1060,"o":"m 465 1022 q 582 1293 542 1171 q 722 1203 722 1271 q 688 1146 722 1174 q 590 1078 653 1118 q 489 1006 526 1039 l 465 1022 m 672 -200 l 594 -210 q 643 -4 643 -106 l 643 0 l 556 0 l 556 28 l 643 28 l 643 538 q 576 408 601 486 q 539 263 550 331 q 496 113 528 196 q 411 -29 464 31 q 239 -110 336 -110 q -3 4 118 -110 q -32 32 -24 24 l -15 50 q 83 10 31 10 q 303 150 174 10 q 499 390 367 218 l 393 390 q 154 339 261 390 l 168 418 l 521 418 q 643 575 611 538 l 643 715 q 381 732 460 732 q 185 699 247 732 q 121 575 124 665 l 96 575 q 94 615 94 588 q 153 853 94 764 q 321 942 213 942 q 434 908 379 942 q 550 819 489 874 q 643 744 611 764 l 643 892 l 676 892 q 971 928 867 896 q 956 499 956 728 q 972 28 956 222 l 1060 28 l 1060 0 l 672 0 l 672 -200 m 726 864 l 672 864 l 672 28 l 758 28 l 758 219 q 726 864 758 686 z "},"Â":{"ha":1122,"x_min":-32,"x_max":1060,"o":"m 771 1006 q 568 1158 639 1093 q 364 1006 494 1092 l 340 1022 q 492 1293 446 1174 l 643 1293 q 794 1022 689 1174 l 771 1006 m 672 -200 l 594 -210 q 643 -4 643 -106 l 643 0 l 556 0 l 556 28 l 643 28 l 643 538 q 576 408 601 486 q 539 263 550 331 q 496 113 528 196 q 411 -29 464 31 q 239 -110 336 -110 q -3 4 118 -110 q -32 32 -24 24 l -15 50 q 83 10 31 10 q 303 150 174 10 q 499 390 367 218 l 393 390 q 154 339 261 390 l 168 418 l 521 418 q 643 575 611 538 l 643 715 q 381 732 460 732 q 185 699 247 732 q 121 575 124 665 l 96 575 q 94 615 94 588 q 153 853 94 764 q 321 942 213 942 q 434 908 379 942 q 550 819 489 874 q 643 744 611 764 l 643 892 l 676 892 q 971 928 867 896 q 956 499 956 728 q 972 28 956 222 l 1060 28 l 1060 0 l 672 0 l 672 -200 m 726 864 l 672 864 l 672 28 l 758 28 l 758 219 q 726 864 758 686 z "},"Ã":{"ha":1122,"x_min":-32,"x_max":1060,"o":"m 739 1181 q 839 1289 822 1181 l 863 1289 q 708 1053 843 1053 q 598 1086 675 1053 q 489 1119 521 1119 q 389 1011 406 1119 l 365 1011 q 519 1247 385 1247 q 629 1214 553 1247 q 739 1181 706 1181 m 672 -200 l 594 -210 q 643 -4 643 -106 l 643 0 l 556 0 l 556 28 l 643 28 l 643 538 q 576 408 601 486 q 539 263 550 331 q 496 113 528 196 q 411 -29 464 31 q 239 -110 336 -110 q -3 4 118 -110 q -32 32 -24 24 l -15 50 q 83 10 31 10 q 303 150 174 10 q 499 390 367 218 l 393 390 q 154 339 261 390 l 168 418 l 521 418 q 643 575 611 538 l 643 715 q 381 732 460 732 q 185 699 247 732 q 121 575 124 665 l 96 575 q 94 615 94 588 q 153 853 94 764 q 321 942 213 942 q 434 908 379 942 q 550 819 489 874 q 643 744 611 764 l 643 892 l 676 892 q 971 928 867 896 q 956 499 956 728 q 972 28 956 222 l 1060 28 l 1060 0 l 672 0 l 672 -200 m 726 864 l 672 864 l 672 28 l 758 28 l 758 219 q 726 864 758 686 z "},"Ä":{"ha":1122,"x_min":-32,"x_max":1060,"o":"m 531 1128 l 425 1022 l 315 1131 l 421 1238 l 531 1128 m 807 1125 l 701 1018 l 592 1128 l 697 1233 l 807 1125 m 672 -200 l 594 -210 q 643 -4 643 -106 l 643 0 l 556 0 l 556 28 l 643 28 l 643 538 q 576 408 601 486 q 539 263 550 331 q 496 113 528 196 q 411 -29 464 31 q 239 -110 336 -110 q -3 4 118 -110 q -32 32 -24 24 l -15 50 q 83 10 31 10 q 303 150 174 10 q 499 390 367 218 l 393 390 q 154 339 261 390 l 168 418 l 521 418 q 643 575 611 538 l 643 715 q 381 732 460 732 q 185 699 247 732 q 121 575 124 665 l 96 575 q 94 615 94 588 q 153 853 94 764 q 321 942 213 942 q 434 908 379 942 q 550 819 489 874 q 643 744 611 764 l 643 892 l 676 892 q 971 928 867 896 q 956 499 956 728 q 972 28 956 222 l 1060 28 l 1060 0 l 672 0 l 672 -200 m 726 864 l 672 864 l 672 28 l 758 28 l 758 219 q 726 864 758 686 z "},"Å":{"ha":1122,"x_min":-32,"x_max":1060,"o":"m 672 -200 l 594 -210 q 643 -4 643 -106 l 643 0 l 556 0 l 556 28 l 643 28 l 643 538 q 576 408 601 486 q 539 263 550 331 q 496 113 528 196 q 411 -29 464 31 q 239 -110 336 -110 q -3 4 118 -110 q -32 32 -24 24 l -15 50 q 83 10 31 10 q 303 150 174 10 q 499 390 367 218 l 393 390 q 154 339 261 390 l 168 418 l 521 418 q 643 575 611 538 l 643 715 q 381 732 460 732 q 185 699 247 732 q 121 575 124 665 l 96 575 q 94 615 94 588 q 153 853 94 764 q 321 942 213 942 q 434 908 379 942 q 550 819 489 874 q 643 744 611 764 l 643 949 q 537 995 581 954 q 493 1092 493 1036 q 541 1194 493 1151 q 657 1238 589 1238 q 772 1194 724 1238 q 819 1092 819 1151 q 777 995 819 1036 q 672 949 735 954 l 672 28 l 758 28 l 758 219 q 721 893 758 703 q 971 928 875 901 q 956 499 956 728 q 972 28 956 222 l 1060 28 l 1060 0 l 672 0 l 672 -200 m 592 1092 q 657 976 592 976 q 722 1092 722 976 q 657 1210 722 1210 q 592 1092 592 1210 z "},"Æ":{"ha":1632,"x_min":-32,"x_max":1557,"o":"m 1065 -200 l 992 -210 q 1040 -4 1040 -106 l 1040 0 l 672 0 l 672 -200 l 599 -210 q 647 -4 647 -106 l 647 0 l 560 0 l 560 28 l 647 28 l 647 543 q 577 413 604 492 q 539 266 550 335 q 496 115 528 197 q 411 -29 464 32 q 239 -110 336 -110 q -3 4 118 -110 q -32 32 -24 24 l -15 50 q 83 10 31 10 q 303 150 174 10 q 499 390 367 218 l 393 390 q 154 339 261 390 l 167 415 l 518 415 q 647 579 626 556 l 647 715 q 381 732 464 732 q 185 699 247 732 q 121 575 124 665 l 96 575 q 94 615 94 588 q 153 853 94 764 q 321 942 213 942 q 435 906 379 942 q 553 816 492 871 q 647 742 614 761 l 647 1119 l 724 1132 q 672 893 672 1025 l 672 28 l 739 28 q 756 499 756 222 q 740 928 756 728 l 971 928 q 956 543 957 739 l 1040 543 l 1040 1119 l 1117 1132 q 1065 893 1065 1025 l 1065 843 q 1188 942 1100 942 q 1274 931 1201 942 q 1394 921 1346 921 q 1485 937 1443 921 q 1532 992 1528 953 l 1557 992 l 1557 951 q 1518 778 1557 844 q 1413 711 1479 711 q 1338 743 1369 711 q 1288 813 1306 775 q 1240 882 1271 850 q 1171 914 1210 914 q 1092 851 1119 914 q 1065 690 1065 789 l 1065 543 l 1114 543 q 1310 556 1253 543 l 1310 621 l 1338 621 l 1338 332 l 1310 332 l 1310 397 q 1114 410 1253 410 l 1065 410 l 1065 189 q 1113 57 1065 100 q 1244 14 1161 14 q 1363 67 1308 14 q 1417 207 1417 121 q 1411 258 1417 235 l 1433 274 l 1556 229 q 1464 59 1556 132 q 1261 -14 1372 -14 q 1065 81 1108 -14 l 1065 -200 m 1040 28 l 1040 410 l 956 410 q 972 28 958 200 l 1040 28 z "},"Ç":{"ha":1011,"x_min":72,"x_max":938,"o":"m 539 -339 q 404 -300 460 -339 q 349 -217 349 -261 l 451 -194 l 463 -201 q 472 -281 453 -250 q 526 -311 490 -311 q 593 -210 593 -311 q 573 -131 593 -157 q 504 -106 553 -106 l 478 -106 l 478 -6 q 188 158 304 26 q 72 464 72 290 q 189 772 72 638 q 478 935 306 906 l 478 1119 l 558 1132 q 508 939 519 1053 q 558 942 542 942 q 686 931 621 942 q 786 921 751 921 q 871 937 833 921 q 910 992 908 953 l 935 992 q 936 951 936 979 q 902 777 936 843 q 804 711 868 711 q 744 732 771 711 q 700 783 718 753 q 663 842 682 813 q 611 893 643 872 q 536 914 579 914 q 507 913 517 914 l 507 510 l 596 599 l 717 478 l 599 360 l 507 451 l 507 21 q 568 14 539 14 q 724 84 663 14 q 765 258 786 154 l 788 274 l 938 229 q 831 64 938 142 q 568 -14 724 -14 q 507 -10 536 -14 l 507 -78 l 536 -78 q 675 -112 622 -78 q 728 -203 728 -146 q 674 -303 728 -267 q 539 -339 621 -339 m 308 464 q 348 170 308 278 q 478 29 388 63 l 478 906 q 308 464 308 854 z "},"È":{"ha":1079,"x_min":71,"x_max":1007,"o":"m 432 1203 q 572 1293 432 1271 q 689 1022 613 1171 l 665 1006 q 565 1078 628 1039 q 467 1146 501 1118 q 432 1203 432 1174 m 506 -200 l 428 -210 q 476 -4 476 -106 l 476 1 q 185 169 300 40 q 71 464 71 299 q 222 803 71 664 q 571 942 372 942 q 733 931 656 942 q 844 921 810 921 q 935 937 893 921 q 982 992 978 953 l 1007 992 l 1007 951 q 969 778 1007 844 q 863 711 931 711 q 788 743 821 711 q 733 813 754 775 q 667 882 711 850 q 560 914 622 914 q 506 908 528 914 l 506 543 l 557 543 q 753 556 697 543 l 753 621 l 781 621 l 781 332 l 753 332 l 753 397 q 557 410 697 410 l 506 410 l 506 28 q 608 14 549 14 q 771 69 704 14 q 838 214 838 125 q 833 258 838 236 l 856 274 l 1006 229 q 891 64 1006 142 q 608 -14 776 -14 q 506 -6 556 -14 l 506 -200 m 310 543 l 476 543 l 476 899 q 310 543 325 839 m 476 39 l 476 410 l 308 410 q 476 39 319 111 z "},"É":{"ha":1079,"x_min":71,"x_max":1007,"o":"m 463 1022 q 579 1293 539 1171 q 719 1203 719 1271 q 685 1146 719 1174 q 587 1078 650 1118 q 486 1006 524 1039 l 463 1022 m 506 -200 l 428 -210 q 476 -4 476 -106 l 476 1 q 185 169 300 40 q 71 464 71 299 q 222 803 71 664 q 571 942 372 942 q 733 931 656 942 q 844 921 810 921 q 935 937 893 921 q 982 992 978 953 l 1007 992 l 1007 951 q 969 778 1007 844 q 863 711 931 711 q 788 743 821 711 q 733 813 754 775 q 667 882 711 850 q 560 914 622 914 q 506 908 528 914 l 506 543 l 557 543 q 753 556 697 543 l 753 621 l 781 621 l 781 332 l 753 332 l 753 397 q 557 410 697 410 l 506 410 l 506 28 q 608 14 549 14 q 771 69 704 14 q 838 214 838 125 q 833 258 838 236 l 856 274 l 1006 229 q 891 64 1006 142 q 608 -14 776 -14 q 506 -6 556 -14 l 506 -200 m 310 543 l 476 543 l 476 899 q 310 543 325 839 m 476 39 l 476 410 l 308 410 q 476 39 319 111 z "},"Ê":{"ha":1079,"x_min":71,"x_max":1007,"o":"m 767 1006 q 564 1158 635 1093 q 360 1006 490 1092 l 336 1022 q 488 1293 442 1174 l 639 1293 q 790 1022 685 1174 l 767 1006 m 506 -200 l 428 -210 q 476 -4 476 -106 l 476 1 q 185 169 300 40 q 71 464 71 299 q 222 803 71 664 q 571 942 372 942 q 733 931 656 942 q 844 921 810 921 q 935 937 893 921 q 982 992 978 953 l 1007 992 l 1007 951 q 969 778 1007 844 q 863 711 931 711 q 788 743 821 711 q 733 813 754 775 q 667 882 711 850 q 560 914 622 914 q 506 908 528 914 l 506 543 l 557 543 q 753 556 697 543 l 753 621 l 781 621 l 781 332 l 753 332 l 753 397 q 557 410 697 410 l 506 410 l 506 28 q 608 14 549 14 q 771 69 704 14 q 838 214 838 125 q 833 258 838 236 l 856 274 l 1006 229 q 891 64 1006 142 q 608 -14 776 -14 q 506 -6 556 -14 l 506 -200 m 310 543 l 476 543 l 476 899 q 310 543 325 839 m 476 39 l 476 410 l 308 410 q 476 39 319 111 z "},"Ë":{"ha":1079,"x_min":71,"x_max":1007,"o":"m 535 1128 l 429 1022 l 319 1131 l 425 1238 l 535 1128 m 811 1125 l 706 1018 l 596 1128 l 701 1233 l 811 1125 m 506 -200 l 428 -210 q 476 -4 476 -106 l 476 1 q 185 169 300 40 q 71 464 71 299 q 222 803 71 664 q 571 942 372 942 q 733 931 656 942 q 844 921 810 921 q 935 937 893 921 q 982 992 978 953 l 1007 992 l 1007 951 q 969 778 1007 844 q 863 711 931 711 q 788 743 821 711 q 733 813 754 775 q 667 882 711 850 q 560 914 622 914 q 506 908 528 914 l 506 543 l 557 543 q 753 556 697 543 l 753 621 l 781 621 l 781 332 l 753 332 l 753 397 q 557 410 697 410 l 506 410 l 506 28 q 608 14 549 14 q 771 69 704 14 q 838 214 838 125 q 833 258 838 236 l 856 274 l 1006 229 q 891 64 1006 142 q 608 -14 776 -14 q 506 -6 556 -14 l 506 -200 m 310 543 l 476 543 l 476 899 q 310 543 325 839 m 476 39 l 476 410 l 308 410 q 476 39 319 111 z "},"Ì":{"ha":657,"x_min":65,"x_max":578,"o":"m 149 1203 q 289 1293 149 1271 q 406 1022 329 1171 l 382 1006 q 281 1078 344 1039 q 183 1146 218 1118 q 149 1203 149 1174 m 492 -200 l 414 -210 q 463 -4 463 -106 l 463 0 l 75 0 l 75 28 l 186 28 l 186 219 q 178 642 186 515 q 151 864 171 769 l 65 864 l 65 892 q 399 928 275 890 q 383 499 383 728 q 400 28 383 222 l 463 28 l 463 928 l 492 928 l 492 28 l 578 28 l 578 0 l 492 0 l 492 -200 z "},"Í":{"ha":657,"x_min":65,"x_max":578,"o":"m 149 1022 q 265 1293 225 1171 q 406 1203 406 1271 q 371 1146 406 1174 q 273 1078 336 1118 q 172 1006 210 1039 l 149 1022 m 492 -200 l 414 -210 q 463 -4 463 -106 l 463 0 l 75 0 l 75 28 l 186 28 l 186 219 q 178 642 186 515 q 151 864 171 769 l 65 864 l 65 892 q 399 928 275 890 q 383 499 383 728 q 400 28 383 222 l 463 28 l 463 928 l 492 928 l 492 28 l 578 28 l 578 0 l 492 0 l 492 -200 z "},"Î":{"ha":657,"x_min":50,"x_max":578,"o":"m 481 1006 q 278 1158 349 1093 q 74 1006 204 1092 l 50 1022 q 201 1293 156 1174 l 353 1293 q 504 1022 399 1174 l 481 1006 m 492 -200 l 414 -210 q 463 -4 463 -106 l 463 0 l 75 0 l 75 28 l 186 28 l 186 219 q 178 642 186 515 q 151 864 171 769 l 65 864 l 65 892 q 399 928 275 890 q 383 499 383 728 q 400 28 383 222 l 463 28 l 463 928 l 492 928 l 492 28 l 578 28 l 578 0 l 492 0 l 492 -200 z "},"Ï":{"ha":657,"x_min":32,"x_max":578,"o":"m 247 1128 l 142 1022 l 32 1131 l 138 1238 l 247 1128 m 524 1125 l 418 1018 l 308 1128 l 414 1233 l 524 1125 m 492 -200 l 414 -210 q 463 -4 463 -106 l 463 0 l 75 0 l 75 28 l 186 28 l 186 219 q 178 642 186 515 q 151 864 171 769 l 65 864 l 65 892 q 399 928 275 890 q 383 499 383 728 q 400 28 383 222 l 463 28 l 463 928 l 492 928 l 492 28 l 578 28 l 578 0 l 492 0 l 492 -200 z "},"Ð":{"ha":1268,"x_min":-7,"x_max":1197,"o":"m 638 -200 l 560 -210 q 608 -11 608 -106 q 301 105 418 7 q 179 338 185 203 l 176 338 q -7 317 114 336 l 8 365 l 179 365 q 299 581 188 493 q 608 669 410 669 l 608 906 q 538 870 574 894 q 473 819 501 846 q 415 767 444 792 q 349 725 385 742 q 274 708 313 708 q 103 797 163 708 q 43 1035 43 886 l 43 1075 l 68 1075 q 131 952 71 986 q 314 918 190 918 q 608 939 383 918 l 608 1119 l 689 1132 q 639 942 647 1042 l 668 942 q 1040 807 882 942 q 1197 478 1197 672 q 1050 124 1197 263 q 681 -14 903 -14 q 638 -12 656 -14 l 638 -200 m 679 14 q 961 457 961 14 q 885 795 961 676 q 668 914 808 914 q 638 911 651 914 l 638 510 l 726 599 l 847 478 l 729 360 l 638 451 l 638 17 q 679 14 663 14 m 608 642 q 456 566 510 638 q 400 365 403 494 l 608 365 l 608 642 m 608 21 l 608 338 l 400 338 q 456 125 403 207 q 608 21 510 43 z "},"Ñ":{"ha":1261,"x_min":65,"x_max":1179,"o":"m 778 1181 q 878 1289 861 1181 l 901 1289 q 747 1053 882 1053 q 637 1086 714 1053 q 528 1119 560 1119 q 428 1011 444 1119 l 404 1011 q 558 1247 424 1247 q 668 1214 592 1247 q 778 1181 744 1181 m 496 -200 l 418 -210 q 467 -4 467 -106 l 467 0 l 75 0 l 75 28 l 186 28 l 186 219 q 178 642 186 515 q 151 864 171 769 l 65 864 l 65 892 q 399 928 272 890 q 383 499 383 728 q 400 28 383 222 l 467 28 l 467 535 q 743 942 467 942 q 1012 867 910 942 q 1114 647 1114 793 q 1086 514 1114 578 q 1019 402 1058 450 q 941 310 981 354 q 874 215 901 265 q 846 117 846 165 q 869 41 846 68 q 931 14 892 14 q 1013 53 976 14 q 1050 178 1050 93 q 1044 246 1050 213 l 1058 261 l 1179 232 q 1117 56 1179 125 q 953 -14 1056 -14 q 840 28 882 -14 q 799 154 799 71 q 840 364 799 217 q 882 611 882 511 q 714 907 882 907 q 551 805 607 907 q 496 533 496 703 l 496 510 l 585 599 l 706 478 l 588 360 l 496 451 l 496 28 l 582 28 l 582 0 l 496 0 l 496 -200 z "},"Ò":{"ha":1242,"x_min":69,"x_max":1172,"o":"m 464 1203 q 604 1293 464 1271 q 721 1022 644 1171 l 697 1006 q 597 1078 660 1039 q 499 1146 533 1118 q 464 1203 464 1174 m 500 -200 l 422 -210 q 471 -4 471 -106 l 471 4 q 183 172 296 46 q 69 457 69 297 q 187 757 69 625 q 486 931 304 889 l 494 910 q 351 752 396 861 q 306 464 306 643 q 471 44 306 128 l 471 578 q 524 850 471 758 q 708 942 576 942 q 924 883 817 942 q 1101 716 1031 824 q 1172 485 1172 608 q 1010 133 1172 279 q 621 -14 847 -14 q 500 -3 563 -14 l 500 -200 m 621 14 q 863 126 789 14 q 936 464 936 238 q 872 797 936 681 q 692 914 808 914 q 541 826 582 914 q 500 572 500 739 l 500 510 l 589 599 l 710 478 l 592 360 l 500 451 l 500 32 q 621 14 557 14 z "},"Ó":{"ha":1242,"x_min":69,"x_max":1172,"o":"m 478 1022 q 594 1293 554 1171 q 735 1203 735 1271 q 700 1146 735 1174 q 602 1078 665 1118 q 501 1006 539 1039 l 478 1022 m 500 -200 l 422 -210 q 471 -4 471 -106 l 471 4 q 183 172 296 46 q 69 457 69 297 q 187 757 69 625 q 486 931 304 889 l 494 910 q 351 752 396 861 q 306 464 306 643 q 471 44 306 128 l 471 578 q 524 850 471 758 q 708 942 576 942 q 924 883 817 942 q 1101 716 1031 824 q 1172 485 1172 608 q 1010 133 1172 279 q 621 -14 847 -14 q 500 -3 563 -14 l 500 -200 m 621 14 q 863 126 789 14 q 936 464 936 238 q 872 797 936 681 q 692 914 808 914 q 541 826 582 914 q 500 572 500 739 l 500 510 l 589 599 l 710 478 l 592 360 l 500 451 l 500 32 q 621 14 557 14 z "},"Ô":{"ha":1242,"x_min":69,"x_max":1172,"o":"m 824 1006 q 621 1158 692 1093 q 417 1006 547 1092 l 393 1022 q 544 1293 499 1174 l 696 1293 q 847 1022 742 1174 l 824 1006 m 500 -200 l 422 -210 q 471 -4 471 -106 l 471 4 q 183 172 296 46 q 69 457 69 297 q 187 757 69 625 q 486 931 304 889 l 494 910 q 351 752 396 861 q 306 464 306 643 q 471 44 306 128 l 471 578 q 524 850 471 758 q 708 942 576 942 q 924 883 817 942 q 1101 716 1031 824 q 1172 485 1172 608 q 1010 133 1172 279 q 621 -14 847 -14 q 500 -3 563 -14 l 500 -200 m 621 14 q 863 126 789 14 q 936 464 936 238 q 872 797 936 681 q 692 914 808 914 q 541 826 582 914 q 500 572 500 739 l 500 510 l 589 599 l 710 478 l 592 360 l 500 451 l 500 32 q 621 14 557 14 z "},"Õ":{"ha":1242,"x_min":69,"x_max":1172,"o":"m 746 1181 q 846 1289 829 1181 l 869 1289 q 715 1053 850 1053 q 605 1086 682 1053 q 496 1119 528 1119 q 396 1011 413 1119 l 372 1011 q 526 1247 392 1247 q 636 1214 560 1247 q 746 1181 713 1181 m 500 -200 l 422 -210 q 471 -4 471 -106 l 471 4 q 183 172 296 46 q 69 457 69 297 q 187 757 69 625 q 486 931 304 889 l 494 910 q 351 752 396 861 q 306 464 306 643 q 471 44 306 128 l 471 578 q 524 850 471 758 q 708 942 576 942 q 924 883 817 942 q 1101 716 1031 824 q 1172 485 1172 608 q 1010 133 1172 279 q 621 -14 847 -14 q 500 -3 563 -14 l 500 -200 m 621 14 q 863 126 789 14 q 936 464 936 238 q 872 797 936 681 q 692 914 808 914 q 541 826 582 914 q 500 572 500 739 l 500 510 l 589 599 l 710 478 l 592 360 l 500 451 l 500 32 q 621 14 557 14 z "},"Ö":{"ha":1242,"x_min":69,"x_max":1172,"o":"m 590 1128 l 485 1022 l 375 1131 l 481 1238 l 590 1128 m 867 1125 l 761 1018 l 651 1128 l 757 1233 l 867 1125 m 500 -200 l 422 -210 q 471 -4 471 -106 l 471 4 q 183 172 296 46 q 69 457 69 297 q 187 757 69 625 q 486 931 304 889 l 494 910 q 351 752 396 861 q 306 464 306 643 q 471 44 306 128 l 471 578 q 524 850 471 758 q 708 942 576 942 q 924 883 817 942 q 1101 716 1031 824 q 1172 485 1172 608 q 1010 133 1172 279 q 621 -14 847 -14 q 500 -3 563 -14 l 500 -200 m 621 14 q 863 126 789 14 q 936 464 936 238 q 872 797 936 681 q 692 914 808 914 q 541 826 582 914 q 500 572 500 739 l 500 510 l 589 599 l 710 478 l 592 360 l 500 451 l 500 32 q 621 14 557 14 z "},"×":{"ha":694,"x_min":68,"x_max":626,"o":"m 513 174 l 326 397 l 154 193 l 72 247 q 242 379 158 286 l 292 438 l 225 517 q 68 675 138 618 l 181 751 l 368 528 l 539 732 l 621 679 q 463 561 547 646 l 401 488 l 458 422 q 626 251 564 303 l 513 174 z "},"Ø":{"ha":1242,"x_min":69,"x_max":1172,"o":"m 621 -14 q 389 31 497 -14 l 253 -208 l 179 -178 q 324 -25 276 -107 l 361 42 q 149 214 229 103 q 69 457 69 325 q 182 751 69 621 q 471 926 294 881 l 471 1119 l 551 1132 q 500 893 500 1025 l 500 789 q 708 942 549 942 q 860 911 781 942 l 986 1132 l 1063 1100 q 900 919 965 1036 l 889 900 q 1092 731 1011 843 q 1172 485 1172 619 q 1010 133 1172 279 q 621 -14 847 -14 m 621 14 q 863 126 789 14 q 936 464 936 238 q 872 797 936 681 q 692 914 808 914 q 596 887 635 914 q 537 806 557 860 q 508 688 517 753 q 500 533 500 624 l 500 510 l 589 599 l 710 478 l 592 360 l 500 451 l 500 33 l 499 33 q 621 14 553 14 m 306 464 q 471 44 306 128 l 471 897 q 344 738 383 844 q 306 464 306 632 z "},"Ù":{"ha":1201,"x_min":42,"x_max":1140,"o":"m 426 1203 q 567 1293 426 1271 q 683 1022 607 1171 l 660 1006 q 559 1078 622 1039 q 461 1146 496 1118 q 426 1203 426 1174 m 725 482 l 725 864 l 639 864 l 639 892 l 735 892 q 1050 928 932 893 q 1035 499 1035 728 q 1051 28 1035 222 l 1140 28 l 1140 0 l 754 0 l 754 -186 l 674 -199 q 725 40 725 -92 l 725 165 q 492 -14 665 -14 q 237 60 335 -14 q 139 281 139 135 q 163 414 139 350 q 222 526 188 478 q 292 618 257 574 q 351 713 326 663 q 375 811 375 763 q 350 886 375 858 q 283 914 325 914 q 192 858 226 914 q 176 682 157 803 l 163 667 l 42 696 q 101 873 42 804 q 263 942 161 942 q 379 896 336 942 q 422 754 422 850 q 397 562 422 704 q 371 317 371 419 q 521 21 371 21 q 673 121 621 21 q 725 388 725 221 l 725 424 l 636 335 l 515 456 l 633 574 l 725 482 m 803 864 l 754 864 l 754 28 l 838 28 l 838 219 q 830 642 838 515 q 803 864 822 769 z "},"Ú":{"ha":1201,"x_min":42,"x_max":1140,"o":"m 468 1022 q 585 1293 544 1171 q 725 1203 725 1271 q 690 1146 725 1174 q 592 1078 656 1118 q 492 1006 529 1039 l 468 1022 m 725 482 l 725 864 l 639 864 l 639 892 l 735 892 q 1050 928 932 893 q 1035 499 1035 728 q 1051 28 1035 222 l 1140 28 l 1140 0 l 754 0 l 754 -186 l 674 -199 q 725 40 725 -92 l 725 165 q 492 -14 665 -14 q 237 60 335 -14 q 139 281 139 135 q 163 414 139 350 q 222 526 188 478 q 292 618 257 574 q 351 713 326 663 q 375 811 375 763 q 350 886 375 858 q 283 914 325 914 q 192 858 226 914 q 176 682 157 803 l 163 667 l 42 696 q 101 873 42 804 q 263 942 161 942 q 379 896 336 942 q 422 754 422 850 q 397 562 422 704 q 371 317 371 419 q 521 21 371 21 q 673 121 621 21 q 725 388 725 221 l 725 424 l 636 335 l 515 456 l 633 574 l 725 482 m 803 864 l 754 864 l 754 28 l 838 28 l 838 219 q 830 642 838 515 q 803 864 822 769 z "},"Û":{"ha":1201,"x_min":42,"x_max":1140,"o":"m 786 1006 q 583 1158 654 1093 q 379 1006 510 1092 l 356 1022 q 507 1293 461 1174 l 658 1293 q 810 1022 704 1174 l 786 1006 m 725 482 l 725 864 l 639 864 l 639 892 l 735 892 q 1050 928 932 893 q 1035 499 1035 728 q 1051 28 1035 222 l 1140 28 l 1140 0 l 754 0 l 754 -186 l 674 -199 q 725 40 725 -92 l 725 165 q 492 -14 665 -14 q 237 60 335 -14 q 139 281 139 135 q 163 414 139 350 q 222 526 188 478 q 292 618 257 574 q 351 713 326 663 q 375 811 375 763 q 350 886 375 858 q 283 914 325 914 q 192 858 226 914 q 176 682 157 803 l 163 667 l 42 696 q 101 873 42 804 q 263 942 161 942 q 379 896 336 942 q 422 754 422 850 q 397 562 422 704 q 371 317 371 419 q 521 21 371 21 q 673 121 621 21 q 725 388 725 221 l 725 424 l 636 335 l 515 456 l 633 574 l 725 482 m 803 864 l 754 864 l 754 28 l 838 28 l 838 219 q 830 642 838 515 q 803 864 822 769 z "},"Ü":{"ha":1201,"x_min":42,"x_max":1140,"o":"m 553 1128 l 447 1022 l 338 1131 l 443 1238 l 553 1128 m 829 1125 l 724 1018 l 614 1128 l 719 1233 l 829 1125 m 725 482 l 725 864 l 639 864 l 639 892 l 735 892 q 1050 928 932 893 q 1035 499 1035 728 q 1051 28 1035 222 l 1140 28 l 1140 0 l 754 0 l 754 -186 l 674 -199 q 725 40 725 -92 l 725 165 q 492 -14 665 -14 q 237 60 335 -14 q 139 281 139 135 q 163 414 139 350 q 222 526 188 478 q 292 618 257 574 q 351 713 326 663 q 375 811 375 763 q 350 886 375 858 q 283 914 325 914 q 192 858 226 914 q 176 682 157 803 l 163 667 l 42 696 q 101 873 42 804 q 263 942 161 942 q 379 896 336 942 q 422 754 422 850 q 397 562 422 704 q 371 317 371 419 q 521 21 371 21 q 673 121 621 21 q 725 388 725 221 l 725 424 l 636 335 l 515 456 l 633 574 l 725 482 m 803 864 l 754 864 l 754 28 l 838 28 l 838 219 q 830 642 838 515 q 803 864 822 769 z "},"Ý":{"ha":1240,"x_min":-18,"x_max":1174,"o":"m 508 1022 q 625 1293 585 1171 q 765 1203 765 1271 q 731 1146 765 1174 q 633 1078 696 1118 q 532 1006 569 1039 l 508 1022 m 892 -96 q 778 -270 892 -193 q 471 -347 664 -347 q 162 -279 272 -347 q 51 -111 51 -211 q 115 36 51 -26 q 294 121 179 99 l 294 513 q 279 767 294 675 q 242 886 264 858 q 183 914 219 914 q 117 858 139 914 q 117 682 96 803 l 103 667 l -18 696 q 37 874 -18 806 q 197 942 92 942 q 430 828 357 942 q 503 485 503 715 l 503 132 l 585 132 l 585 535 q 594 699 585 629 q 628 826 604 768 q 699 913 653 883 q 814 942 746 942 q 1073 856 972 942 q 1174 601 1174 771 q 1019 258 1174 397 q 614 106 864 118 l 614 -89 l 536 -99 q 585 104 585 6 l 443 104 q 280 40 336 104 q 224 -117 224 -24 q 291 -265 224 -210 q 471 -319 358 -319 q 683 -226 613 -319 q 726 -42 754 -133 l 740 -29 l 892 -96 m 706 360 l 614 451 l 614 135 q 803 217 728 146 q 910 390 879 289 q 942 618 942 490 q 898 837 942 764 q 785 910 854 910 q 614 533 614 910 l 614 510 l 703 599 l 824 478 l 706 360 z "},"Þ":{"ha":1025,"x_min":57,"x_max":988,"o":"m 418 -210 q 467 -4 467 -106 l 467 0 l 75 0 l 75 28 l 186 28 l 186 219 q 178 642 186 515 q 151 864 171 769 l 57 864 l 57 892 q 399 928 272 890 q 383 499 383 728 q 386 288 383 438 l 467 288 l 467 1119 l 547 1132 q 496 893 496 1025 l 496 639 q 649 764 535 764 q 888 697 788 764 q 988 532 988 629 q 869 338 988 417 q 561 260 751 260 l 496 260 l 496 28 l 658 28 l 658 0 l 496 0 l 496 -200 l 418 -210 m 496 356 l 496 288 l 561 288 q 707 344 663 288 q 751 511 751 400 q 720 678 751 619 q 632 736 689 736 q 547 685 578 736 q 506 556 515 633 q 496 356 496 478 m 467 260 l 388 260 q 400 28 392 131 l 467 28 l 467 260 z "},"ß":{"ha":569,"x_min":-29,"x_max":542,"o":"m 301 -8 l 179 97 q 128 -5 154 47 q 63 -135 101 -57 q -8 -282 25 -214 l -29 -269 q 49 -1 28 -112 q 71 275 71 111 l 71 643 q 0 633 21 636 l 18 694 l 71 694 l 71 843 l 169 871 l 258 1000 l 454 908 l 347 779 q 226 846 296 818 l 226 618 l 318 703 l 489 594 l 507 582 l 392 469 l 504 386 q 542 313 542 358 q 517 143 542 226 l 404 89 l 301 -8 m 226 346 l 365 478 q 226 574 296 539 l 226 346 m 401 274 q 285 365 349 329 l 226 308 l 226 254 q 383 125 301 172 q 401 274 401 207 z "},"à":{"ha":554,"x_min":33,"x_max":596,"o":"m 317 781 q 131 940 208 842 l 254 1006 q 367 835 306 901 q 317 781 331 799 m 464 -8 q 315 126 372 40 q 210 -8 263 47 q 110 54 161 10 q 33 144 60 99 q 54 322 54 217 l 54 357 l 144 383 q 58 485 58 408 q 110 596 58 532 l 197 703 l 424 656 q 481 551 481 644 l 481 394 q 465 201 481 286 q 547 121 486 164 q 576 154 561 136 l 596 133 q 464 -8 546 88 m 231 404 q 325 422 279 404 l 325 526 q 136 571 214 561 q 117 507 117 533 q 231 404 117 404 m 190 208 q 279 129 224 161 q 325 338 325 196 l 325 394 q 208 375 272 375 l 206 375 l 206 357 q 190 208 206 275 z "},"á":{"ha":554,"x_min":33,"x_max":596,"o":"m 154 764 q 224 940 221 856 l 347 1006 q 364 892 363 953 q 167 749 276 819 l 154 764 m 464 -8 q 315 126 372 40 q 210 -8 263 47 q 110 54 161 10 q 33 144 60 99 q 54 322 54 217 l 54 357 l 144 383 q 58 485 58 408 q 110 596 58 532 l 197 703 l 424 656 q 481 551 481 644 l 481 394 q 465 201 481 286 q 547 121 486 164 q 576 154 561 136 l 596 133 q 464 -8 546 88 m 231 404 q 325 422 279 404 l 325 526 q 136 571 214 561 q 117 507 117 533 q 231 404 117 404 m 190 208 q 279 129 224 161 q 325 338 325 196 l 325 394 q 208 375 272 375 l 206 375 l 206 357 q 190 208 206 275 z "},"â":{"ha":554,"x_min":33,"x_max":596,"o":"m 360 783 q 258 860 294 825 q 118 749 214 826 l 106 764 q 175 940 171 868 l 299 1006 q 410 838 350 901 q 360 783 374 801 m 464 -8 q 315 126 372 40 q 210 -8 263 47 q 110 54 161 10 q 33 144 60 99 q 54 322 54 217 l 54 357 l 144 383 q 58 485 58 408 q 110 596 58 532 l 197 703 l 424 656 q 481 551 481 644 l 481 394 q 465 201 481 286 q 547 121 486 164 q 576 154 561 136 l 596 133 q 464 -8 546 88 m 231 404 q 325 422 279 404 l 325 526 q 136 571 214 561 q 117 507 117 533 q 231 404 117 404 m 190 208 q 279 129 224 161 q 325 338 325 196 l 325 394 q 208 375 272 375 l 206 375 l 206 357 q 190 208 206 275 z "},"ã":{"ha":554,"x_min":33,"x_max":596,"o":"m 371 791 q 363 783 371 791 q 328 775 356 775 q 243 808 300 775 q 164 842 186 842 q 83 775 131 842 l 65 785 q 113 870 88 819 q 153 937 138 921 q 196 953 168 953 q 281 919 224 953 q 360 886 338 886 q 440 953 393 886 l 458 943 q 411 858 436 908 q 371 791 386 807 m 464 -8 q 315 126 372 40 q 210 -8 263 47 q 110 54 161 10 q 33 144 60 99 q 54 322 54 217 l 54 357 l 144 383 q 58 485 58 408 q 110 596 58 532 l 197 703 l 424 656 q 481 551 481 644 l 481 394 q 465 201 481 286 q 547 121 486 164 q 576 154 561 136 l 596 133 q 464 -8 546 88 m 231 404 q 325 422 279 404 l 325 526 q 136 571 214 561 q 117 507 117 533 q 231 404 117 404 m 190 208 q 279 129 224 161 q 325 338 325 196 l 325 394 q 208 375 272 375 l 206 375 l 206 357 q 190 208 206 275 z "},"ä":{"ha":554,"x_min":33,"x_max":596,"o":"m 244 863 l 163 781 l 78 865 l 160 947 l 244 863 m 436 860 l 354 778 l 269 863 l 351 944 l 436 860 m 464 -8 q 315 126 372 40 q 210 -8 263 47 q 110 54 161 10 q 33 144 60 99 q 54 322 54 217 l 54 357 l 144 383 q 58 485 58 408 q 110 596 58 532 l 197 703 l 424 656 q 481 551 481 644 l 481 394 q 465 201 481 286 q 547 121 486 164 q 576 154 561 136 l 596 133 q 464 -8 546 88 m 231 404 q 325 422 279 404 l 325 526 q 136 571 214 561 q 117 507 117 533 q 231 404 117 404 m 190 208 q 279 129 224 161 q 325 338 325 196 l 325 394 q 208 375 272 375 l 206 375 l 206 357 q 190 208 206 275 z "},"å":{"ha":554,"x_min":33,"x_max":596,"o":"m 274 749 q 142 803 181 767 q 150 893 150 829 l 150 949 l 215 960 l 242 1025 l 326 1001 q 374 978 364 990 q 383 919 383 965 l 383 849 q 274 749 326 804 m 229 849 q 299 822 249 838 q 299 849 299 831 q 300 875 300 867 q 299 919 300 904 q 271 929 294 921 q 235 940 247 938 l 235 914 q 229 849 235 878 m 464 -8 q 315 126 372 40 q 210 -8 263 47 q 110 54 161 10 q 33 144 60 99 q 54 322 54 217 l 54 357 l 144 383 q 58 485 58 408 q 110 596 58 532 l 197 703 l 424 656 q 481 551 481 644 l 481 394 q 465 201 481 286 q 547 121 486 164 q 576 154 561 136 l 596 133 q 464 -8 546 88 m 231 404 q 325 422 279 404 l 325 526 q 136 571 214 561 q 117 507 117 533 q 231 404 117 404 m 190 208 q 279 129 224 161 q 325 338 325 196 l 325 394 q 208 375 272 375 l 206 375 l 206 357 q 190 208 206 275 z "},"æ":{"ha":721,"x_min":43,"x_max":701,"o":"m 544 -8 q 421 49 485 10 q 326 129 357 88 q 219 -8 278 56 q 120 54 171 10 q 43 144 69 99 q 64 322 64 217 l 64 357 l 154 383 q 68 485 68 408 q 119 596 68 532 l 207 703 l 478 628 l 529 703 l 665 625 q 701 568 701 604 q 683 524 701 546 q 522 361 635 465 l 686 361 l 668 328 q 486 336 593 336 q 476 215 483 264 q 624 119 528 160 q 661 163 650 149 l 681 142 q 544 -8 631 94 m 240 404 q 335 422 289 404 l 335 519 q 146 571 247 556 q 126 507 126 533 q 240 404 126 404 m 488 365 q 600 474 546 419 q 488 547 553 517 l 488 365 m 200 208 q 289 129 233 161 q 335 338 335 196 l 335 394 q 218 375 281 375 l 215 375 l 215 357 q 200 208 215 275 z "},"ç":{"ha":396,"x_min":38,"x_max":426,"o":"m 200 -310 q 103 -289 142 -310 l 110 -240 l 117 -240 q 208 -285 157 -285 q 267 -239 267 -285 q 242 -183 267 -211 q 133 -99 217 -156 l 133 -89 q 214 1 182 -37 q 110 63 161 22 q 38 144 60 104 q 58 336 58 214 l 58 546 l 157 574 l 246 703 l 426 618 l 347 504 l 347 396 l 314 385 q 322 496 321 435 q 214 544 279 517 l 214 396 q 199 215 214 283 q 319 119 261 147 q 357 163 329 129 l 376 142 q 240 -12 313 78 q 344 -105 318 -71 q 371 -178 371 -139 q 321 -266 371 -222 q 200 -310 271 -310 z "},"è":{"ha":453,"x_min":-7,"x_max":439,"o":"m 308 781 q 122 940 200 842 l 246 1006 q 358 835 297 901 q 308 781 322 799 m 276 -8 q 142 55 211 10 q 47 144 74 100 q 68 332 68 213 q -7 322 56 331 l 11 361 l 68 361 l 68 546 l 174 575 l 261 703 l 397 625 q 432 582 425 610 q 415 524 439 554 q 254 361 367 465 l 418 361 l 400 328 q 222 336 325 336 q 208 215 218 256 q 356 119 260 160 q 393 163 382 149 l 413 142 q 339 65 381 111 l 276 -8 m 224 369 l 332 474 q 224 546 283 515 l 224 369 z "},"é":{"ha":453,"x_min":-7,"x_max":439,"o":"m 135 764 q 204 940 201 856 l 328 1006 q 344 892 343 953 q 147 749 257 819 l 135 764 m 276 -8 q 142 55 211 10 q 47 144 74 100 q 68 332 68 213 q -7 322 56 331 l 11 361 l 68 361 l 68 546 l 174 575 l 261 703 l 397 625 q 432 582 425 610 q 415 524 439 554 q 254 361 367 465 l 418 361 l 400 328 q 222 336 325 336 q 208 215 218 256 q 356 119 260 160 q 393 163 382 149 l 413 142 q 339 65 381 111 l 276 -8 m 224 369 l 332 474 q 224 546 283 515 l 224 369 z "},"ê":{"ha":453,"x_min":-7,"x_max":439,"o":"m 342 783 q 240 860 276 825 q 100 749 196 826 l 88 764 q 157 940 153 868 l 281 1006 q 392 838 332 901 q 342 783 356 801 m 276 -8 q 142 55 211 10 q 47 144 74 100 q 68 332 68 213 q -7 322 56 331 l 11 361 l 68 361 l 68 546 l 174 575 l 261 703 l 397 625 q 432 582 425 610 q 415 524 439 554 q 254 361 367 465 l 418 361 l 400 328 q 222 336 325 336 q 208 215 218 256 q 356 119 260 160 q 393 163 382 149 l 413 142 q 339 65 381 111 l 276 -8 m 224 369 l 332 474 q 224 546 283 515 l 224 369 z "},"ë":{"ha":453,"x_min":-7,"x_max":439,"o":"m 228 863 l 146 781 l 61 865 l 143 947 l 228 863 m 419 860 l 338 778 l 253 863 l 335 944 l 419 860 m 276 -8 q 142 55 211 10 q 47 144 74 100 q 68 332 68 213 q -7 322 56 331 l 11 361 l 68 361 l 68 546 l 174 575 l 261 703 l 397 625 q 432 582 425 610 q 415 524 439 554 q 254 361 367 465 l 418 361 l 400 328 q 222 336 325 336 q 208 215 218 256 q 356 119 260 160 q 393 163 382 149 l 413 142 q 339 65 381 111 l 276 -8 m 224 369 l 332 474 q 224 546 283 515 l 224 369 z "},"ì":{"ha":313,"x_min":-40,"x_max":354,"o":"m 210 781 q 24 940 101 842 l 147 1006 q 260 835 199 901 q 210 781 224 799 m 222 -8 q 132 58 176 15 q 63 144 88 100 q 83 336 83 214 l 83 526 q 8 572 42 558 q -21 540 -11 553 l -40 561 q 92 703 10 607 l 182 656 q 228 613 217 638 q 239 551 239 589 l 239 396 q 224 201 239 264 q 306 121 244 164 q 335 154 319 136 l 354 133 q 222 -8 304 88 z "},"í":{"ha":313,"x_min":-40,"x_max":354,"o":"m 43 764 q 113 940 110 856 l 236 1006 q 253 892 251 953 q 56 749 165 819 l 43 764 m 222 -8 q 132 58 176 15 q 63 144 88 100 q 83 336 83 214 l 83 526 q 8 572 42 558 q -21 540 -11 553 l -40 561 q 92 703 10 607 l 182 656 q 228 613 217 638 q 239 551 239 589 l 239 396 q 224 201 239 264 q 306 121 244 164 q 335 154 319 136 l 354 133 q 222 -8 304 88 z "},"î":{"ha":313,"x_min":-40,"x_max":354,"o":"m 236 783 q 135 860 171 825 q -6 749 90 826 l -18 764 q 51 940 47 868 l 175 1006 q 286 838 226 901 q 236 783 250 801 m 222 -8 q 132 58 176 15 q 63 144 88 100 q 83 336 83 214 l 83 526 q 8 572 42 558 q -21 540 -11 553 l -40 561 q 92 703 10 607 l 182 656 q 228 613 217 638 q 239 551 239 589 l 239 396 q 224 201 239 264 q 306 121 244 164 q 335 154 319 136 l 354 133 q 222 -8 304 88 z "},"ï":{"ha":313,"x_min":-40,"x_max":354,"o":"m 136 863 l 54 781 l -31 865 l 51 947 l 136 863 m 328 860 l 246 778 l 161 863 l 243 944 l 328 860 m 222 -8 q 132 58 176 15 q 63 144 88 100 q 83 336 83 214 l 83 526 q 8 572 42 558 q -21 540 -11 553 l -40 561 q 92 703 10 607 l 182 656 q 228 613 217 638 q 239 551 239 589 l 239 396 q 224 201 239 264 q 306 121 244 164 q 335 154 319 136 l 354 133 q 222 -8 304 88 z "},"ð":{"ha":574,"x_min":-44,"x_max":514,"o":"m 289 -8 q 151 56 222 11 q 53 144 79 100 q 74 336 74 214 l 74 496 l 229 539 l 229 396 q 214 215 229 283 q 356 117 267 156 q 360 565 369 311 l 200 654 l 104 540 l 39 582 q 169 671 118 622 l 19 754 q -44 825 -44 789 q -12 892 -44 851 q 72 1019 40 958 l 93 1004 l 72 968 q 65 942 65 954 q 108 885 65 918 q 271 786 150 851 l 354 886 l 425 844 q 306 768 360 814 q 422 708 339 750 q 496 641 478 681 q 514 524 514 601 l 514 213 q 289 -8 378 92 z "},"ñ":{"ha":607,"x_min":-42,"x_max":649,"o":"m 411 791 q 403 783 411 791 q 368 775 396 775 q 283 808 340 775 q 204 842 226 842 q 124 775 171 842 l 106 785 q 153 870 128 819 q 193 937 178 921 q 236 953 208 953 q 321 919 264 953 q 400 886 378 886 q 481 953 433 886 l 499 943 q 451 858 476 908 q 411 791 426 807 m 517 -8 q 426 58 471 15 q 357 144 382 100 q 378 336 378 214 l 378 526 q 275 568 325 553 q 239 521 250 536 l 239 396 q 224 201 239 257 q 322 110 243 163 l 222 -8 q 132 58 176 15 q 63 144 88 100 q 83 336 83 214 l 83 539 l 8 575 q -8 556 3 569 q -22 540 -19 543 l -42 561 q 90 703 8 607 l 239 638 l 239 571 q 343 703 285 644 l 476 649 q 533 551 533 626 l 533 396 q 518 201 533 257 q 600 121 539 164 q 629 154 614 136 l 649 133 q 517 -8 599 88 z "},"ò":{"ha":560,"x_min":38,"x_max":508,"o":"m 347 781 q 161 940 239 842 l 285 1006 q 397 835 336 901 q 347 781 361 799 m 283 -8 q 138 56 214 11 q 38 144 63 100 q 58 336 58 214 l 58 547 l 147 572 l 235 703 l 407 657 q 491 608 474 639 q 508 468 508 576 l 508 213 q 283 -8 372 92 m 199 215 q 350 117 244 164 q 357 360 357 256 q 354 510 357 404 q 214 553 326 521 l 214 396 q 199 215 214 300 z "},"ó":{"ha":560,"x_min":38,"x_max":508,"o":"m 174 764 q 243 940 240 856 l 367 1006 q 383 892 382 953 q 186 749 296 819 l 174 764 m 283 -8 q 138 56 214 11 q 38 144 63 100 q 58 336 58 214 l 58 547 l 147 572 l 235 703 l 407 657 q 491 608 474 639 q 508 468 508 576 l 508 213 q 283 -8 372 92 m 199 215 q 350 117 244 164 q 357 360 357 256 q 354 510 357 404 q 214 553 326 521 l 214 396 q 199 215 214 300 z "},"ô":{"ha":560,"x_min":38,"x_max":508,"o":"m 367 783 q 265 860 301 825 q 125 749 221 826 l 113 764 q 182 940 178 868 l 306 1006 q 417 838 357 901 q 367 783 381 801 m 283 -8 q 138 56 214 11 q 38 144 63 100 q 58 336 58 214 l 58 547 l 147 572 l 235 703 l 407 657 q 491 608 474 639 q 508 468 508 576 l 508 213 q 283 -8 372 92 m 199 215 q 350 117 244 164 q 357 360 357 256 q 354 510 357 404 q 214 553 326 521 l 214 396 q 199 215 214 300 z "},"õ":{"ha":560,"x_min":38,"x_max":508,"o":"m 388 791 q 380 783 388 791 q 344 775 372 775 q 260 808 317 775 q 181 842 203 842 q 100 775 147 842 l 82 785 q 129 870 104 819 q 169 937 154 921 q 213 953 185 953 q 297 919 240 953 q 376 886 354 886 q 457 953 410 886 l 475 943 q 428 858 453 908 q 388 791 403 807 m 283 -8 q 138 56 214 11 q 38 144 63 100 q 58 336 58 214 l 58 547 l 147 572 l 235 703 l 407 657 q 491 608 474 639 q 508 468 508 576 l 508 213 q 283 -8 372 92 m 199 215 q 350 117 244 164 q 357 360 357 256 q 354 510 357 404 q 214 553 326 521 l 214 396 q 199 215 214 300 z "},"ö":{"ha":560,"x_min":38,"x_max":508,"o":"m 267 863 l 185 781 l 100 865 l 182 947 l 267 863 m 458 860 l 376 778 l 292 863 l 374 944 l 458 860 m 283 -8 q 138 56 214 11 q 38 144 63 100 q 58 336 58 214 l 58 547 l 147 572 l 235 703 l 407 657 q 491 608 474 639 q 508 468 508 576 l 508 213 q 283 -8 372 92 m 199 215 q 350 117 244 164 q 357 360 357 256 q 354 510 357 404 q 214 553 326 521 l 214 396 q 199 215 214 300 z "},"÷":{"ha":694,"x_min":44,"x_max":649,"o":"m 347 593 l 258 682 l 347 772 l 438 682 l 347 593 m 283 404 q 44 385 149 404 l 57 521 l 410 521 q 649 540 544 521 l 636 404 l 283 404 m 347 153 l 258 242 l 347 332 l 438 242 l 347 153 z "},"ø":{"ha":560,"x_min":32,"x_max":514,"o":"m 283 -8 q 143 53 219 8 l 108 -19 l 32 6 q 106 78 76 43 q 38 144 56 111 q 58 336 58 214 l 58 547 l 147 572 l 235 703 l 396 660 l 435 740 l 514 714 q 444 644 478 686 q 497 595 485 629 q 508 468 508 561 l 508 213 q 283 -8 372 92 m 214 396 q 206 257 214 322 l 329 518 q 214 553 306 526 l 214 396 m 350 117 q 354 496 361 326 l 214 200 q 350 117 261 156 z "},"ù":{"ha":607,"x_min":-42,"x_max":649,"o":"m 364 781 q 178 940 256 842 l 301 1006 q 414 835 353 901 q 364 781 378 799 m 517 -8 q 426 58 471 15 q 357 143 382 100 q 222 -8 322 94 q 132 58 176 15 q 63 144 88 100 q 83 336 83 214 l 83 539 l 8 575 q -8 556 3 569 q -22 540 -19 543 l -42 561 q 90 703 8 607 l 239 638 l 239 396 q 224 201 239 264 q 303 122 242 167 q 372 221 342 167 q 378 336 378 261 l 378 526 q 285 575 340 553 l 374 703 l 476 656 q 533 551 533 629 l 533 396 q 518 201 533 264 q 600 121 539 164 q 629 154 614 136 l 649 133 q 517 -8 599 88 z "},"ú":{"ha":607,"x_min":-42,"x_max":649,"o":"m 218 764 q 288 940 285 856 l 411 1006 q 428 892 426 953 q 231 749 340 819 l 218 764 m 517 -8 q 426 58 471 15 q 357 143 382 100 q 222 -8 322 94 q 132 58 176 15 q 63 144 88 100 q 83 336 83 214 l 83 539 l 8 575 q -8 556 3 569 q -22 540 -19 543 l -42 561 q 90 703 8 607 l 239 638 l 239 396 q 224 201 239 264 q 303 122 242 167 q 372 221 342 167 q 378 336 378 261 l 378 526 q 285 575 340 553 l 374 703 l 476 656 q 533 551 533 629 l 533 396 q 518 201 533 264 q 600 121 539 164 q 629 154 614 136 l 649 133 q 517 -8 599 88 z "},"û":{"ha":607,"x_min":-42,"x_max":649,"o":"m 411 783 q 310 860 346 825 q 169 749 265 826 l 157 764 q 226 940 222 868 l 350 1006 q 461 838 401 901 q 411 783 425 801 m 517 -8 q 426 58 471 15 q 357 143 382 100 q 222 -8 322 94 q 132 58 176 15 q 63 144 88 100 q 83 336 83 214 l 83 539 l 8 575 q -8 556 3 569 q -22 540 -19 543 l -42 561 q 90 703 8 607 l 239 638 l 239 396 q 224 201 239 264 q 303 122 242 167 q 372 221 342 167 q 378 336 378 261 l 378 526 q 285 575 340 553 l 374 703 l 476 656 q 533 551 533 629 l 533 396 q 518 201 533 264 q 600 121 539 164 q 629 154 614 136 l 649 133 q 517 -8 599 88 z "},"ü":{"ha":607,"x_min":-42,"x_max":649,"o":"m 292 863 l 210 781 l 125 865 l 207 947 l 292 863 m 483 860 l 401 778 l 317 863 l 399 944 l 483 860 m 517 -8 q 426 58 471 15 q 357 143 382 100 q 222 -8 322 94 q 132 58 176 15 q 63 144 88 100 q 83 336 83 214 l 83 539 l 8 575 q -8 556 3 569 q -22 540 -19 543 l -42 561 q 90 703 8 607 l 239 638 l 239 396 q 224 201 239 264 q 303 122 242 167 q 372 221 342 167 q 378 336 378 261 l 378 526 q 285 575 340 553 l 374 703 l 476 656 q 533 551 533 629 l 533 396 q 518 201 533 264 q 600 121 539 164 q 629 154 614 136 l 649 133 q 517 -8 599 88 z "},"ý":{"ha":576,"x_min":-44,"x_max":550,"o":"m 196 764 q 265 940 263 856 l 389 1006 q 406 892 404 953 q 208 749 318 819 l 196 764 m 414 -347 l 393 -332 l 410 -308 q 428 -262 428 -281 q 315 -151 428 -217 l 211 -92 q 175 -43 175 -72 q 222 31 175 -12 q 276 82 244 50 q 147 145 211 104 q 60 226 83 186 q 81 418 81 296 l 81 539 l 6 575 q -11 556 0 569 q -25 540 -22 543 l -44 561 q 88 703 6 607 l 236 638 l 236 478 q 221 297 236 365 q 372 199 267 246 q 379 376 379 306 q 376 526 379 467 q 282 575 328 557 l 371 703 l 467 658 q 531 544 531 628 l 531 294 q 283 46 413 190 q 390 -13 317 21 q 492 -64 464 -47 q 550 -149 550 -103 q 522 -211 550 -181 q 414 -347 461 -278 z "},"þ":{"ha":564,"x_min":-62,"x_max":513,"o":"m 88 -400 l 46 -412 q 63 -200 63 -296 l 63 25 q -39 8 15 21 l -43 17 l 61 119 l 63 119 l 63 878 l -12 914 q -29 895 -18 908 q -43 879 -40 882 l -62 900 q 69 1042 -12 946 l 218 976 l 218 574 q 321 703 265 647 l 454 649 q 513 551 513 625 l 513 213 q 288 -8 376 92 q 218 14 246 7 l 218 -197 l 88 -274 l 88 -400 m 358 519 q 249 563 300 549 q 218 522 242 554 l 218 144 q 354 117 288 140 q 358 519 365 335 z "},"ÿ":{"ha":576,"x_min":-44,"x_max":550,"o":"m 275 863 l 193 781 l 108 865 l 190 947 l 275 863 m 467 860 l 385 778 l 300 863 l 382 944 l 467 860 m 414 -347 l 393 -332 l 410 -308 q 428 -262 428 -281 q 315 -151 428 -217 l 211 -92 q 175 -43 175 -72 q 222 31 175 -12 q 276 82 244 50 q 147 145 211 104 q 60 226 83 186 q 81 418 81 296 l 81 539 l 6 575 q -11 556 0 569 q -25 540 -22 543 l -44 561 q 88 703 6 607 l 236 638 l 236 478 q 221 297 236 365 q 372 199 267 246 q 379 376 379 306 q 376 526 379 467 q 282 575 328 557 l 371 703 l 467 658 q 531 544 531 628 l 531 294 q 283 46 413 190 q 390 -13 317 21 q 492 -64 464 -47 q 550 -149 550 -103 q 522 -211 550 -181 q 414 -347 461 -278 z "},"Ā":{"ha":1122,"x_min":-32,"x_max":1060,"o":"m 364 1183 q 578 1172 508 1172 q 792 1179 671 1172 l 792 1075 q 578 1082 671 1082 q 364 1071 557 1082 l 364 1183 m 672 -200 l 594 -210 q 643 -4 643 -106 l 643 0 l 556 0 l 556 28 l 643 28 l 643 538 q 576 408 601 486 q 539 263 550 331 q 496 113 528 196 q 411 -29 464 31 q 239 -110 336 -110 q -3 4 118 -110 q -32 32 -24 24 l -15 50 q 83 10 31 10 q 303 150 174 10 q 499 390 367 218 l 393 390 q 154 339 261 390 l 168 418 l 521 418 q 643 575 611 538 l 643 715 q 381 732 460 732 q 185 699 247 732 q 121 575 124 665 l 96 575 q 94 615 94 588 q 153 853 94 764 q 321 942 213 942 q 434 908 379 942 q 550 819 489 874 q 643 744 611 764 l 643 892 l 676 892 q 971 928 867 896 q 956 499 956 728 q 972 28 956 222 l 1060 28 l 1060 0 l 672 0 l 672 -200 m 726 864 l 672 864 l 672 28 l 758 28 l 758 219 q 726 864 758 686 z "},"ā":{"ha":554,"x_min":33,"x_max":596,"o":"m 103 794 l 146 899 l 271 899 q 415 913 346 899 l 372 808 l 247 808 q 103 794 172 808 m 464 -8 q 315 126 372 40 q 210 -8 263 47 q 110 54 161 10 q 33 144 60 99 q 54 322 54 217 l 54 357 l 144 383 q 58 485 58 408 q 110 596 58 532 l 197 703 l 424 656 q 481 551 481 644 l 481 394 q 465 201 481 286 q 547 121 486 164 q 576 154 561 136 l 596 133 q 464 -8 546 88 m 231 404 q 325 422 279 404 l 325 526 q 136 571 214 561 q 117 507 117 533 q 231 404 117 404 m 190 208 q 279 129 224 161 q 325 338 325 196 l 325 394 q 208 375 272 375 l 206 375 l 206 357 q 190 208 206 275 z "},"Ă":{"ha":1122,"x_min":-32,"x_max":1060,"o":"m 569 1006 q 431 1071 483 1006 q 369 1256 379 1136 l 393 1256 q 449 1167 403 1200 q 568 1133 496 1133 q 688 1167 642 1133 q 744 1256 735 1200 l 768 1256 q 569 1006 749 1006 m 672 -200 l 594 -210 q 643 -4 643 -106 l 643 0 l 556 0 l 556 28 l 643 28 l 643 538 q 576 408 601 486 q 539 263 550 331 q 496 113 528 196 q 411 -29 464 31 q 239 -110 336 -110 q -3 4 118 -110 q -32 32 -24 24 l -15 50 q 83 10 31 10 q 303 150 174 10 q 499 390 367 218 l 393 390 q 154 339 261 390 l 168 418 l 521 418 q 643 575 611 538 l 643 715 q 381 732 460 732 q 185 699 247 732 q 121 575 124 665 l 96 575 q 94 615 94 588 q 153 853 94 764 q 321 942 213 942 q 434 908 379 942 q 550 819 489 874 q 643 744 611 764 l 643 892 l 676 892 q 971 928 867 896 q 956 499 956 728 q 972 28 956 222 l 1060 28 l 1060 0 l 672 0 l 672 -200 m 726 864 l 672 864 l 672 28 l 758 28 l 758 219 q 726 864 758 686 z "},"ă":{"ha":554,"x_min":33,"x_max":596,"o":"m 128 843 l 93 886 l 203 943 l 229 914 q 307 874 265 874 q 406 943 358 874 l 431 932 l 378 850 q 258 775 329 775 q 128 843 181 775 m 464 -8 q 315 126 372 40 q 210 -8 263 47 q 110 54 161 10 q 33 144 60 99 q 54 322 54 217 l 54 357 l 144 383 q 58 485 58 408 q 110 596 58 532 l 197 703 l 424 656 q 481 551 481 644 l 481 394 q 465 201 481 286 q 547 121 486 164 q 576 154 561 136 l 596 133 q 464 -8 546 88 m 231 404 q 325 422 279 404 l 325 526 q 136 571 214 561 q 117 507 117 533 q 231 404 117 404 m 190 208 q 279 129 224 161 q 325 338 325 196 l 325 394 q 208 375 272 375 l 206 375 l 206 357 q 190 208 206 275 z "},"Ą":{"ha":1122,"x_min":-32,"x_max":1060,"o":"m 885 -212 q 649 -335 756 -335 q 565 -310 596 -335 q 535 -246 535 -286 q 583 -147 535 -199 q 747 0 631 -94 l 556 0 l 556 28 l 643 28 l 643 538 q 576 408 601 486 q 539 263 550 331 q 496 113 528 196 q 411 -29 464 31 q 213 -108 321 -119 q -3 4 106 -97 q -32 32 -24 24 l -15 50 q 131 18 58 -7 q 303 150 204 43 q 499 390 367 218 l 393 390 q 154 339 261 390 l 168 418 l 521 418 q 643 575 611 538 l 643 715 q 381 732 460 732 q 185 699 247 732 q 121 575 124 665 l 96 575 q 94 615 94 588 q 153 853 94 764 q 321 942 213 942 q 434 908 379 942 q 550 819 489 874 q 643 744 611 764 l 643 1119 l 724 1132 q 672 893 672 1025 l 672 28 l 758 28 l 758 219 q 721 893 758 703 q 971 928 875 901 q 956 499 956 728 q 972 28 956 222 l 1060 28 l 1060 0 l 917 0 q 740 -45 794 0 q 685 -147 685 -90 q 710 -207 685 -187 q 769 -226 735 -226 q 869 -196 822 -226 l 885 -212 z "},"ą":{"ha":563,"x_min":33,"x_max":597,"o":"m 494 -310 q 364 -157 364 -229 q 451 -1 364 -124 q 315 126 365 50 q 210 -8 263 47 q 110 54 161 10 q 33 144 60 99 q 54 322 54 217 l 54 357 l 144 383 q 58 485 58 408 q 110 596 58 532 l 197 703 l 424 656 q 481 551 481 644 l 481 394 q 465 201 481 286 q 547 121 486 164 q 576 154 561 136 l 596 133 q 457 -76 457 -17 q 547 -186 457 -129 q 576 -144 564 -167 l 597 -158 q 494 -310 540 -235 m 231 404 q 325 422 279 404 l 325 526 q 136 571 214 561 q 117 507 117 533 q 231 404 117 404 m 190 208 q 279 129 224 161 q 325 338 325 196 l 325 394 q 208 375 272 375 l 206 375 l 206 357 q 190 208 206 275 z "},"Ć":{"ha":1011,"x_min":72,"x_max":938,"o":"m 413 1022 q 529 1293 489 1171 q 669 1203 669 1271 q 635 1146 669 1174 q 537 1078 600 1118 q 436 1006 474 1039 l 413 1022 m 507 -200 l 429 -210 q 478 -6 478 -106 q 188 158 304 26 q 72 464 72 290 q 217 801 72 660 q 558 942 361 942 q 686 931 621 942 q 786 921 751 921 q 871 937 833 921 q 910 992 908 953 l 935 992 l 935 951 q 901 776 935 842 q 804 711 868 711 q 744 732 771 711 q 700 783 718 753 q 663 842 682 813 q 611 893 643 872 q 536 914 579 914 q 507 913 526 914 l 507 510 l 596 599 l 717 478 l 599 360 l 507 451 l 507 21 q 568 14 539 14 q 711 69 651 14 q 771 211 771 125 q 765 258 771 225 l 788 274 l 938 229 q 831 64 938 142 q 568 -14 724 -14 q 507 -10 536 -14 l 507 -200 m 308 464 q 348 170 308 278 q 478 29 388 63 l 478 906 q 308 464 308 854 z "},"ć":{"ha":396,"x_min":38,"x_max":426,"o":"m 133 764 q 203 940 200 856 l 326 1006 q 343 892 342 953 q 146 749 256 819 l 133 764 m 240 -8 q 124 53 185 7 q 38 144 64 99 q 58 336 58 214 l 58 546 l 157 574 l 246 703 l 426 618 l 347 504 l 347 396 l 314 385 q 322 496 321 435 q 214 544 279 517 l 214 396 q 199 215 214 283 q 319 119 261 147 q 357 163 329 129 l 376 142 q 303 65 344 111 l 240 -8 z "},"Ĉ":{"ha":1011,"x_min":72,"x_max":938,"o":"m 729 1006 q 526 1158 597 1093 q 322 1006 453 1092 l 299 1022 q 450 1293 404 1174 l 601 1293 q 753 1022 647 1174 l 729 1006 m 507 -200 l 429 -210 q 478 -6 478 -106 q 188 158 304 26 q 72 464 72 290 q 217 801 72 660 q 558 942 361 942 q 686 931 621 942 q 786 921 751 921 q 871 937 833 921 q 910 992 908 953 l 935 992 l 935 951 q 901 776 935 842 q 804 711 868 711 q 744 732 771 711 q 700 783 718 753 q 663 842 682 813 q 611 893 643 872 q 536 914 579 914 q 507 913 526 914 l 507 510 l 596 599 l 717 478 l 599 360 l 507 451 l 507 21 q 568 14 539 14 q 711 69 651 14 q 771 211 771 125 q 765 258 771 225 l 788 274 l 938 229 q 831 64 938 142 q 568 -14 724 -14 q 507 -10 536 -14 l 507 -200 m 308 464 q 348 170 308 278 q 478 29 388 63 l 478 906 q 308 464 308 854 z "},"ĉ":{"ha":396,"x_min":38,"x_max":426,"o":"m 326 783 q 225 860 261 825 q 85 749 181 826 l 72 764 q 142 940 138 868 l 265 1006 q 376 838 317 901 q 326 783 340 801 m 240 -8 q 124 53 185 7 q 38 144 64 99 q 58 336 58 214 l 58 546 l 157 574 l 246 703 l 426 618 l 347 504 l 347 396 l 314 385 q 322 496 321 435 q 214 544 279 517 l 214 396 q 199 215 214 283 q 319 119 261 147 q 357 163 329 129 l 376 142 q 303 65 344 111 l 240 -8 z "},"Ċ":{"ha":1011,"x_min":72,"x_max":938,"o":"m 525 1011 l 399 1138 l 522 1261 l 649 1135 l 525 1011 m 507 -200 l 429 -210 q 478 -6 478 -106 q 188 158 304 26 q 72 464 72 290 q 217 801 72 660 q 558 942 361 942 q 686 931 621 942 q 786 921 751 921 q 871 937 833 921 q 910 992 908 953 l 935 992 l 935 951 q 901 776 935 842 q 804 711 868 711 q 744 732 771 711 q 700 783 718 753 q 663 842 682 813 q 611 893 643 872 q 536 914 579 914 q 507 913 526 914 l 507 510 l 596 599 l 717 478 l 599 360 l 507 451 l 507 21 q 568 14 539 14 q 711 69 651 14 q 771 211 771 125 q 765 258 771 225 l 788 274 l 938 229 q 831 64 938 142 q 568 -14 724 -14 q 507 -10 536 -14 l 507 -200 m 308 464 q 348 170 308 278 q 478 29 388 63 l 478 906 q 308 464 308 854 z "},"ċ":{"ha":396,"x_min":38,"x_max":426,"o":"m 344 876 l 240 772 l 133 879 l 238 983 l 344 876 m 240 -8 q 124 53 185 7 q 38 144 64 99 q 58 336 58 214 l 58 546 l 157 574 l 246 703 l 426 618 l 347 504 l 347 396 l 314 385 q 322 496 321 435 q 214 544 279 517 l 214 396 q 199 215 214 283 q 319 119 261 147 q 357 163 329 129 l 376 142 q 303 65 344 111 l 240 -8 z "},"Č":{"ha":1011,"x_min":72,"x_max":938,"o":"m 479 1006 q 321 1276 436 1138 l 344 1293 q 547 1140 476 1206 q 751 1293 621 1207 l 775 1276 q 624 1025 668 1147 l 617 1006 l 479 1006 m 507 -200 l 429 -210 q 478 -6 478 -106 q 188 158 304 26 q 72 464 72 290 q 217 801 72 660 q 558 942 361 942 q 686 931 621 942 q 786 921 751 921 q 871 937 833 921 q 910 992 908 953 l 935 992 l 935 951 q 901 776 935 842 q 804 711 868 711 q 744 732 771 711 q 700 783 718 753 q 663 842 682 813 q 611 893 643 872 q 536 914 579 914 q 507 913 526 914 l 507 510 l 596 599 l 717 478 l 599 360 l 507 451 l 507 21 q 568 14 539 14 q 711 69 651 14 q 771 211 771 125 q 765 258 771 225 l 788 274 l 938 229 q 831 64 938 142 q 568 -14 724 -14 q 507 -10 536 -14 l 507 -200 m 308 464 q 348 170 308 278 q 478 29 388 63 l 478 906 q 308 464 308 854 z "},"č":{"ha":396,"x_min":38,"x_max":426,"o":"m 197 749 q 86 917 146 853 q 136 971 122 953 q 239 894 199 932 q 279 926 253 906 q 330 967 306 947 q 378 1006 354 986 l 390 990 q 321 814 325 886 l 197 749 m 240 -8 q 124 53 185 7 q 38 144 64 99 q 58 336 58 214 l 58 546 l 157 574 l 246 703 l 426 618 l 347 504 l 347 396 l 314 385 q 322 496 321 435 q 214 544 279 517 l 214 396 q 199 215 214 283 q 319 119 261 147 q 357 163 329 129 l 376 142 q 303 65 344 111 l 240 -8 z "},"Ď":{"ha":1221,"x_min":-6,"x_max":1150,"o":"m 533 1006 q 375 1276 490 1138 l 399 1293 q 601 1140 531 1206 q 806 1293 675 1207 l 829 1276 q 678 1025 722 1147 l 671 1006 l 533 1006 m 590 -200 l 513 -210 q 561 -11 561 -106 q 249 108 367 7 q 132 349 132 210 q 244 575 132 481 q 561 669 356 669 l 561 906 q 490 870 526 894 q 426 819 454 846 q 367 767 397 792 q 301 725 338 742 q 226 708 265 708 q 54 797 114 708 q -6 1035 -6 886 q -4 1075 -6 1063 l 21 1075 q 83 952 24 986 q 267 918 143 918 q 472 930 354 918 q 621 942 590 942 q 992 807 835 942 q 1150 478 1150 672 q 1003 124 1150 263 q 633 -14 856 -14 q 590 -12 604 -14 l 590 -200 m 632 14 q 914 457 914 14 q 838 795 914 676 q 621 914 761 914 q 590 911 610 914 l 590 510 l 679 599 l 800 478 l 682 360 l 590 451 l 590 17 q 632 14 618 14 m 353 353 q 406 130 353 217 q 561 21 460 43 l 561 642 q 406 563 460 638 q 353 353 353 488 z "},"ď":{"ha":578,"x_min":-50,"x_max":514,"o":"m 289 -8 q 151 56 222 11 q 53 144 79 100 q 74 336 74 214 l 74 547 l 229 590 l 229 396 q 214 215 229 283 q 356 117 267 156 q 364 361 364 224 q 360 565 364 456 l 19 754 q -43 814 -36 785 q -12 892 -50 843 q 72 1019 40 958 l 93 1004 l 72 968 q 65 942 65 954 q 126 872 65 914 q 364 738 186 829 q 397 807 393 785 q 382 843 400 829 l 325 899 l 424 1000 l 497 928 q 514 888 514 914 q 487 828 514 861 q 404 743 460 796 q 386 726 392 732 q 397 722 390 725 q 410 715 404 718 q 422 708 417 711 q 496 641 478 681 q 514 524 514 601 l 514 213 q 289 -8 378 92 z "},"Đ":{"ha":1268,"x_min":-7,"x_max":1197,"o":"m 638 -200 l 560 -210 q 608 -11 608 -106 q 301 105 418 7 q 179 338 185 203 l 176 338 q -7 317 114 336 l 8 365 l 179 365 q 299 581 188 493 q 608 669 410 669 l 608 906 q 538 870 574 894 q 473 819 501 846 q 415 767 444 792 q 349 725 385 742 q 274 708 313 708 q 103 797 163 708 q 43 1035 43 886 l 43 1075 l 68 1075 q 131 952 71 986 q 314 918 190 918 q 608 939 383 918 l 608 1119 l 689 1132 q 639 942 647 1042 l 668 942 q 1040 807 882 942 q 1197 478 1197 672 q 1050 124 1197 263 q 681 -14 903 -14 q 638 -12 656 -14 l 638 -200 m 679 14 q 961 457 961 14 q 885 795 961 676 q 668 914 808 914 q 638 911 651 914 l 638 510 l 726 599 l 847 478 l 729 360 l 638 451 l 638 17 q 679 14 663 14 m 608 642 q 456 566 510 638 q 400 365 403 494 l 608 365 l 608 642 m 608 21 l 608 338 l 400 338 q 456 125 403 207 q 608 21 510 43 z "},"đ":{"ha":574,"x_min":-44,"x_max":514,"o":"m 289 -8 q 151 56 222 11 q 53 144 79 100 q 74 336 74 214 l 74 496 l 229 539 l 229 396 q 214 215 229 283 q 356 117 267 156 q 360 565 369 311 l 200 654 l 104 540 l 39 582 q 169 671 118 622 l 19 754 q -44 825 -44 789 q -12 892 -44 851 q 72 1019 40 958 l 93 1004 l 72 968 q 65 942 65 954 q 108 885 65 918 q 271 786 150 851 l 354 886 l 425 844 q 306 768 360 814 q 422 708 339 750 q 496 641 478 681 q 514 524 514 601 l 514 213 q 289 -8 378 92 z "},"Ē":{"ha":1079,"x_min":71,"x_max":1007,"o":"m 358 1183 q 572 1172 503 1172 q 786 1179 665 1172 l 786 1075 q 572 1082 665 1082 q 358 1071 551 1082 l 358 1183 m 506 -200 l 428 -210 q 476 -4 476 -106 l 476 1 q 185 169 300 40 q 71 464 71 299 q 222 803 71 664 q 571 942 372 942 q 733 931 656 942 q 844 921 810 921 q 935 937 893 921 q 982 992 978 953 l 1007 992 l 1007 951 q 969 778 1007 844 q 863 711 931 711 q 788 743 821 711 q 733 813 754 775 q 667 882 711 850 q 560 914 622 914 q 506 908 528 914 l 506 543 l 557 543 q 753 556 697 543 l 753 621 l 781 621 l 781 332 l 753 332 l 753 397 q 557 410 697 410 l 506 410 l 506 28 q 608 14 549 14 q 771 69 704 14 q 838 214 838 125 q 833 258 838 236 l 856 274 l 1006 229 q 891 64 1006 142 q 608 -14 776 -14 q 506 -6 556 -14 l 506 -200 m 310 543 l 476 543 l 476 899 q 310 543 325 839 m 476 39 l 476 410 l 308 410 q 476 39 319 111 z "},"ē":{"ha":453,"x_min":-7,"x_max":439,"o":"m 83 794 l 126 899 l 251 899 q 396 913 326 899 l 353 808 l 228 808 q 83 794 153 808 m 276 -8 q 142 55 211 10 q 47 144 74 100 q 68 332 68 213 q -7 322 56 331 l 11 361 l 68 361 l 68 546 l 174 575 l 261 703 l 397 625 q 432 582 425 610 q 415 524 439 554 q 254 361 367 465 l 418 361 l 400 328 q 222 336 325 336 q 208 215 218 256 q 356 119 260 160 q 393 163 382 149 l 413 142 q 339 65 381 111 l 276 -8 m 224 369 l 332 474 q 224 546 283 515 l 224 369 z "},"Ĕ":{"ha":1079,"x_min":71,"x_max":1007,"o":"m 564 1006 q 426 1071 478 1006 q 364 1256 374 1136 l 388 1256 q 444 1167 397 1200 q 563 1133 490 1133 q 683 1167 636 1133 q 739 1256 729 1200 l 763 1256 q 564 1006 743 1006 m 506 -200 l 428 -210 q 476 -4 476 -106 l 476 1 q 185 169 300 40 q 71 464 71 299 q 222 803 71 664 q 571 942 372 942 q 733 931 656 942 q 844 921 810 921 q 935 937 893 921 q 982 992 978 953 l 1007 992 l 1007 951 q 969 778 1007 844 q 863 711 931 711 q 788 743 821 711 q 733 813 754 775 q 667 882 711 850 q 560 914 622 914 q 506 908 528 914 l 506 543 l 557 543 q 753 556 697 543 l 753 621 l 781 621 l 781 332 l 753 332 l 753 397 q 557 410 697 410 l 506 410 l 506 28 q 608 14 549 14 q 771 69 704 14 q 838 214 838 125 q 833 258 838 236 l 856 274 l 1006 229 q 891 64 1006 142 q 608 -14 776 -14 q 506 -6 556 -14 l 506 -200 m 310 543 l 476 543 l 476 899 q 310 543 325 839 m 476 39 l 476 410 l 308 410 q 476 39 319 111 z "},"ĕ":{"ha":453,"x_min":-7,"x_max":439,"o":"m 106 843 l 71 886 l 181 943 l 207 914 q 285 874 243 874 q 383 943 336 874 l 408 932 l 356 850 q 236 775 307 775 q 106 843 158 775 m 276 -8 q 142 55 211 10 q 47 144 74 100 q 68 332 68 213 q -7 322 56 331 l 11 361 l 68 361 l 68 546 l 174 575 l 261 703 l 397 625 q 432 582 425 610 q 415 524 439 554 q 254 361 367 465 l 418 361 l 400 328 q 222 336 325 336 q 208 215 218 256 q 356 119 260 160 q 393 163 382 149 l 413 142 q 339 65 381 111 l 276 -8 m 224 369 l 332 474 q 224 546 283 515 l 224 369 z "},"Ė":{"ha":1079,"x_min":71,"x_max":1007,"o":"m 568 1011 l 442 1138 l 565 1261 l 692 1135 l 568 1011 m 506 -200 l 428 -210 q 476 -4 476 -106 l 476 1 q 185 169 300 40 q 71 464 71 299 q 222 803 71 664 q 571 942 372 942 q 733 931 656 942 q 844 921 810 921 q 935 937 893 921 q 982 992 978 953 l 1007 992 l 1007 951 q 969 778 1007 844 q 863 711 931 711 q 788 743 821 711 q 733 813 754 775 q 667 882 711 850 q 560 914 622 914 q 506 908 528 914 l 506 543 l 557 543 q 753 556 697 543 l 753 621 l 781 621 l 781 332 l 753 332 l 753 397 q 557 410 697 410 l 506 410 l 506 28 q 608 14 549 14 q 771 69 704 14 q 838 214 838 125 q 833 258 838 236 l 856 274 l 1006 229 q 891 64 1006 142 q 608 -14 776 -14 q 506 -6 556 -14 l 506 -200 m 310 543 l 476 543 l 476 899 q 310 543 325 839 m 476 39 l 476 410 l 308 410 q 476 39 319 111 z "},"ė":{"ha":453,"x_min":-7,"x_max":439,"o":"m 346 876 l 242 772 l 135 879 l 239 983 l 346 876 m 276 -8 q 142 55 211 10 q 47 144 74 100 q 68 332 68 213 q -7 322 56 331 l 11 361 l 68 361 l 68 546 l 174 575 l 261 703 l 397 625 q 432 582 425 610 q 415 524 439 554 q 254 361 367 465 l 418 361 l 400 328 q 222 336 325 336 q 208 215 218 256 q 356 119 260 160 q 393 163 382 149 l 413 142 q 339 65 381 111 l 276 -8 m 224 369 l 332 474 q 224 546 283 515 l 224 369 z "},"Ę":{"ha":1079,"x_min":71,"x_max":1008,"o":"m 842 -212 q 607 -335 713 -335 q 524 -311 556 -335 q 492 -246 492 -287 q 500 -201 492 -221 q 531 -159 508 -182 q 574 -119 553 -136 q 640 -67 594 -103 q 718 -4 685 -32 q 608 -14 657 -14 q 228 126 386 -14 q 71 464 71 267 q 188 769 71 639 q 476 932 306 900 l 476 1119 l 557 1132 q 507 938 515 1047 q 571 942 538 942 q 733 931 656 942 q 844 921 810 921 q 935 937 893 921 q 982 992 978 953 l 1007 992 q 1008 951 1008 979 q 967 777 1006 843 q 863 711 929 711 q 788 743 821 711 q 733 813 754 775 q 667 882 711 850 q 560 914 622 914 q 506 908 528 914 l 506 543 l 557 543 q 753 556 697 543 l 753 621 l 781 621 l 781 332 l 753 332 l 753 397 q 557 410 697 410 l 506 410 l 506 28 q 608 14 549 14 q 785 83 717 14 q 833 258 854 153 l 856 274 l 1006 229 q 959 122 1006 176 q 832 32 913 68 q 661 -160 661 -57 q 711 -227 661 -215 q 826 -196 761 -239 l 842 -212 m 310 543 l 476 543 l 476 899 q 310 543 325 839 m 476 39 l 476 410 l 308 410 q 476 39 319 111 z "},"ę":{"ha":453,"x_min":-7,"x_max":439,"o":"m 413 -158 q 310 -310 356 -235 q 208 -227 243 -268 q 172 -157 172 -186 q 258 -3 172 -124 q 133 61 194 19 q 47 144 71 103 q 68 332 68 213 q -7 322 56 331 l 11 361 l 68 361 l 68 546 l 174 575 l 261 703 l 397 625 q 432 582 425 610 q 415 524 439 554 q 254 361 367 465 l 418 361 l 400 328 q 222 336 325 336 q 208 215 218 256 q 356 119 260 160 q 393 163 382 149 l 413 142 q 265 -76 265 -18 q 363 -186 265 -125 q 392 -144 379 -167 l 413 -158 m 224 369 l 332 474 q 224 546 283 515 l 224 369 z "},"Ě":{"ha":1079,"x_min":71,"x_max":1007,"o":"m 494 1006 q 336 1276 451 1138 l 360 1293 q 563 1140 492 1206 q 767 1293 636 1207 l 790 1276 q 639 1025 683 1147 l 632 1006 l 494 1006 m 506 -200 l 428 -210 q 476 -4 476 -106 l 476 1 q 185 169 300 40 q 71 464 71 299 q 222 803 71 664 q 571 942 372 942 q 733 931 656 942 q 844 921 810 921 q 935 937 893 921 q 982 992 978 953 l 1007 992 l 1007 951 q 969 778 1007 844 q 863 711 931 711 q 788 743 821 711 q 733 813 754 775 q 667 882 711 850 q 560 914 622 914 q 506 908 528 914 l 506 543 l 557 543 q 753 556 697 543 l 753 621 l 781 621 l 781 332 l 753 332 l 753 397 q 557 410 697 410 l 506 410 l 506 28 q 608 14 549 14 q 771 69 704 14 q 838 214 838 125 q 833 258 838 236 l 856 274 l 1006 229 q 891 64 1006 142 q 608 -14 776 -14 q 506 -6 556 -14 l 506 -200 m 310 543 l 476 543 l 476 899 q 310 543 325 839 m 476 39 l 476 410 l 308 410 q 476 39 319 111 z "},"ě":{"ha":453,"x_min":-7,"x_max":439,"o":"m 199 749 q 88 917 147 853 q 138 971 124 953 q 240 894 200 932 q 281 926 254 906 q 331 967 307 947 q 379 1006 356 986 l 392 990 q 322 814 326 886 l 199 749 m 276 -8 q 142 55 211 10 q 47 144 74 100 q 68 332 68 213 q -7 322 56 331 l 11 361 l 68 361 l 68 546 l 174 575 l 261 703 l 397 625 q 432 582 425 610 q 415 524 439 554 q 254 361 367 465 l 418 361 l 400 328 q 222 336 325 336 q 208 215 218 256 q 356 119 260 160 q 393 163 382 149 l 413 142 q 339 65 381 111 l 276 -8 m 224 369 l 332 474 q 224 546 283 515 l 224 369 z "},"Ĝ":{"ha":1100,"x_min":72,"x_max":1013,"o":"m 754 1006 q 551 1158 622 1093 q 347 1006 478 1092 l 324 1022 q 475 1293 429 1174 l 626 1293 q 778 1022 672 1174 l 754 1006 m 503 -200 l 425 -210 q 474 -6 474 -106 q 187 159 301 26 q 72 464 72 292 q 217 803 72 664 q 564 942 361 942 q 708 931 636 942 q 818 921 781 921 q 909 937 867 921 q 956 992 951 953 l 981 992 l 981 951 q 942 785 981 849 q 836 722 904 722 q 780 742 804 722 q 736 790 756 761 q 694 847 717 818 q 633 894 672 875 q 543 914 594 914 q 503 910 522 914 l 503 413 q 603 558 535 507 q 764 608 671 608 q 947 538 881 608 q 1013 361 1013 468 q 887 94 1013 201 q 568 -14 761 -14 q 503 -10 533 -14 l 503 -200 m 308 464 q 347 173 308 281 q 474 31 386 65 l 474 903 q 308 464 308 843 m 568 14 q 758 81 686 14 q 829 278 829 149 q 664 492 829 492 q 542 426 581 492 q 503 200 503 361 l 503 21 q 568 14 535 14 z "},"ĝ":{"ha":560,"x_min":39,"x_max":528,"o":"m 367 783 q 265 860 301 825 q 125 749 221 826 l 113 764 q 182 940 178 868 l 306 1006 q 417 838 357 901 q 367 783 381 801 m 392 -347 l 371 -332 l 388 -308 q 406 -262 406 -281 q 293 -151 406 -217 l 189 -92 q 153 -43 153 -72 q 200 31 153 -12 q 257 83 235 63 q 125 148 189 107 q 39 228 61 189 q 60 419 60 297 l 60 547 l 149 572 l 236 703 l 408 657 q 460 639 442 649 l 460 789 l 524 811 q 510 653 510 717 l 510 296 q 261 46 390 190 q 368 -13 294 21 q 469 -64 442 -47 q 528 -149 528 -103 q 500 -211 528 -181 q 392 -347 439 -278 m 200 299 q 354 200 249 244 q 358 365 358 307 q 356 510 358 449 q 215 553 328 521 l 215 479 q 200 299 215 367 z "},"Ğ":{"ha":1100,"x_min":72,"x_max":1013,"o":"m 560 1006 q 422 1071 474 1006 q 360 1256 369 1136 l 383 1256 q 440 1167 393 1200 q 558 1133 486 1133 q 678 1167 632 1133 q 735 1256 725 1200 l 758 1256 q 560 1006 739 1006 m 503 -200 l 425 -210 q 474 -6 474 -106 q 187 159 301 26 q 72 464 72 292 q 217 803 72 664 q 564 942 361 942 q 708 931 636 942 q 818 921 781 921 q 909 937 867 921 q 956 992 951 953 l 981 992 l 981 951 q 942 785 981 849 q 836 722 904 722 q 780 742 804 722 q 736 790 756 761 q 694 847 717 818 q 633 894 672 875 q 543 914 594 914 q 503 910 522 914 l 503 413 q 603 558 535 507 q 764 608 671 608 q 947 538 881 608 q 1013 361 1013 468 q 887 94 1013 201 q 568 -14 761 -14 q 503 -10 533 -14 l 503 -200 m 308 464 q 347 173 308 281 q 474 31 386 65 l 474 903 q 308 464 308 843 m 568 14 q 758 81 686 14 q 829 278 829 149 q 664 492 829 492 q 542 426 581 492 q 503 200 503 361 l 503 21 q 568 14 535 14 z "},"ğ":{"ha":560,"x_min":39,"x_max":528,"o":"m 144 843 l 110 886 l 219 943 l 246 914 q 324 874 282 874 q 422 943 375 874 l 447 932 l 394 850 q 275 775 346 775 q 144 843 197 775 m 392 -347 l 371 -332 l 388 -308 q 406 -262 406 -281 q 293 -151 406 -217 l 189 -92 q 153 -43 153 -72 q 200 31 153 -12 q 257 83 235 63 q 125 148 189 107 q 39 228 61 189 q 60 419 60 297 l 60 547 l 149 572 l 236 703 l 408 657 q 460 639 442 649 l 460 789 l 524 811 q 510 653 510 717 l 510 296 q 261 46 390 190 q 368 -13 294 21 q 469 -64 442 -47 q 528 -149 528 -103 q 500 -211 528 -181 q 392 -347 439 -278 m 200 299 q 354 200 249 244 q 358 365 358 307 q 356 510 358 449 q 215 553 328 521 l 215 479 q 200 299 215 367 z "},"Ġ":{"ha":1100,"x_min":72,"x_max":1013,"o":"m 553 1011 l 426 1138 l 550 1261 l 676 1135 l 553 1011 m 503 -200 l 425 -210 q 474 -6 474 -106 q 187 159 301 26 q 72 464 72 292 q 217 803 72 664 q 564 942 361 942 q 708 931 636 942 q 818 921 781 921 q 909 937 867 921 q 956 992 951 953 l 981 992 l 981 951 q 942 785 981 849 q 836 722 904 722 q 780 742 804 722 q 736 790 756 761 q 694 847 717 818 q 633 894 672 875 q 543 914 594 914 q 503 910 522 914 l 503 413 q 603 558 535 507 q 764 608 671 608 q 947 538 881 608 q 1013 361 1013 468 q 887 94 1013 201 q 568 -14 761 -14 q 503 -10 533 -14 l 503 -200 m 308 464 q 347 173 308 281 q 474 31 386 65 l 474 903 q 308 464 308 843 m 568 14 q 758 81 686 14 q 829 278 829 149 q 664 492 829 492 q 542 426 581 492 q 503 200 503 361 l 503 21 q 568 14 535 14 z "},"ġ":{"ha":560,"x_min":39,"x_max":528,"o":"m 385 876 l 281 772 l 174 879 l 278 983 l 385 876 m 392 -347 l 371 -332 l 388 -308 q 406 -262 406 -281 q 293 -151 406 -217 l 189 -92 q 153 -43 153 -72 q 200 31 153 -12 q 257 83 235 63 q 125 148 189 107 q 39 228 61 189 q 60 419 60 297 l 60 547 l 149 572 l 236 703 l 408 657 q 460 639 442 649 l 460 789 l 524 811 q 510 653 510 717 l 510 296 q 261 46 390 190 q 368 -13 294 21 q 469 -64 442 -47 q 528 -149 528 -103 q 500 -211 528 -181 q 392 -347 439 -278 m 200 299 q 354 200 249 244 q 358 365 358 307 q 356 510 358 449 q 215 553 328 521 l 215 479 q 200 299 215 367 z "},"Ģ":{"ha":1100,"x_min":72,"x_max":1013,"o":"m 1013 361 q 887 94 1013 201 q 568 -14 761 -14 q 218 126 364 -14 q 72 464 72 267 q 187 772 72 640 q 474 933 301 903 l 474 1119 l 554 1132 q 504 939 517 1054 q 564 942 543 942 q 708 931 636 942 q 818 921 781 921 q 909 937 867 921 q 956 992 951 953 l 981 992 q 982 951 982 979 q 941 785 979 849 q 836 722 903 722 q 780 742 804 722 q 736 790 756 761 q 694 847 717 818 q 633 894 672 875 q 543 914 594 914 q 503 910 522 914 l 503 413 q 603 558 535 507 q 764 608 671 608 q 947 538 881 608 q 1013 361 1013 468 m 308 464 q 347 173 308 281 q 474 31 386 65 l 474 903 q 308 464 308 843 m 568 14 q 758 81 686 14 q 829 278 829 149 q 664 492 829 492 q 542 426 581 492 q 503 200 503 361 l 503 21 q 568 14 535 14 m 488 -415 l 469 -396 q 527 -294 519 -324 q 514 -246 535 -264 l 450 -183 l 560 -71 l 642 -151 q 660 -196 660 -168 q 510 -393 660 -247 q 488 -415 494 -408 z "},"ģ":{"ha":560,"x_min":39,"x_max":528,"o":"m 346 1093 l 364 1074 q 304 956 304 988 q 319 924 304 939 l 383 861 l 274 749 l 192 829 q 174 874 174 846 q 324 1071 174 925 q 346 1093 339 1086 m 392 -347 l 371 -332 l 388 -308 q 406 -262 406 -281 q 293 -151 406 -217 l 189 -92 q 153 -43 153 -72 q 200 31 153 -12 q 257 83 235 63 q 125 148 189 107 q 39 228 61 189 q 60 419 60 297 l 60 547 l 149 572 l 236 703 l 408 657 q 460 639 442 649 l 460 789 l 524 811 q 510 653 510 717 l 510 296 q 261 46 390 190 q 368 -13 294 21 q 469 -64 442 -47 q 528 -149 528 -103 q 500 -211 528 -181 q 392 -347 439 -278 m 200 299 q 354 200 249 244 q 358 365 358 307 q 356 510 358 449 q 215 553 328 521 l 215 479 q 200 299 215 367 z "},"Ĥ":{"ha":1157,"x_min":65,"x_max":1068,"o":"m 774 1006 q 571 1158 642 1093 q 367 1006 497 1092 l 343 1022 q 494 1293 449 1174 l 646 1293 q 797 1022 692 1174 l 774 1006 m 496 -200 l 418 -210 q 467 -4 467 -106 l 467 0 l 75 0 l 75 28 l 186 28 l 186 219 q 178 642 186 515 q 151 864 171 769 l 65 864 l 65 892 q 399 928 275 890 q 383 499 383 728 q 400 28 383 222 l 467 28 l 467 929 q 585 919 488 928 q 749 911 682 911 q 944 942 882 911 q 1008 1054 1006 972 l 1033 1054 q 1035 1014 1035 1042 q 976 787 1035 872 q 808 701 917 701 q 720 730 765 701 q 643 793 675 758 q 570 860 611 828 q 496 900 529 893 l 496 440 q 569 581 518 540 q 717 622 621 622 q 964 548 860 622 q 1068 350 1068 474 q 1008 177 1068 261 q 836 28 949 93 l 1031 28 l 1031 0 l 769 0 q 836 317 836 129 q 821 449 836 390 q 767 549 806 508 q 672 590 729 590 q 536 481 576 590 q 496 117 496 371 l 496 28 l 582 28 l 582 0 l 496 0 l 496 -200 z "},"ĥ":{"ha":607,"x_min":-42,"x_max":649,"o":"m 381 1082 q 279 1158 315 1124 q 139 1047 235 1125 l 126 1063 q 196 1239 192 1167 l 319 1304 q 431 1136 371 1200 q 381 1082 394 1100 m 517 -8 q 426 58 471 15 q 357 144 382 100 q 378 336 378 214 l 378 521 q 272 564 317 550 q 239 521 254 543 l 239 396 q 224 201 239 264 q 322 110 243 163 l 222 -8 q 132 58 176 15 q 63 144 88 100 q 83 336 83 214 l 83 836 l 8 872 q -8 853 3 867 q -22 838 -19 840 l -42 858 q 90 1000 8 904 l 239 935 l 239 571 q 343 703 285 644 l 476 649 q 533 551 533 626 l 533 396 q 518 201 533 264 q 600 121 539 164 q 629 154 614 136 l 649 133 q 517 -8 599 88 z "},"Ħ":{"ha":1157,"x_min":-17,"x_max":1068,"o":"m 496 -200 l 418 -210 q 467 -4 467 -106 l 467 0 l 75 0 l 75 28 l 186 28 l 186 219 q 176 665 186 533 q -17 644 90 664 l -1 693 l 175 693 q 151 864 168 778 l 65 864 l 65 892 q 399 928 275 890 q 386 693 388 792 l 467 693 l 467 1119 l 547 1132 q 497 928 504 1043 q 749 911 671 911 q 944 942 882 911 q 1008 1054 1006 972 l 1033 1054 q 1035 1014 1035 1042 q 976 787 1035 872 q 808 701 917 701 q 699 746 754 701 q 590 841 643 790 q 496 900 538 892 l 496 694 q 651 714 565 697 l 636 665 l 496 665 l 496 440 q 569 581 518 540 q 717 622 621 622 q 964 548 860 622 q 1068 350 1068 474 q 1008 177 1068 261 q 836 28 949 93 l 1031 28 l 1031 0 l 769 0 q 836 317 836 129 q 821 449 836 390 q 767 549 806 508 q 672 590 729 590 q 536 481 576 590 q 496 117 496 371 l 496 28 l 582 28 l 582 0 l 496 0 l 496 -200 m 467 28 l 467 665 l 385 665 q 383 499 383 618 q 400 28 383 222 l 467 28 z "},"ħ":{"ha":607,"x_min":-58,"x_max":649,"o":"m 517 -8 q 426 58 471 15 q 357 144 382 100 q 378 336 378 214 l 378 521 q 272 564 317 550 q 239 521 254 543 l 239 396 q 224 201 239 264 q 322 110 243 163 l 222 -8 q 132 58 176 15 q 63 144 88 100 q 83 336 83 214 l 83 747 q -58 729 31 744 l -43 778 l 83 778 l 83 836 l 8 872 q -8 853 3 867 q -22 838 -19 840 l -42 858 q 90 1000 8 904 l 214 946 l 214 1093 l 256 1106 q 239 935 239 989 l 239 779 q 382 799 289 783 l 367 750 l 239 750 l 239 571 q 343 703 285 644 l 476 649 q 533 551 533 626 l 533 396 q 518 201 533 264 q 600 121 539 164 q 629 154 614 136 l 649 133 q 517 -8 599 88 z "},"Ĩ":{"ha":657,"x_min":36,"x_max":578,"o":"m 410 1181 q 510 1289 493 1181 l 533 1289 q 379 1053 514 1053 q 269 1086 346 1053 q 160 1119 192 1119 q 60 1011 76 1119 l 36 1011 q 190 1247 56 1247 q 300 1214 224 1247 q 410 1181 376 1181 m 492 -200 l 414 -210 q 463 -4 463 -106 l 463 0 l 75 0 l 75 28 l 186 28 l 186 219 q 178 642 186 515 q 151 864 171 769 l 65 864 l 65 892 q 399 928 275 890 q 383 499 383 728 q 400 28 383 222 l 463 28 l 463 928 l 492 928 l 492 28 l 578 28 l 578 0 l 492 0 l 492 -200 z "},"ĩ":{"ha":313,"x_min":-49,"x_max":354,"o":"m 257 791 q 249 783 257 791 q 214 775 242 775 q 129 808 186 775 q 50 842 72 842 q -31 775 17 842 l -49 785 q -1 870 -26 819 q 39 937 24 921 q 82 953 54 953 q 167 919 110 953 q 246 886 224 886 q 326 953 279 886 l 344 943 q 297 858 322 908 q 257 791 272 807 m 222 -8 q 132 58 176 15 q 63 144 88 100 q 83 336 83 214 l 83 526 q 8 572 42 558 q -21 540 -11 553 l -40 561 q 92 703 10 607 l 182 656 q 228 613 217 638 q 239 551 239 589 l 239 396 q 224 201 239 264 q 306 121 244 164 q 335 154 319 136 l 354 133 q 222 -8 304 88 z "},"Ī":{"ha":657,"x_min":64,"x_max":578,"o":"m 64 1183 q 278 1172 208 1172 q 492 1179 371 1172 l 492 1075 q 278 1082 371 1082 q 64 1071 257 1082 l 64 1183 m 492 -200 l 414 -210 q 463 -4 463 -106 l 463 0 l 75 0 l 75 28 l 186 28 l 186 219 q 178 642 186 515 q 151 864 171 769 l 65 864 l 65 892 q 399 928 275 890 q 383 499 383 728 q 400 28 383 222 l 463 28 l 463 928 l 492 928 l 492 28 l 578 28 l 578 0 l 492 0 l 492 -200 z "},"ī":{"ha":313,"x_min":-40,"x_max":354,"o":"m -4 794 l 39 899 l 164 899 q 308 913 239 899 l 265 808 l 140 808 q -4 794 65 808 m 222 -8 q 132 58 176 15 q 63 144 88 100 q 83 336 83 214 l 83 526 q 8 572 42 558 q -21 540 -11 553 l -40 561 q 92 703 10 607 l 182 656 q 228 613 217 638 q 239 551 239 589 l 239 396 q 224 201 239 264 q 306 121 244 164 q 335 154 319 136 l 354 133 q 222 -8 304 88 z "},"Ĭ":{"ha":657,"x_min":65,"x_max":578,"o":"m 278 1006 q 140 1071 192 1006 q 78 1256 88 1136 l 101 1256 q 158 1167 111 1200 q 276 1133 204 1133 q 397 1167 350 1133 q 453 1256 443 1200 l 476 1256 q 278 1006 457 1006 m 492 -200 l 414 -210 q 463 -4 463 -106 l 463 0 l 75 0 l 75 28 l 186 28 l 186 219 q 178 642 186 515 q 151 864 171 769 l 65 864 l 65 892 q 399 928 275 890 q 383 499 383 728 q 400 28 383 222 l 463 28 l 463 928 l 492 928 l 492 28 l 578 28 l 578 0 l 492 0 l 492 -200 z "},"ĭ":{"ha":313,"x_min":-40,"x_max":354,"o":"m 14 843 l -21 886 l 89 943 l 115 914 q 193 874 151 874 q 292 943 244 874 l 317 932 l 264 850 q 144 775 215 775 q 14 843 67 775 m 222 -8 q 132 58 176 15 q 63 144 88 100 q 83 336 83 214 l 83 526 q 8 572 42 558 q -21 540 -11 553 l -40 561 q 92 703 10 607 l 182 656 q 228 613 217 638 q 239 551 239 589 l 239 396 q 224 201 239 264 q 306 121 244 164 q 335 154 319 136 l 354 133 q 222 -8 304 88 z "},"Į":{"ha":657,"x_min":-22,"x_max":578,"o":"m 328 -212 q 92 -335 199 -335 q 8 -310 39 -335 q -22 -246 -22 -286 q 26 -147 -22 -199 q 190 0 74 -94 l 75 0 l 75 28 l 186 28 l 186 219 q 178 642 186 515 q 151 864 171 769 l 65 864 l 65 892 q 399 928 275 890 q 383 499 383 728 q 400 28 383 222 l 463 28 l 463 1119 l 543 1132 q 492 893 492 1025 l 492 28 l 578 28 l 578 0 l 492 0 l 492 -200 l 414 -210 q 463 -4 463 -106 l 463 0 l 360 0 q 183 -45 238 0 q 128 -147 128 -90 q 153 -207 128 -187 q 213 -226 178 -226 q 313 -196 265 -226 l 328 -212 z "},"į":{"ha":313,"x_min":-40,"x_max":356,"o":"m 50 799 q 189 990 111 913 l 269 928 l 67 783 l 50 799 m 253 -310 q 122 -157 122 -229 q 210 -1 122 -124 q 126 64 167 24 q 63 144 85 104 q 83 336 83 214 l 83 526 q 8 572 42 558 q -21 540 -11 553 l -40 561 q 92 703 10 607 l 182 656 q 228 613 217 638 q 239 551 239 589 l 239 396 q 224 201 239 264 q 306 121 244 164 q 335 154 319 136 l 354 133 q 215 -76 215 -17 q 306 -186 215 -129 q 335 -144 322 -167 l 356 -158 q 253 -310 299 -235 z "},"İ":{"ha":657,"x_min":65,"x_max":578,"o":"m 279 1011 l 153 1138 l 276 1261 l 403 1135 l 279 1011 m 492 -200 l 414 -210 q 463 -4 463 -106 l 463 0 l 75 0 l 75 28 l 186 28 l 186 219 q 178 642 186 515 q 151 864 171 769 l 65 864 l 65 892 q 399 928 275 890 q 383 499 383 728 q 400 28 383 222 l 463 28 l 463 928 l 492 928 l 492 28 l 578 28 l 578 0 l 492 0 l 492 -200 z "},"ı":{"ha":313,"x_min":-40,"x_max":354,"o":"m 222 -8 q 132 58 176 15 q 63 144 88 100 q 83 336 83 214 l 83 526 q 8 572 42 558 q -21 540 -11 553 l -40 561 q 92 703 10 607 l 182 656 q 228 613 217 638 q 239 551 239 589 l 239 396 q 224 201 239 264 q 306 121 244 164 q 335 154 319 136 l 354 133 q 222 -8 304 88 z "},"Ĳ":{"ha":1008,"x_min":51,"x_max":982,"o":"m 792 -32 q 658 -185 756 -144 q 436 -186 561 -225 l 381 -393 l 307 -385 q 404 -197 376 -297 l 410 -178 l 403 -175 q 263 -90 308 -139 l 281 -69 q 378 -133 325 -117 q 419 -142 401 -140 l 460 7 l 61 7 l 61 35 l 150 35 l 150 339 q 148 419 150 382 q 142 488 146 456 q 138 531 139 519 l 51 531 l 51 558 q 322 586 192 557 q 267 769 269 686 q 303 897 265 853 q 406 942 342 942 q 494 922 453 942 q 590 858 535 901 q 672 797 644 814 l 754 1103 l 832 1096 q 724 876 758 1007 l 699 783 q 789 749 742 758 q 935 860 851 860 q 976 791 969 825 q 947 733 982 757 q 836 708 913 708 q 806 710 817 708 q 765 531 772 619 q 771 378 758 443 q 794 240 783 314 q 810 107 806 167 q 792 -32 814 47 m 356 35 l 467 35 l 653 725 q 531 732 588 732 q 403 702 444 732 q 354 594 361 672 q 353 587 354 592 q 353 581 353 582 l 353 575 q 347 353 347 504 q 356 35 347 136 m 611 89 q 702 444 651 224 q 774 713 753 664 q 733 717 765 714 q 682 722 701 721 l 449 -142 q 539 -77 501 -133 q 611 89 576 -21 z "},"ĳ":{"ha":619,"x_min":-40,"x_max":576,"o":"m 50 799 q 189 990 111 913 l 269 928 l 67 783 l 50 799 m 357 799 q 496 990 418 913 l 576 928 l 374 783 l 357 799 m 222 -8 q 132 58 176 15 q 63 144 88 100 q 83 336 83 214 l 83 526 q 8 572 42 558 q -21 540 -11 553 l -40 561 q 92 703 10 607 l 182 656 q 228 613 217 638 q 239 551 239 589 l 239 396 q 224 201 239 264 q 306 121 244 164 q 335 154 319 136 l 354 133 q 222 -8 304 88 m 317 -282 l 296 -269 q 374 -1 353 -112 q 396 275 396 111 q 390 526 396 419 q 314 574 349 558 q 285 540 300 558 l 265 561 q 397 703 315 607 l 489 656 q 535 613 524 638 q 546 551 546 589 l 546 110 q 317 -282 415 -104 z "},"Ĵ":{"ha":806,"x_min":-3,"x_max":779,"o":"m 582 1006 q 379 1158 450 1093 q 175 1006 306 1092 l 151 1022 q 303 1293 257 1174 l 454 1293 q 606 1022 500 1174 l 582 1006 m 589 -32 q 456 -185 553 -144 q 233 -186 358 -225 l 178 -393 l 104 -385 q 201 -197 174 -297 l 207 -178 l 200 -175 q 60 -90 106 -139 l 78 -69 q 175 -133 122 -117 q 217 -142 199 -140 l 449 722 q 272 732 354 732 q 85 699 144 732 q 24 575 26 665 l -1 575 q -3 615 -3 588 q 53 853 -3 764 q 213 942 108 942 q 319 917 265 942 q 410 860 372 892 q 496 795 447 829 q 586 749 544 761 q 732 860 649 860 q 773 791 767 825 q 744 733 779 757 q 633 708 710 708 q 603 710 614 708 q 564 531 571 619 q 569 378 557 443 q 592 240 581 314 q 607 107 603 167 q 589 -32 611 47 m 408 89 q 500 444 450 225 q 569 711 550 664 q 479 719 532 715 l 246 -142 q 336 -77 299 -133 q 408 89 374 -21 z "},"ĵ":{"ha":307,"x_min":-47,"x_max":283,"o":"m 233 783 q 132 860 168 825 q -8 749 88 826 l -21 764 q 49 940 44 868 l 172 1006 q 283 838 224 901 q 233 783 247 801 m 4 -282 l -17 -269 q 62 -1 40 -112 q 83 275 83 111 q 78 526 83 419 q 1 574 36 558 q -28 540 -14 558 l -47 561 q 85 703 3 607 l 176 656 q 222 613 211 638 q 233 551 233 589 l 233 110 q 4 -282 103 -104 z "},"Ķ":{"ha":1067,"x_min":65,"x_max":1115,"o":"m 576 -196 q 426 -393 576 -247 q 404 -415 411 -408 l 386 -396 q 446 -278 446 -310 q 431 -246 446 -261 l 367 -183 l 463 -85 l 463 0 l 75 0 l 75 28 l 186 28 l 186 219 q 178 642 186 515 q 151 864 171 769 l 65 864 l 65 892 q 399 928 272 890 q 383 499 383 728 q 400 28 383 222 l 463 28 l 463 1119 l 543 1132 q 492 893 492 1025 l 492 514 q 554 436 501 503 q 751 750 751 614 q 720 865 751 825 q 632 906 689 906 l 632 933 q 892 909 803 954 q 982 790 982 864 q 929 684 982 735 q 759 554 876 633 q 571 414 642 475 q 786 157 724 225 q 876 69 836 101 q 954 22 915 38 q 1028 13 993 6 q 1099 50 1063 19 l 1115 32 q 1086 4 1107 24 q 870 -108 978 -97 q 672 -29 763 -119 q 592 125 617 35 q 549 310 568 215 q 492 465 531 404 l 492 -86 l 558 -151 q 576 -196 576 -168 z "},"ķ":{"ha":603,"x_min":-42,"x_max":649,"o":"m 517 -8 q 431 57 472 15 q 363 144 389 99 q 378 239 378 189 l 378 310 q 308 340 326 333 l 306 342 q 236 292 276 319 q 224 201 232 239 q 322 110 243 163 l 222 -8 q 132 58 176 15 q 63 144 88 100 q 83 336 83 214 l 83 836 l 8 872 q -8 853 3 867 q -22 838 -19 840 l -42 858 q 90 1000 8 904 l 214 946 l 214 1093 l 256 1106 q 239 935 239 1014 l 239 518 q 410 703 310 603 l 474 665 q 542 585 542 626 q 493 501 542 550 q 436 447 478 486 l 481 429 q 524 398 514 415 q 533 347 533 381 l 533 288 q 524 201 533 239 q 600 121 546 160 q 629 154 614 136 l 649 133 q 517 -8 599 88 m 239 396 q 238 325 239 347 q 385 438 324 385 q 417 488 417 465 q 356 551 417 518 l 321 571 q 239 471 278 524 l 239 396 m 246 -415 l 228 -396 q 288 -278 288 -310 q 272 -246 288 -261 l 208 -183 l 318 -71 l 400 -151 q 418 -196 418 -168 q 268 -393 418 -247 q 246 -415 253 -408 z "},"Ĺ":{"ha":882,"x_min":60,"x_max":879,"o":"m 149 1022 q 265 1293 225 1171 q 406 1203 406 1271 q 371 1146 406 1174 q 273 1078 336 1118 q 172 1006 210 1039 l 149 1022 m 499 -200 l 421 -210 q 469 -4 469 -106 l 469 0 l 78 0 l 78 28 l 189 28 l 189 219 q 181 642 189 515 q 154 864 174 769 l 60 864 l 60 892 q 401 928 275 890 q 386 499 386 728 q 403 28 386 222 l 469 28 l 469 928 l 499 928 l 499 510 l 588 599 l 708 478 l 590 360 l 499 451 l 499 213 q 678 196 625 196 q 810 229 768 196 q 854 353 851 263 l 879 353 l 879 313 q 842 75 879 164 q 738 -14 806 -14 q 653 22 694 -14 q 569 110 613 57 q 499 183 526 163 l 499 -200 z "},"ĺ":{"ha":313,"x_min":-42,"x_max":340,"o":"m 43 1063 q 113 1239 110 1154 l 236 1304 q 253 1190 251 1251 q 56 1047 165 1118 l 43 1063 m 208 -8 q 63 144 128 33 q 83 336 83 214 l 83 836 l 8 872 q -8 853 3 867 q -22 838 -19 840 l -42 858 q 90 1000 8 904 l 239 935 l 239 396 q 224 201 239 268 q 292 121 247 157 q 321 154 306 136 l 340 133 q 208 -8 290 88 z "},"Ļ":{"ha":882,"x_min":60,"x_max":881,"o":"m 583 -196 q 433 -393 583 -247 q 411 -415 418 -408 l 393 -396 q 451 -294 443 -324 q 438 -246 458 -264 l 374 -183 l 469 -85 l 469 0 l 78 0 l 78 28 l 189 28 l 189 219 q 181 642 189 515 q 154 864 174 769 l 60 864 l 60 892 q 401 928 275 890 q 386 499 386 728 q 403 28 386 222 l 469 28 l 469 1119 l 550 1132 q 499 893 499 1025 l 499 510 l 588 599 l 708 478 l 590 360 l 499 451 l 499 213 q 678 196 625 196 q 810 229 768 196 q 854 353 851 263 l 879 353 q 881 313 881 340 q 843 76 881 165 q 738 -14 806 -14 q 653 22 694 -14 q 569 110 613 57 q 499 183 526 163 l 499 -86 l 565 -151 q 583 -196 583 -168 z "},"ļ":{"ha":292,"x_min":-42,"x_max":340,"o":"m 239 935 l 239 396 q 224 201 239 268 q 292 121 247 157 q 321 154 306 136 l 340 133 q 208 -8 290 88 q 63 144 128 33 q 83 336 83 214 l 83 836 l 8 872 q -8 853 3 867 q -22 838 -19 840 l -42 858 q 90 1000 8 904 l 214 946 l 214 1093 l 256 1106 q 239 935 239 1014 m 114 -415 l 96 -396 q 156 -278 156 -310 q 140 -246 156 -261 l 76 -183 l 186 -71 l 268 -151 q 286 -196 286 -168 q 136 -393 286 -247 q 114 -415 121 -408 z "},"Ľ":{"ha":882,"x_min":60,"x_max":879,"o":"m 499 -200 l 421 -210 q 469 -4 469 -106 l 469 0 l 78 0 l 78 28 l 189 28 l 189 219 q 181 642 189 515 q 154 864 174 769 l 60 864 l 60 892 q 401 928 275 890 q 386 499 386 728 q 403 28 386 222 l 469 28 l 469 1119 l 550 1132 q 499 893 499 1025 l 499 510 l 588 599 l 708 478 l 590 360 l 499 451 l 499 213 q 678 196 625 196 q 810 229 768 196 q 854 353 851 263 l 879 353 l 879 313 q 842 76 879 165 q 738 -14 804 -14 q 653 22 694 -14 q 569 110 613 57 q 499 183 526 163 l 499 -200 m 644 639 l 632 649 q 686 756 686 728 q 671 785 686 772 l 614 840 l 713 942 l 786 869 q 803 829 803 856 q 794 799 803 815 q 769 763 786 782 q 735 727 751 743 q 690 683 719 711 q 644 639 661 656 z "},"ľ":{"ha":292,"x_min":-42,"x_max":454,"o":"m 208 -8 q 63 144 128 33 q 83 336 83 214 l 83 836 l 8 872 q -8 853 3 867 q -22 838 -19 840 l -42 858 q 90 1000 8 904 l 214 946 l 214 1093 l 256 1106 q 239 953 239 1033 l 239 396 q 224 201 239 268 q 292 121 247 157 q 321 154 306 136 l 340 133 q 208 -8 290 88 m 454 888 q 446 857 454 874 q 420 821 438 840 q 387 785 403 801 q 342 742 371 769 q 296 697 313 714 l 283 707 q 335 800 328 772 q 322 843 342 828 l 265 899 l 364 1000 l 438 928 q 454 888 454 914 z "},"Ŀ":{"ha":882,"x_min":60,"x_max":890,"o":"m 499 -200 l 421 -210 q 469 -4 469 -106 l 469 0 l 78 0 l 78 28 l 189 28 l 189 219 q 181 642 189 515 q 154 864 174 769 l 60 864 l 60 892 q 401 928 275 890 q 386 499 386 728 q 403 28 386 222 l 469 28 l 469 1119 l 550 1132 q 499 893 499 1025 l 499 213 q 678 196 625 196 q 810 229 768 196 q 854 353 851 263 l 879 353 q 881 313 881 340 q 843 76 881 165 q 738 -14 806 -14 q 653 22 694 -14 q 569 110 613 57 q 499 183 526 163 l 499 -200 m 772 360 l 651 481 l 769 599 l 890 478 l 772 360 z "},"ŀ":{"ha":396,"x_min":-42,"x_max":465,"o":"m 239 935 l 239 396 q 224 201 239 268 q 292 121 247 157 q 321 154 306 136 l 340 133 q 208 -8 290 88 q 63 144 128 33 q 83 336 83 214 l 83 836 l 8 872 q -8 853 3 867 q -22 838 -19 840 l -42 858 q 90 1000 8 904 l 214 946 l 214 1093 l 256 1106 q 239 935 239 1014 m 465 503 l 361 399 l 254 506 l 358 610 l 465 503 z "},"Ł":{"ha":938,"x_min":13,"x_max":879,"o":"m 499 -200 l 421 -210 q 469 -4 469 -106 l 469 0 l 78 0 l 78 28 l 189 28 l 189 303 l 69 203 l 13 256 q 189 342 113 282 q 154 864 186 699 l 60 864 l 60 892 q 401 928 275 890 q 386 507 386 728 l 469 578 l 469 1119 l 550 1132 q 499 893 499 1025 l 499 601 l 606 692 l 667 638 q 499 558 583 617 l 499 213 q 678 196 625 196 q 810 229 768 196 q 854 353 851 263 l 879 353 l 879 313 q 842 76 879 165 q 738 -14 804 -14 q 653 22 694 -14 q 569 110 613 57 q 499 183 526 163 l 499 -200 m 451 524 l 386 469 q 403 28 386 210 l 469 28 l 469 538 q 460 531 467 536 q 451 524 454 526 z "},"ł":{"ha":313,"x_min":-43,"x_max":365,"o":"m 208 -8 q 63 144 128 33 q 83 336 83 214 l 83 408 l 25 333 l -43 371 q 83 465 32 411 l 83 836 l 8 872 q -8 853 3 867 q -22 838 -19 840 l -42 858 q 90 1000 8 904 l 214 946 l 214 1093 l 256 1106 q 239 953 239 1035 l 239 663 l 293 733 l 365 694 q 239 601 303 664 l 239 396 q 224 201 239 268 q 292 121 247 157 q 321 154 306 136 l 340 133 q 208 -8 290 88 z "},"Ń":{"ha":1261,"x_min":65,"x_max":1179,"o":"m 524 1022 q 640 1293 600 1171 q 781 1203 781 1271 q 746 1146 781 1174 q 648 1078 711 1118 q 547 1006 585 1039 l 524 1022 m 496 -200 l 418 -210 q 467 -4 467 -106 l 467 0 l 75 0 l 75 28 l 186 28 l 186 219 q 178 642 186 515 q 151 864 171 769 l 65 864 l 65 892 q 399 928 272 890 q 383 499 383 728 q 400 28 383 222 l 467 28 l 467 535 q 743 942 467 942 q 1012 867 910 942 q 1114 647 1114 793 q 1086 514 1114 578 q 1019 402 1058 450 q 941 310 981 354 q 874 215 901 265 q 846 117 846 165 q 869 41 846 68 q 931 14 892 14 q 1013 53 976 14 q 1050 178 1050 93 q 1044 246 1050 213 l 1058 261 l 1179 232 q 1117 56 1179 125 q 953 -14 1056 -14 q 840 28 882 -14 q 799 154 799 71 q 840 364 799 217 q 882 611 882 511 q 714 907 882 907 q 551 805 607 907 q 496 533 496 703 l 496 510 l 585 599 l 706 478 l 588 360 l 496 451 l 496 28 l 582 28 l 582 0 l 496 0 l 496 -200 z "},"ń":{"ha":607,"x_min":-42,"x_max":649,"o":"m 197 764 q 267 940 264 856 l 390 1006 q 407 892 406 953 q 210 749 319 819 l 197 764 m 517 -8 q 426 58 471 15 q 357 144 382 100 q 378 336 378 214 l 378 526 q 275 568 325 553 q 239 521 250 536 l 239 396 q 224 201 239 257 q 322 110 243 163 l 222 -8 q 132 58 176 15 q 63 144 88 100 q 83 336 83 214 l 83 539 l 8 575 q -8 556 3 569 q -22 540 -19 543 l -42 561 q 90 703 8 607 l 239 638 l 239 571 q 343 703 285 644 l 476 649 q 533 551 533 626 l 533 396 q 518 201 533 257 q 600 121 539 164 q 629 154 614 136 l 649 133 q 517 -8 599 88 z "},"Ņ":{"ha":1261,"x_min":65,"x_max":1179,"o":"m 496 510 l 585 599 l 706 478 l 588 360 l 496 451 l 496 28 l 582 28 l 582 0 l 75 0 l 75 28 l 186 28 l 186 219 q 178 642 186 515 q 151 864 171 769 l 65 864 l 65 892 q 399 928 272 890 q 383 499 383 728 q 400 28 383 222 l 467 28 l 467 1119 l 547 1132 q 496 893 496 1025 l 496 756 q 743 942 558 942 q 1012 867 910 942 q 1114 647 1114 793 q 1086 514 1114 578 q 1019 402 1058 450 q 941 310 981 354 q 874 215 901 265 q 846 117 846 165 q 869 41 846 68 q 931 14 892 14 q 1025 70 986 14 q 1044 246 1064 126 l 1058 261 l 1179 232 q 1117 56 1179 125 q 953 -14 1056 -14 q 840 28 882 -14 q 799 154 799 71 q 840 364 799 217 q 882 611 882 511 q 714 907 882 907 q 551 805 607 907 q 496 533 496 703 l 496 510 m 585 -415 l 567 -396 q 626 -278 626 -310 q 611 -246 626 -261 l 547 -183 l 657 -71 l 739 -151 q 757 -196 757 -168 q 607 -393 757 -247 q 585 -415 592 -408 z "},"ņ":{"ha":607,"x_min":-42,"x_max":649,"o":"m 517 -8 q 426 58 471 15 q 357 144 382 100 q 378 336 378 214 l 378 526 q 275 568 325 553 q 239 521 250 536 l 239 396 q 224 201 239 257 q 322 110 243 163 l 222 -8 q 132 58 176 15 q 63 144 88 100 q 83 336 83 214 l 83 539 l 8 575 q -8 556 3 569 q -22 540 -19 543 l -42 561 q 90 703 8 607 l 239 638 l 239 571 q 343 703 285 644 l 476 649 q 533 551 533 626 l 533 396 q 518 201 533 257 q 600 121 539 164 q 629 154 614 136 l 649 133 q 517 -8 599 88 m 249 -415 l 231 -396 q 290 -278 290 -310 q 275 -246 290 -261 l 211 -183 l 321 -71 l 403 -151 q 421 -196 421 -168 q 271 -393 421 -247 q 249 -415 256 -408 z "},"Ň":{"ha":1261,"x_min":65,"x_max":1179,"o":"m 583 1006 q 425 1276 540 1138 l 449 1293 q 651 1140 581 1206 q 856 1293 725 1207 l 879 1276 q 728 1025 772 1147 l 721 1006 l 583 1006 m 496 -200 l 418 -210 q 467 -4 467 -106 l 467 0 l 75 0 l 75 28 l 186 28 l 186 219 q 178 642 186 515 q 151 864 171 769 l 65 864 l 65 892 q 399 928 272 890 q 383 499 383 728 q 400 28 383 222 l 467 28 l 467 535 q 743 942 467 942 q 1012 867 910 942 q 1114 647 1114 793 q 1086 514 1114 578 q 1019 402 1058 450 q 941 310 981 354 q 874 215 901 265 q 846 117 846 165 q 869 41 846 68 q 931 14 892 14 q 1013 53 976 14 q 1050 178 1050 93 q 1044 246 1050 213 l 1058 261 l 1179 232 q 1117 56 1179 125 q 953 -14 1056 -14 q 840 28 882 -14 q 799 154 799 71 q 840 364 799 217 q 882 611 882 511 q 714 907 882 907 q 551 805 607 907 q 496 533 496 703 l 496 510 l 585 599 l 706 478 l 588 360 l 496 451 l 496 28 l 582 28 l 582 0 l 496 0 l 496 -200 z "},"ň":{"ha":607,"x_min":-42,"x_max":649,"o":"m 261 749 q 150 917 210 853 q 200 971 186 953 q 303 894 263 932 q 343 926 317 906 q 394 967 369 947 q 442 1006 418 986 l 454 990 q 385 814 389 886 l 261 749 m 517 -8 q 426 58 471 15 q 357 144 382 100 q 378 336 378 214 l 378 526 q 275 568 325 553 q 239 521 250 536 l 239 396 q 224 201 239 257 q 322 110 243 163 l 222 -8 q 132 58 176 15 q 63 144 88 100 q 83 336 83 214 l 83 539 l 8 575 q -8 556 3 569 q -22 540 -19 543 l -42 561 q 90 703 8 607 l 239 638 l 239 571 q 343 703 285 644 l 476 649 q 533 551 533 626 l 533 396 q 518 201 533 257 q 600 121 539 164 q 629 154 614 136 l 649 133 q 517 -8 599 88 z "},"Ō":{"ha":1242,"x_min":69,"x_max":1172,"o":"m 407 1183 q 621 1172 551 1172 q 835 1179 714 1172 l 835 1075 q 621 1082 714 1082 q 407 1071 600 1082 l 407 1183 m 500 -200 l 422 -210 q 471 -4 471 -106 l 471 4 q 183 172 296 46 q 69 457 69 297 q 187 757 69 625 q 486 931 304 889 l 494 910 q 351 752 396 861 q 306 464 306 643 q 471 44 306 128 l 471 578 q 524 850 471 758 q 708 942 576 942 q 924 883 817 942 q 1101 716 1031 824 q 1172 485 1172 608 q 1010 133 1172 279 q 621 -14 847 -14 q 500 -3 563 -14 l 500 -200 m 621 14 q 863 126 789 14 q 936 464 936 238 q 872 797 936 681 q 692 914 808 914 q 541 826 582 914 q 500 572 500 739 l 500 510 l 589 599 l 710 478 l 592 360 l 500 451 l 500 32 q 621 14 557 14 z "},"ō":{"ha":560,"x_min":38,"x_max":508,"o":"m 122 794 l 165 899 l 290 899 q 435 913 365 899 l 392 808 l 267 808 q 122 794 192 808 m 283 -8 q 138 56 214 11 q 38 144 63 100 q 58 336 58 214 l 58 547 l 147 572 l 235 703 l 407 657 q 491 608 474 639 q 508 468 508 576 l 508 213 q 283 -8 372 92 m 199 215 q 350 117 244 164 q 357 360 357 256 q 354 510 357 404 q 214 553 326 521 l 214 396 q 199 215 214 300 z "},"Ŏ":{"ha":1242,"x_min":69,"x_max":1172,"o":"m 621 1006 q 483 1071 535 1006 q 421 1256 431 1136 l 444 1256 q 501 1167 454 1200 q 619 1133 547 1133 q 740 1167 693 1133 q 796 1256 786 1200 l 819 1256 q 621 1006 800 1006 m 500 -200 l 422 -210 q 471 -4 471 -106 l 471 4 q 183 172 296 46 q 69 457 69 297 q 187 757 69 625 q 486 931 304 889 l 494 910 q 351 752 396 861 q 306 464 306 643 q 471 44 306 128 l 471 578 q 524 850 471 758 q 708 942 576 942 q 924 883 817 942 q 1101 716 1031 824 q 1172 485 1172 608 q 1010 133 1172 279 q 621 -14 847 -14 q 500 -3 563 -14 l 500 -200 m 621 14 q 863 126 789 14 q 936 464 936 238 q 872 797 936 681 q 692 914 808 914 q 541 826 582 914 q 500 572 500 739 l 500 510 l 589 599 l 710 478 l 592 360 l 500 451 l 500 32 q 621 14 557 14 z "},"ŏ":{"ha":560,"x_min":38,"x_max":508,"o":"m 144 843 l 110 886 l 219 943 l 246 914 q 324 874 282 874 q 422 943 375 874 l 447 932 l 394 850 q 275 775 346 775 q 144 843 197 775 m 283 -8 q 138 56 214 11 q 38 144 63 100 q 58 336 58 214 l 58 547 l 147 572 l 235 703 l 407 657 q 491 608 474 639 q 508 468 508 576 l 508 213 q 283 -8 372 92 m 199 215 q 350 117 244 164 q 357 360 357 256 q 354 510 357 404 q 214 553 326 521 l 214 396 q 199 215 214 300 z "},"Ő":{"ha":1242,"x_min":69,"x_max":1172,"o":"m 379 1022 q 496 1293 456 1171 q 615 1203 615 1274 q 585 1145 615 1174 q 496 1076 556 1117 q 403 1006 436 1036 l 379 1022 m 663 1022 q 779 1293 739 1171 q 899 1203 899 1274 q 869 1145 899 1174 q 779 1076 839 1117 q 686 1006 719 1036 l 663 1022 m 500 -200 l 422 -210 q 471 -4 471 -106 l 471 4 q 183 172 296 46 q 69 457 69 297 q 187 757 69 625 q 486 931 304 889 l 494 910 q 351 752 396 861 q 306 464 306 643 q 471 44 306 128 l 471 578 q 524 850 471 758 q 708 942 576 942 q 924 883 817 942 q 1101 716 1031 824 q 1172 485 1172 608 q 1010 133 1172 279 q 621 -14 847 -14 q 500 -3 563 -14 l 500 -200 m 621 14 q 863 126 789 14 q 936 464 936 238 q 872 797 936 681 q 692 914 808 914 q 541 826 582 914 q 500 572 500 739 l 500 510 l 589 599 l 710 478 l 592 360 l 500 451 l 500 32 q 621 14 557 14 z "},"ő":{"ha":560,"x_min":38,"x_max":508,"o":"m 78 764 q 147 940 144 856 l 271 1006 q 274 892 279 949 q 90 749 197 815 l 78 764 m 285 764 q 354 940 351 856 l 478 1006 q 481 892 486 949 q 297 749 404 815 l 285 764 m 283 -8 q 138 56 214 11 q 38 144 63 100 q 58 336 58 214 l 58 547 l 147 572 l 235 703 l 407 657 q 491 608 474 639 q 508 468 508 576 l 508 213 q 283 -8 372 92 m 199 215 q 350 117 244 164 q 357 360 357 256 q 354 510 357 404 q 214 553 326 521 l 214 396 q 199 215 214 300 z "},"Œ":{"ha":1901,"x_min":68,"x_max":1814,"o":"m 1313 -200 l 1235 -210 q 1283 -4 1283 -106 l 1283 3 q 1019 165 1125 43 q 606 -7 886 -7 q 499 3 547 -7 l 499 -200 l 425 -210 q 474 -4 474 -106 l 474 7 q 183 172 297 46 q 68 460 68 299 q 182 753 68 624 q 474 928 296 883 l 474 1119 l 550 1132 q 499 893 499 1025 l 499 793 q 693 942 544 942 q 867 894 779 942 q 1017 767 954 847 q 1283 932 1122 896 l 1283 1119 l 1364 1132 q 1314 938 1322 1047 q 1378 942 1344 942 q 1540 931 1463 942 q 1651 921 1617 921 q 1742 937 1700 921 q 1789 992 1785 953 l 1814 992 l 1814 951 q 1775 778 1814 844 q 1669 711 1736 711 q 1594 743 1628 711 q 1540 813 1561 775 q 1474 882 1518 850 q 1367 914 1429 914 q 1313 908 1335 914 l 1313 543 l 1364 543 q 1560 556 1503 543 l 1560 621 l 1588 621 l 1588 332 l 1560 332 l 1560 397 q 1364 410 1503 410 l 1313 410 l 1313 28 q 1415 14 1356 14 q 1578 69 1511 14 q 1644 214 1644 125 q 1640 258 1644 236 l 1663 274 l 1813 229 q 1698 64 1813 142 q 1415 -14 1583 -14 q 1313 -4 1360 -14 l 1313 -200 m 606 21 q 837 132 767 21 q 907 467 907 243 q 847 798 907 682 q 676 914 786 914 q 537 817 575 914 q 499 533 499 719 l 499 496 l 601 599 l 722 478 l 604 360 l 499 465 l 499 36 q 606 21 547 21 m 304 467 q 474 46 304 122 l 474 899 q 304 467 304 801 m 1117 543 l 1283 543 l 1283 899 q 1117 543 1132 839 m 1283 39 l 1283 410 l 1115 410 q 1283 39 1126 111 z "},"œ":{"ha":743,"x_min":38,"x_max":724,"o":"m 567 -8 q 381 96 447 25 q 283 -8 346 61 q 138 56 214 11 q 38 144 63 100 q 58 336 58 214 l 58 547 l 147 572 l 235 703 l 494 621 l 551 703 l 688 625 q 724 568 724 604 q 706 524 724 546 q 544 361 657 465 l 708 361 l 690 328 q 507 336 613 336 q 503 213 506 307 q 646 119 553 160 q 683 163 672 149 l 703 142 q 629 65 671 111 l 567 -8 m 199 215 q 347 118 244 164 q 361 396 361 264 q 358 506 361 431 q 214 553 299 533 l 214 396 q 199 215 214 300 m 508 547 l 508 364 q 555 408 511 367 q 622 474 599 450 q 508 547 574 517 z "},"Ŕ":{"ha":1076,"x_min":67,"x_max":1189,"o":"m 426 1022 q 543 1293 503 1171 q 683 1203 683 1271 q 649 1146 683 1174 q 551 1078 614 1118 q 450 1006 488 1039 l 426 1022 m 494 -200 l 417 -210 q 465 -4 465 -106 l 465 0 l 74 0 l 74 28 l 185 28 l 185 219 q 177 642 185 515 q 150 864 169 769 l 67 864 l 67 892 q 397 928 271 890 q 382 499 382 728 l 382 438 l 465 438 l 465 578 q 505 856 465 771 q 647 942 544 942 q 887 872 788 942 q 986 696 986 803 q 884 501 986 581 q 610 411 782 422 q 710 275 625 393 q 860 89 796 157 q 949 1 910 33 q 1028 -47 989 -31 q 1101 -56 1067 -62 q 1172 -18 1136 -49 l 1189 -36 q 1160 -64 1181 -44 q 944 -176 1051 -165 q 746 -97 836 -187 q 676 22 701 -49 q 643 153 650 92 q 621 288 636 214 q 582 410 606 361 l 494 410 l 494 28 l 581 28 l 581 0 l 494 0 l 494 -200 m 494 533 l 494 438 l 560 438 q 706 497 661 438 q 750 675 750 556 q 719 851 750 790 q 631 913 688 913 q 558 886 586 913 q 516 803 529 860 q 499 688 503 747 q 494 533 494 628 m 465 28 l 465 410 l 382 410 q 399 28 385 200 l 465 28 z "},"ŕ":{"ha":426,"x_min":-42,"x_max":471,"o":"m 124 764 q 193 940 190 856 l 317 1006 q 333 892 332 953 q 136 749 246 819 l 124 764 m 222 -8 q 132 58 176 15 q 63 144 88 100 q 83 336 83 214 l 83 539 l 8 575 q -8 556 3 569 q -22 540 -19 543 l -42 561 q 90 703 8 607 l 239 638 l 239 567 q 346 703 289 646 l 471 607 l 386 497 l 386 401 l 353 390 q 360 493 360 439 q 272 561 326 528 q 239 517 250 533 l 239 396 q 224 201 239 264 q 304 122 242 165 q 339 163 326 147 l 358 142 q 285 65 326 111 l 222 -8 z "},"Ŗ":{"ha":1076,"x_min":67,"x_max":1189,"o":"m 579 -196 q 429 -393 579 -247 q 407 -415 414 -408 l 389 -396 q 449 -278 449 -310 q 433 -246 449 -261 l 369 -183 l 465 -85 l 465 0 l 74 0 l 74 28 l 185 28 l 185 219 q 177 642 185 515 q 150 864 169 769 l 67 864 l 67 892 q 397 928 271 890 q 382 499 382 728 l 382 438 l 465 438 l 465 1119 l 546 1132 q 494 893 494 1025 l 494 821 q 647 942 532 942 q 887 872 788 942 q 986 696 986 803 q 884 501 986 581 q 610 411 782 422 q 710 275 625 393 q 860 89 796 157 q 949 1 910 33 q 1028 -47 989 -31 q 1101 -56 1067 -62 q 1172 -18 1136 -49 l 1189 -36 q 1160 -64 1181 -44 q 944 -176 1051 -165 q 746 -97 836 -187 q 676 22 701 -49 q 643 153 650 92 q 621 288 636 214 q 582 410 606 361 l 494 410 l 494 28 l 581 28 l 581 0 l 494 0 l 494 -86 l 561 -151 q 579 -196 579 -168 m 494 533 l 494 438 l 560 438 q 706 497 661 438 q 750 675 750 556 q 719 851 750 790 q 631 913 688 913 q 545 861 576 913 q 504 732 514 810 q 494 533 494 654 m 465 28 l 465 410 l 382 410 q 399 28 385 200 l 465 28 z "},"ŗ":{"ha":426,"x_min":-42,"x_max":471,"o":"m 222 -8 q 132 58 176 15 q 63 144 88 100 q 83 336 83 214 l 83 539 l 8 575 q -8 556 3 569 q -22 540 -19 543 l -42 561 q 90 703 8 607 l 239 638 l 239 567 q 346 703 289 646 l 471 607 l 386 497 l 386 401 l 353 390 q 360 493 360 439 q 272 561 326 528 q 239 517 250 533 l 239 396 q 224 201 239 264 q 304 122 242 165 q 339 163 326 147 l 358 142 q 285 65 326 111 l 222 -8 m 150 -415 l 132 -396 q 192 -278 192 -310 q 176 -246 192 -261 l 113 -183 l 222 -71 l 304 -151 q 322 -196 322 -168 q 172 -393 322 -247 q 150 -415 157 -408 z "},"Ř":{"ha":1076,"x_min":67,"x_max":1189,"o":"m 486 1006 q 328 1276 443 1138 l 351 1293 q 554 1140 483 1206 q 758 1293 628 1207 l 782 1276 q 631 1025 675 1147 l 624 1006 l 486 1006 m 494 -200 l 417 -210 q 465 -4 465 -106 l 465 0 l 74 0 l 74 28 l 185 28 l 185 219 q 177 642 185 515 q 150 864 169 769 l 67 864 l 67 892 q 397 928 271 890 q 382 499 382 728 l 382 438 l 465 438 l 465 578 q 505 856 465 771 q 647 942 544 942 q 887 872 788 942 q 986 696 986 803 q 884 501 986 581 q 610 411 782 422 q 710 275 625 393 q 860 89 796 157 q 949 1 910 33 q 1028 -47 989 -31 q 1101 -56 1067 -62 q 1172 -18 1136 -49 l 1189 -36 q 1160 -64 1181 -44 q 944 -176 1051 -165 q 746 -97 836 -187 q 676 22 701 -49 q 643 153 650 92 q 621 288 636 214 q 582 410 606 361 l 494 410 l 494 28 l 581 28 l 581 0 l 494 0 l 494 -200 m 494 533 l 494 438 l 560 438 q 706 497 661 438 q 750 675 750 556 q 719 851 750 790 q 631 913 688 913 q 558 886 586 913 q 516 803 529 860 q 499 688 503 747 q 494 533 494 628 m 465 28 l 465 410 l 382 410 q 399 28 385 200 l 465 28 z "},"ř":{"ha":426,"x_min":-42,"x_max":471,"o":"m 185 749 q 74 917 133 853 q 124 971 110 953 q 226 894 186 932 q 267 926 240 906 q 317 967 293 947 q 365 1006 342 986 l 378 990 q 308 814 313 886 l 185 749 m 222 -8 q 132 58 176 15 q 63 144 88 100 q 83 336 83 214 l 83 539 l 8 575 q -8 556 3 569 q -22 540 -19 543 l -42 561 q 90 703 8 607 l 239 638 l 239 567 q 346 703 289 646 l 471 607 l 386 497 l 386 401 l 353 390 q 360 493 360 439 q 272 561 326 528 q 239 517 250 533 l 239 396 q 224 201 239 264 q 304 122 242 165 q 339 163 326 147 l 358 142 q 285 65 326 111 l 222 -8 z "},"Ś":{"ha":1181,"x_min":69,"x_max":1103,"o":"m 503 1022 q 619 1293 579 1171 q 760 1203 760 1271 q 725 1146 760 1174 q 627 1078 690 1118 q 526 1006 564 1039 l 503 1022 m 624 -200 l 546 -210 q 594 -12 593 -110 q 222 147 375 3 q 69 485 69 290 q 221 808 69 675 q 575 942 372 942 q 713 931 644 942 q 810 921 781 921 q 1018 1033 1015 921 l 1043 1033 l 1043 993 q 992 796 1043 869 q 843 722 940 722 q 736 738 801 722 q 639 753 671 753 l 624 753 l 624 539 q 767 553 667 539 q 910 568 868 568 q 1051 517 1000 568 q 1103 379 1103 465 q 968 99 1103 213 q 640 -14 833 -14 l 624 -14 l 624 -200 m 306 464 q 373 141 306 253 q 594 15 440 29 l 594 351 q 465 416 513 357 q 417 556 417 475 q 487 721 417 661 q 639 781 557 781 q 763 760 682 781 q 726 819 753 771 q 667 891 700 868 q 575 914 633 914 q 376 797 447 914 q 306 464 306 679 m 503 631 q 594 540 503 549 l 594 747 q 528 703 553 735 q 503 631 503 671 m 640 14 q 863 84 790 14 q 935 238 935 154 q 905 335 935 303 q 806 367 875 367 q 708 359 768 367 q 624 351 649 351 l 624 14 l 640 14 z "},"ś":{"ha":518,"x_min":28,"x_max":490,"o":"m 153 764 q 222 940 219 856 l 346 1006 q 363 892 361 953 q 165 749 275 819 l 153 764 m 250 -8 l 54 136 l 28 156 q 126 244 50 172 l 154 271 l 36 363 l 36 381 q 61 553 36 471 l 153 596 l 267 703 l 468 569 l 486 557 l 371 444 l 453 386 q 490 313 490 360 q 465 143 490 226 l 353 89 l 250 -8 m 256 368 l 344 453 q 193 565 275 525 q 175 432 175 493 q 256 368 201 410 m 350 274 q 264 340 311 315 l 175 254 q 332 125 253 169 q 350 274 350 207 z "},"Ŝ":{"ha":1181,"x_min":69,"x_max":1103,"o":"m 825 1006 q 622 1158 693 1093 q 418 1006 549 1092 l 394 1022 q 546 1293 500 1174 l 697 1293 q 849 1022 743 1174 l 825 1006 m 624 -200 l 546 -210 q 594 -12 593 -110 q 222 147 375 3 q 69 485 69 290 q 221 808 69 675 q 575 942 372 942 q 713 931 644 942 q 810 921 781 921 q 1018 1033 1015 921 l 1043 1033 l 1043 993 q 992 796 1043 869 q 843 722 940 722 q 736 738 801 722 q 639 753 671 753 l 624 753 l 624 539 q 767 553 667 539 q 910 568 868 568 q 1051 517 1000 568 q 1103 379 1103 465 q 968 99 1103 213 q 640 -14 833 -14 l 624 -14 l 624 -200 m 306 464 q 373 141 306 253 q 594 15 440 29 l 594 351 q 465 416 513 357 q 417 556 417 475 q 487 721 417 661 q 639 781 557 781 q 763 760 682 781 q 726 819 753 771 q 667 891 700 868 q 575 914 633 914 q 376 797 447 914 q 306 464 306 679 m 503 631 q 594 540 503 549 l 594 747 q 528 703 553 735 q 503 631 503 671 m 640 14 q 863 84 790 14 q 935 238 935 154 q 905 335 935 303 q 806 367 875 367 q 708 359 768 367 q 624 351 649 351 l 624 14 l 640 14 z "},"ŝ":{"ha":518,"x_min":28,"x_max":490,"o":"m 346 783 q 244 860 281 825 q 104 749 200 826 l 92 764 q 161 940 157 868 l 285 1006 q 396 838 336 901 q 346 783 360 801 m 250 -8 l 54 136 l 28 156 q 126 244 50 172 l 154 271 l 36 363 l 36 381 q 61 553 36 471 l 153 596 l 267 703 l 468 569 l 486 557 l 371 444 l 453 386 q 490 313 490 360 q 465 143 490 226 l 353 89 l 250 -8 m 256 368 l 344 453 q 193 565 275 525 q 175 432 175 493 q 256 368 201 410 m 350 274 q 264 340 311 315 l 175 254 q 332 125 253 169 q 350 274 350 207 z "},"Ş":{"ha":1181,"x_min":69,"x_max":1103,"o":"m 663 -339 q 528 -300 583 -339 q 472 -217 472 -261 l 575 -194 l 586 -201 q 595 -281 576 -250 q 650 -311 614 -311 q 717 -210 717 -311 q 697 -131 717 -157 q 628 -106 676 -106 l 594 -106 l 594 -12 q 222 147 375 3 q 69 485 69 290 q 221 808 69 675 q 575 942 372 942 l 594 942 l 594 1119 l 675 1132 q 626 940 636 1051 q 724 930 669 939 q 810 921 779 921 q 1018 1033 1015 921 l 1043 1033 q 1044 993 1044 1021 q 992 797 1044 871 q 843 722 940 722 q 736 738 801 722 q 639 753 671 753 q 624 751 629 753 l 624 539 q 767 553 667 539 q 910 568 868 568 q 1051 517 1000 568 q 1103 379 1103 465 q 968 99 1103 213 q 640 -14 833 -14 l 624 -14 l 624 -78 l 660 -78 q 799 -112 746 -78 q 851 -203 851 -146 q 798 -303 851 -267 q 663 -339 744 -339 m 306 464 q 373 141 306 253 q 594 15 440 29 l 594 351 q 465 416 513 357 q 417 556 417 475 q 469 703 417 646 q 594 775 522 760 l 594 913 q 575 914 589 914 q 376 797 447 914 q 306 464 306 679 m 763 760 q 730 811 750 774 q 686 874 710 849 q 624 908 663 899 l 624 781 l 639 781 q 763 760 682 781 m 503 631 q 594 540 503 549 l 594 747 q 528 703 553 735 q 503 631 503 671 m 640 14 q 863 84 790 14 q 935 238 935 154 q 905 335 935 303 q 806 367 875 367 q 708 359 768 367 q 624 351 649 351 l 624 14 l 640 14 z "},"ş":{"ha":518,"x_min":28,"x_max":490,"o":"m 228 -310 q 131 -289 169 -310 l 138 -240 l 144 -240 q 236 -285 185 -285 q 294 -239 294 -285 q 269 -183 294 -211 q 161 -99 244 -156 l 161 -89 q 240 -1 190 -60 l 54 136 l 28 156 q 126 244 50 172 l 154 271 l 36 363 l 36 381 q 61 553 36 471 l 153 596 l 267 703 l 468 569 l 486 557 l 371 444 l 453 386 q 490 313 490 360 q 465 143 490 226 l 354 90 q 268 -12 314 46 q 372 -105 346 -71 q 399 -178 399 -139 q 349 -266 399 -222 q 228 -310 299 -310 m 256 368 l 344 453 q 193 565 275 525 q 175 432 175 493 q 256 368 201 410 m 350 274 q 264 340 311 315 l 175 254 q 332 125 253 169 q 350 274 350 207 z "},"Š":{"ha":1181,"x_min":69,"x_max":1103,"o":"m 556 1006 q 397 1276 513 1138 l 421 1293 q 624 1140 553 1206 q 828 1293 697 1207 l 851 1276 q 700 1025 744 1147 l 693 1006 l 556 1006 m 624 -200 l 546 -210 q 594 -12 593 -110 q 222 147 375 3 q 69 485 69 290 q 221 808 69 675 q 575 942 372 942 q 713 931 644 942 q 810 921 781 921 q 1018 1033 1015 921 l 1043 1033 l 1043 993 q 992 796 1043 869 q 843 722 940 722 q 736 738 801 722 q 639 753 671 753 l 624 753 l 624 539 q 767 553 667 539 q 910 568 868 568 q 1051 517 1000 568 q 1103 379 1103 465 q 968 99 1103 213 q 640 -14 833 -14 l 624 -14 l 624 -200 m 306 464 q 373 141 306 253 q 594 15 440 29 l 594 351 q 465 416 513 357 q 417 556 417 475 q 487 721 417 661 q 639 781 557 781 q 763 760 682 781 q 726 819 753 771 q 667 891 700 868 q 575 914 633 914 q 376 797 447 914 q 306 464 306 679 m 503 631 q 594 540 503 549 l 594 747 q 528 703 553 735 q 503 631 503 671 m 640 14 q 863 84 790 14 q 935 238 935 154 q 905 335 935 303 q 806 367 875 367 q 708 359 768 367 q 624 351 649 351 l 624 14 l 640 14 z "},"š":{"ha":518,"x_min":28,"x_max":490,"o":"m 217 749 q 106 917 165 853 q 156 971 142 953 q 258 894 218 932 q 299 926 272 906 q 349 967 325 947 q 397 1006 374 986 l 410 990 q 340 814 344 886 l 217 749 m 250 -8 l 54 136 l 28 156 q 126 244 50 172 l 154 271 l 36 363 l 36 381 q 61 553 36 471 l 153 596 l 267 703 l 468 569 l 486 557 l 371 444 l 453 386 q 490 313 490 360 q 465 143 490 226 l 353 89 l 250 -8 m 256 368 l 344 453 q 193 565 275 525 q 175 432 175 493 q 256 368 201 410 m 350 274 q 264 340 311 315 l 175 254 q 332 125 253 169 q 350 274 350 207 z "},"Ţ":{"ha":1135,"x_min":42,"x_max":1101,"o":"m 729 -196 q 579 -393 729 -247 q 557 -415 564 -408 l 539 -396 q 599 -278 599 -310 q 583 -246 599 -261 l 519 -183 l 617 -83 l 617 -8 q 330 126 439 14 q 221 390 221 239 q 225 440 221 415 q 42 682 42 511 q 140 872 42 803 q 357 942 238 942 q 426 939 386 942 q 522 931 465 936 q 617 924 579 926 l 617 1119 l 697 1132 q 647 922 651 1036 q 764 918 703 918 q 999 951 925 918 q 1075 1075 1072 985 l 1100 1075 q 1101 1035 1101 1063 q 1029 797 1101 886 q 824 708 957 708 q 646 761 738 708 l 646 510 l 735 599 l 856 478 l 738 360 l 646 451 l 646 19 q 700 14 668 14 q 857 83 797 14 q 896 258 917 153 l 918 274 l 1068 229 q 963 63 1068 140 q 699 -14 858 -14 q 646 -11 679 -14 l 646 -87 l 711 -151 q 729 -196 729 -168 m 167 700 q 232 474 167 543 q 363 673 261 589 q 610 782 464 757 q 547 825 601 788 q 473 873 492 863 q 414 898 454 883 q 339 913 374 913 q 210 853 253 913 q 167 700 167 793 m 457 413 q 617 26 457 81 l 617 751 q 457 413 457 696 z "},"ţ":{"ha":356,"x_min":-11,"x_max":388,"o":"m 314 65 l 251 -8 q 145 51 200 6 q 63 144 90 97 q 83 336 83 214 l 83 644 q -11 633 22 639 l 7 694 l 83 694 l 83 789 l 214 865 l 214 1007 l 256 1019 q 239 849 239 903 l 239 694 l 386 694 l 368 639 q 239 647 296 646 l 239 364 q 224 201 236 253 q 331 119 263 151 q 368 163 340 129 l 388 142 q 314 65 356 111 m 131 -415 l 113 -396 q 172 -278 172 -310 q 157 -246 172 -261 l 93 -183 l 203 -71 l 285 -151 q 303 -196 303 -168 q 153 -393 303 -247 q 131 -415 138 -408 z "},"Ť":{"ha":1135,"x_min":42,"x_max":1101,"o":"m 569 1006 q 411 1276 526 1138 l 435 1293 q 638 1140 567 1206 q 842 1293 711 1207 l 865 1276 q 714 1025 758 1147 l 707 1006 l 569 1006 m 646 -200 l 568 -210 q 617 -8 617 -106 q 330 126 439 14 q 221 390 221 239 q 225 440 221 415 q 42 682 42 511 q 140 872 42 803 q 357 942 238 942 q 536 930 397 942 q 764 918 675 918 q 999 951 925 918 q 1075 1075 1072 985 l 1100 1075 q 1101 1035 1101 1063 q 1029 797 1101 886 q 824 708 957 708 q 646 761 738 708 l 646 510 l 735 599 l 856 478 l 738 360 l 646 451 l 646 19 q 700 14 668 14 q 857 83 797 14 q 896 258 917 153 l 918 274 l 1068 229 q 963 63 1068 140 q 699 -14 858 -14 q 646 -11 679 -14 l 646 -200 m 167 700 q 232 474 167 543 q 363 673 261 589 q 610 782 464 757 q 547 825 601 788 q 473 873 492 863 q 414 898 454 883 q 339 913 374 913 q 210 853 253 913 q 167 700 167 793 m 457 413 q 617 26 457 81 l 617 751 q 457 413 457 696 z "},"ť":{"ha":356,"x_min":-11,"x_max":454,"o":"m 314 65 l 251 -8 q 145 51 200 6 q 63 144 90 97 q 83 336 83 214 l 83 644 q -11 633 22 639 l 7 694 l 83 694 l 83 789 l 214 865 l 214 1007 l 256 1019 q 239 849 239 903 l 239 694 l 386 694 l 368 639 q 239 647 296 646 l 239 364 q 224 201 236 253 q 331 119 263 151 q 368 163 340 129 l 388 142 q 314 65 356 111 m 454 888 q 438 848 454 868 q 378 788 422 828 q 317 731 333 747 l 304 740 q 322 843 353 813 l 265 899 l 364 1000 l 438 928 q 454 888 454 914 z "},"Ŧ":{"ha":1135,"x_min":-17,"x_max":1101,"o":"m 646 -200 l 568 -210 q 617 -8 617 -106 q 330 126 439 14 q 221 390 221 239 q 231 468 221 433 l 185 468 q -17 447 103 468 l -1 496 l 204 496 q 42 696 42 565 q 140 876 42 810 q 357 942 238 942 q 426 939 386 942 q 522 931 465 936 q 617 924 579 926 l 617 1119 l 697 1132 q 647 922 651 1036 q 764 918 703 918 q 999 951 925 918 q 1075 1075 1072 985 l 1100 1075 q 1101 1035 1101 1063 q 1029 797 1101 886 q 824 708 957 708 q 646 761 738 708 l 646 510 l 735 599 l 856 478 l 738 360 l 646 451 l 646 19 q 700 14 668 14 q 857 83 797 14 q 896 258 917 153 l 918 274 l 1068 229 q 963 63 1068 140 q 699 -14 858 -14 q 646 -11 679 -14 l 646 -200 m 167 697 q 240 503 167 560 q 376 684 278 608 q 610 782 474 760 q 547 825 601 788 q 473 873 492 863 q 414 898 454 883 q 339 913 374 913 q 209 854 251 913 q 167 697 167 796 m 617 496 l 617 751 q 461 496 481 704 l 617 496 m 457 413 q 617 26 457 81 l 617 468 l 458 468 q 457 413 457 450 z "},"ŧ":{"ha":356,"x_min":-24,"x_max":388,"o":"m 314 65 l 251 -8 q 145 51 200 6 q 63 144 90 97 q 83 336 83 214 l 83 378 q -24 363 33 372 l -8 411 l 83 411 l 83 644 q -11 633 22 639 l 7 694 l 83 694 l 83 789 l 214 865 l 214 1007 l 256 1019 q 239 849 239 903 l 239 694 l 386 694 l 368 639 q 239 647 296 646 l 239 414 q 374 432 301 419 l 358 383 l 239 383 l 239 364 q 224 201 236 253 q 331 119 263 151 q 368 163 340 129 l 388 142 q 314 65 356 111 z "},"Ũ":{"ha":1201,"x_min":42,"x_max":1140,"o":"m 708 1181 q 808 1289 792 1181 l 832 1289 q 678 1053 813 1053 q 567 1086 644 1053 q 458 1119 490 1119 q 358 1011 375 1119 l 335 1011 q 489 1247 354 1247 q 599 1214 522 1247 q 708 1181 675 1181 m 725 482 l 725 864 l 639 864 l 639 892 l 735 892 q 1050 928 932 893 q 1035 499 1035 728 q 1051 28 1035 222 l 1140 28 l 1140 0 l 754 0 l 754 -186 l 674 -199 q 725 40 725 -92 l 725 165 q 492 -14 665 -14 q 237 60 335 -14 q 139 281 139 135 q 163 414 139 350 q 222 526 188 478 q 292 618 257 574 q 351 713 326 663 q 375 811 375 763 q 350 886 375 858 q 283 914 325 914 q 192 858 226 914 q 176 682 157 803 l 163 667 l 42 696 q 101 873 42 804 q 263 942 161 942 q 379 896 336 942 q 422 754 422 850 q 397 562 422 704 q 371 317 371 419 q 521 21 371 21 q 673 121 621 21 q 725 388 725 221 l 725 424 l 636 335 l 515 456 l 633 574 l 725 482 m 803 864 l 754 864 l 754 28 l 838 28 l 838 219 q 830 642 838 515 q 803 864 822 769 z "},"ũ":{"ha":607,"x_min":-42,"x_max":649,"o":"m 433 791 q 426 783 433 791 q 390 775 418 775 q 306 808 363 775 q 226 842 249 842 q 146 775 193 842 l 128 785 q 175 870 150 819 q 215 937 200 921 q 258 953 231 953 q 343 919 286 953 q 422 886 400 886 q 503 953 456 886 l 521 943 q 474 858 499 908 q 433 791 449 807 m 517 -8 q 426 58 471 15 q 357 143 382 100 q 222 -8 322 94 q 132 58 176 15 q 63 144 88 100 q 83 336 83 214 l 83 539 l 8 575 q -8 556 3 569 q -22 540 -19 543 l -42 561 q 90 703 8 607 l 239 638 l 239 396 q 224 201 239 264 q 303 122 242 167 q 372 221 342 167 q 378 336 378 261 l 378 526 q 285 575 340 553 l 374 703 l 476 656 q 533 551 533 629 l 533 396 q 518 201 533 264 q 600 121 539 164 q 629 154 614 136 l 649 133 q 517 -8 599 88 z "},"Ū":{"ha":1201,"x_min":42,"x_max":1140,"o":"m 369 1183 q 583 1172 514 1172 q 797 1179 676 1172 l 797 1075 q 583 1082 676 1082 q 369 1071 563 1082 l 369 1183 m 725 482 l 725 864 l 639 864 l 639 892 l 735 892 q 1050 928 932 893 q 1035 499 1035 728 q 1051 28 1035 222 l 1140 28 l 1140 0 l 754 0 l 754 -186 l 674 -199 q 725 40 725 -92 l 725 165 q 492 -14 665 -14 q 237 60 335 -14 q 139 281 139 135 q 163 414 139 350 q 222 526 188 478 q 292 618 257 574 q 351 713 326 663 q 375 811 375 763 q 350 886 375 858 q 283 914 325 914 q 192 858 226 914 q 176 682 157 803 l 163 667 l 42 696 q 101 873 42 804 q 263 942 161 942 q 379 896 336 942 q 422 754 422 850 q 397 562 422 704 q 371 317 371 419 q 521 21 371 21 q 673 121 621 21 q 725 388 725 221 l 725 424 l 636 335 l 515 456 l 633 574 l 725 482 m 803 864 l 754 864 l 754 28 l 838 28 l 838 219 q 830 642 838 515 q 803 864 822 769 z "},"ū":{"ha":607,"x_min":-42,"x_max":649,"o":"m 160 794 l 203 899 l 328 899 q 472 913 403 899 l 429 808 l 304 808 q 160 794 229 808 m 517 -8 q 426 58 471 15 q 357 143 382 100 q 222 -8 322 94 q 132 58 176 15 q 63 144 88 100 q 83 336 83 214 l 83 539 l 8 575 q -8 556 3 569 q -22 540 -19 543 l -42 561 q 90 703 8 607 l 239 638 l 239 396 q 224 201 239 264 q 303 122 242 167 q 372 221 342 167 q 378 336 378 261 l 378 526 q 285 575 340 553 l 374 703 l 476 656 q 533 551 533 629 l 533 396 q 518 201 533 264 q 600 121 539 164 q 629 154 614 136 l 649 133 q 517 -8 599 88 z "},"Ŭ":{"ha":1201,"x_min":42,"x_max":1140,"o":"m 583 1006 q 445 1071 497 1006 q 383 1256 393 1136 l 407 1256 q 463 1167 417 1200 q 582 1133 510 1133 q 702 1167 656 1133 q 758 1256 749 1200 l 782 1256 q 583 1006 763 1006 m 725 482 l 725 864 l 639 864 l 639 892 l 735 892 q 1050 928 932 893 q 1035 499 1035 728 q 1051 28 1035 222 l 1140 28 l 1140 0 l 754 0 l 754 -186 l 674 -199 q 725 40 725 -92 l 725 165 q 492 -14 665 -14 q 237 60 335 -14 q 139 281 139 135 q 163 414 139 350 q 222 526 188 478 q 292 618 257 574 q 351 713 326 663 q 375 811 375 763 q 350 886 375 858 q 283 914 325 914 q 192 858 226 914 q 176 682 157 803 l 163 667 l 42 696 q 101 873 42 804 q 263 942 161 942 q 379 896 336 942 q 422 754 422 850 q 397 562 422 704 q 371 317 371 419 q 521 21 371 21 q 673 121 621 21 q 725 388 725 221 l 725 424 l 636 335 l 515 456 l 633 574 l 725 482 m 803 864 l 754 864 l 754 28 l 838 28 l 838 219 q 830 642 838 515 q 803 864 822 769 z "},"ŭ":{"ha":607,"x_min":-42,"x_max":649,"o":"m 182 843 l 147 886 l 257 943 l 283 914 q 361 874 319 874 q 460 943 413 874 l 485 932 l 432 850 q 313 775 383 775 q 182 843 235 775 m 517 -8 q 426 58 471 15 q 357 143 382 100 q 222 -8 322 94 q 132 58 176 15 q 63 144 88 100 q 83 336 83 214 l 83 539 l 8 575 q -8 556 3 569 q -22 540 -19 543 l -42 561 q 90 703 8 607 l 239 638 l 239 396 q 224 201 239 264 q 303 122 242 167 q 372 221 342 167 q 378 336 378 261 l 378 526 q 285 575 340 553 l 374 703 l 476 656 q 533 551 533 629 l 533 396 q 518 201 533 264 q 600 121 539 164 q 629 154 614 136 l 649 133 q 517 -8 599 88 z "},"Ů":{"ha":1201,"x_min":42,"x_max":1140,"o":"m 583 949 q 467 990 515 949 q 419 1092 419 1032 q 467 1194 419 1151 q 583 1238 515 1238 q 698 1194 650 1238 q 746 1092 746 1151 q 698 990 746 1032 q 583 949 650 949 m 518 1092 q 583 976 518 976 q 649 1092 649 976 q 583 1210 649 1210 q 518 1092 518 1210 m 725 482 l 725 864 l 639 864 l 639 892 l 735 892 q 1050 928 932 893 q 1035 499 1035 728 q 1051 28 1035 222 l 1140 28 l 1140 0 l 754 0 l 754 -186 l 674 -199 q 725 40 725 -92 l 725 165 q 492 -14 665 -14 q 237 60 335 -14 q 139 281 139 135 q 163 414 139 350 q 222 526 188 478 q 292 618 257 574 q 351 713 326 663 q 375 811 375 763 q 350 886 375 858 q 283 914 325 914 q 192 858 226 914 q 176 682 157 803 l 163 667 l 42 696 q 101 873 42 804 q 263 942 161 942 q 379 896 336 942 q 422 754 422 850 q 397 562 422 704 q 371 317 371 419 q 521 21 371 21 q 673 121 621 21 q 725 388 725 221 l 725 424 l 636 335 l 515 456 l 633 574 l 725 482 m 803 864 l 754 864 l 754 28 l 838 28 l 838 219 q 830 642 838 515 q 803 864 822 769 z "},"ů":{"ha":607,"x_min":-42,"x_max":649,"o":"m 310 749 q 178 803 217 767 q 186 893 186 829 l 186 949 l 251 960 l 278 1025 l 363 1001 q 410 978 400 990 q 419 919 419 965 l 419 849 q 310 749 363 804 m 265 849 q 335 822 285 838 q 335 849 335 831 q 336 875 336 867 q 335 919 336 904 q 307 929 331 921 q 271 940 283 938 l 271 914 q 265 849 271 878 m 517 -8 q 426 58 471 15 q 357 143 382 100 q 222 -8 322 94 q 132 58 176 15 q 63 144 88 100 q 83 336 83 214 l 83 539 l 8 575 q -8 556 3 569 q -22 540 -19 543 l -42 561 q 90 703 8 607 l 239 638 l 239 396 q 224 201 239 264 q 303 122 242 167 q 372 221 342 167 q 378 336 378 261 l 378 526 q 285 575 340 553 l 374 703 l 476 656 q 533 551 533 629 l 533 396 q 518 201 533 264 q 600 121 539 164 q 629 154 614 136 l 649 133 q 517 -8 599 88 z "},"Ű":{"ha":1201,"x_min":42,"x_max":1140,"o":"m 375 1022 q 492 1293 451 1171 q 611 1203 611 1274 q 581 1145 611 1174 q 492 1076 551 1117 q 399 1006 432 1036 l 375 1022 m 658 1022 q 775 1293 735 1171 q 894 1203 894 1274 q 865 1145 894 1174 q 775 1076 835 1117 q 682 1006 715 1036 l 658 1022 m 725 482 l 725 864 l 639 864 l 639 892 l 735 892 q 1050 928 932 893 q 1035 499 1035 728 q 1051 28 1035 222 l 1140 28 l 1140 0 l 754 0 l 754 -186 l 674 -199 q 725 40 725 -92 l 725 165 q 492 -14 665 -14 q 237 60 335 -14 q 139 281 139 135 q 163 414 139 350 q 222 526 188 478 q 292 618 257 574 q 351 713 326 663 q 375 811 375 763 q 350 886 375 858 q 283 914 325 914 q 192 858 226 914 q 176 682 157 803 l 163 667 l 42 696 q 101 873 42 804 q 263 942 161 942 q 379 896 336 942 q 422 754 422 850 q 397 562 422 704 q 371 317 371 419 q 521 21 371 21 q 673 121 621 21 q 725 388 725 221 l 725 424 l 636 335 l 515 456 l 633 574 l 725 482 m 803 864 l 754 864 l 754 28 l 838 28 l 838 219 q 830 642 838 515 q 803 864 822 769 z "},"ű":{"ha":607,"x_min":-42,"x_max":649,"o":"m 115 764 q 185 940 182 856 l 308 1006 q 311 892 317 949 q 128 749 235 815 l 115 764 m 322 764 q 392 940 389 856 l 515 1006 q 518 892 524 949 q 335 749 442 815 l 322 764 m 517 -8 q 426 58 471 15 q 357 143 382 100 q 222 -8 322 94 q 132 58 176 15 q 63 144 88 100 q 83 336 83 214 l 83 539 l 8 575 q -8 556 3 569 q -22 540 -19 543 l -42 561 q 90 703 8 607 l 239 638 l 239 396 q 224 201 239 264 q 303 122 242 167 q 372 221 342 167 q 378 336 378 261 l 378 526 q 285 575 340 553 l 374 703 l 476 656 q 533 551 533 629 l 533 396 q 518 201 533 264 q 600 121 539 164 q 629 154 614 136 l 649 133 q 517 -8 599 88 z "},"Ų":{"ha":1201,"x_min":42,"x_max":1140,"o":"m 739 -335 q 656 -310 686 -335 q 625 -246 625 -286 q 673 -147 625 -199 q 838 0 721 -94 l 731 0 l 731 28 l 838 28 l 838 219 q 830 642 838 515 q 803 864 822 769 l 754 864 l 754 386 q 492 -14 754 -14 q 237 60 335 -14 q 139 281 139 135 q 163 414 139 350 q 222 526 188 478 q 292 618 257 574 q 351 713 326 663 q 375 811 375 763 q 350 886 375 858 q 283 914 325 914 q 192 858 226 914 q 176 682 157 803 l 163 667 l 42 696 q 101 873 42 804 q 263 942 161 942 q 379 896 336 942 q 422 754 422 850 q 397 562 422 704 q 371 317 371 419 q 521 21 371 21 q 673 121 621 21 q 725 388 725 221 l 725 424 l 636 335 l 515 456 l 633 574 l 725 482 l 725 864 l 639 864 l 639 892 l 725 892 l 725 1121 l 803 1131 q 754 925 754 1026 l 754 892 q 1050 928 933 896 q 1035 499 1035 728 q 1051 28 1035 222 l 1140 28 l 1140 0 l 1007 0 q 830 -45 885 0 q 775 -147 775 -90 q 800 -207 775 -187 q 860 -226 825 -226 q 960 -196 913 -226 l 975 -212 q 739 -335 846 -335 z "},"ų":{"ha":607,"x_min":-42,"x_max":650,"o":"m 547 -310 q 417 -157 417 -229 q 504 -1 417 -124 q 357 143 408 56 q 222 -8 322 94 q 132 58 176 15 q 63 144 88 100 q 83 336 83 214 l 83 539 l 8 575 q -8 556 3 569 q -22 540 -19 543 l -42 561 q 90 703 8 607 l 239 638 l 239 396 q 224 201 239 264 q 303 122 242 167 q 372 221 342 167 q 378 336 378 261 l 378 526 q 285 575 340 553 l 374 703 l 476 656 q 533 551 533 629 l 533 396 q 518 201 533 264 q 600 121 539 164 q 629 154 614 136 l 649 133 q 510 -76 510 -17 q 600 -186 510 -129 q 629 -144 617 -167 l 650 -158 q 547 -310 593 -235 z "},"Ŵ":{"ha":1750,"x_min":-31,"x_max":1672,"o":"m 1064 1006 q 861 1158 932 1093 q 657 1006 788 1092 l 633 1022 q 785 1293 739 1174 l 936 1293 q 1088 1022 982 1174 l 1064 1006 m 800 -168 l 738 -212 q 710 -8 742 -93 l 707 0 l 268 0 l 268 28 l 396 28 q 64 864 253 444 l -31 864 l -31 892 q 269 928 149 890 q 618 28 476 388 l 696 28 l 472 607 q 440 801 425 726 q 499 908 454 875 q 610 942 543 942 q 744 913 679 942 q 867 824 810 883 q 960 660 925 764 q 996 422 996 557 l 996 28 l 1081 28 l 1081 535 q 1130 840 1081 739 q 1308 942 1179 942 q 1569 840 1467 942 q 1672 539 1672 739 q 1517 163 1672 313 q 1110 1 1361 14 l 1110 -200 l 1032 -210 q 1081 0 1079 -110 l 736 0 l 800 -168 m 501 618 l 725 28 l 788 28 l 788 443 q 776 642 788 557 q 746 778 764 728 q 701 858 728 828 q 649 899 675 889 q 592 910 624 910 q 478 834 506 910 q 501 618 451 758 m 1201 360 l 1110 451 l 1110 29 q 1299 117 1224 42 q 1405 303 1374 193 q 1436 556 1436 413 q 1392 821 1436 733 q 1279 908 1349 908 q 1110 533 1110 908 l 1110 510 l 1199 599 l 1319 478 l 1201 360 z "},"ŵ":{"ha":840,"x_min":-42,"x_max":817,"o":"m 507 783 q 406 860 442 825 q 265 749 361 826 l 253 764 q 322 940 318 868 l 446 1006 q 557 838 497 901 q 507 783 521 801 m 531 -8 q 357 143 408 57 q 222 -8 322 94 q 132 58 176 15 q 63 144 88 100 q 83 336 83 214 l 83 539 l 8 575 q -8 556 3 569 q -22 540 -19 543 l -42 561 q 90 703 8 607 l 239 638 l 239 396 q 237 267 239 297 q 224 201 235 236 q 303 122 242 167 q 372 221 342 167 q 378 336 378 261 l 378 526 q 285 575 340 553 l 374 703 l 533 625 l 533 396 q 531 267 533 297 q 518 201 529 236 q 617 117 546 156 q 678 306 678 193 q 569 568 678 492 l 679 703 q 817 446 817 600 q 799 328 817 385 q 740 217 781 272 q 674 133 699 161 q 592 51 650 106 q 531 -8 535 -4 z "},"Ŷ":{"ha":1240,"x_min":-18,"x_max":1174,"o":"m 840 1006 q 638 1158 708 1093 q 433 1006 564 1092 l 410 1022 q 561 1293 515 1174 l 713 1293 q 864 1022 758 1174 l 840 1006 m 892 -96 q 778 -270 892 -193 q 471 -347 664 -347 q 162 -279 272 -347 q 51 -111 51 -211 q 115 36 51 -26 q 294 121 179 99 l 294 513 q 279 767 294 675 q 242 886 264 858 q 183 914 219 914 q 117 858 139 914 q 117 682 96 803 l 103 667 l -18 696 q 37 874 -18 806 q 197 942 92 942 q 430 828 357 942 q 503 485 503 715 l 503 132 l 585 132 l 585 535 q 594 699 585 629 q 628 826 604 768 q 699 913 653 883 q 814 942 746 942 q 1073 856 972 942 q 1174 601 1174 771 q 1019 258 1174 397 q 614 106 864 118 l 614 -89 l 536 -99 q 585 104 585 6 l 443 104 q 280 40 336 104 q 224 -117 224 -24 q 291 -265 224 -210 q 471 -319 358 -319 q 683 -226 613 -319 q 726 -42 754 -133 l 740 -29 l 892 -96 m 706 360 l 614 451 l 614 135 q 803 217 728 146 q 910 390 879 289 q 942 618 942 490 q 898 837 942 764 q 785 910 854 910 q 614 533 614 910 l 614 510 l 703 599 l 824 478 l 706 360 z "},"ŷ":{"ha":576,"x_min":-44,"x_max":550,"o":"m 389 783 q 288 860 324 825 q 147 749 243 826 l 135 764 q 204 940 200 868 l 328 1006 q 439 838 379 901 q 389 783 403 801 m 414 -347 l 393 -332 l 410 -308 q 428 -262 428 -281 q 315 -151 428 -217 l 211 -92 q 175 -43 175 -72 q 222 31 175 -12 q 276 82 244 50 q 147 145 211 104 q 60 226 83 186 q 81 418 81 296 l 81 539 l 6 575 q -11 556 0 569 q -25 540 -22 543 l -44 561 q 88 703 6 607 l 236 638 l 236 478 q 221 297 236 365 q 372 199 267 246 q 379 376 379 306 q 376 526 379 467 q 282 575 328 557 l 371 703 l 467 658 q 531 544 531 628 l 531 294 q 283 46 413 190 q 390 -13 317 21 q 492 -64 464 -47 q 550 -149 550 -103 q 522 -211 550 -181 q 414 -347 461 -278 z "},"Ÿ":{"ha":1240,"x_min":-18,"x_max":1174,"o":"m 607 1128 l 501 1022 l 392 1131 l 497 1238 l 607 1128 m 883 1125 l 778 1018 l 668 1128 l 774 1233 l 883 1125 m 892 -96 q 778 -270 892 -193 q 471 -347 664 -347 q 162 -279 272 -347 q 51 -111 51 -211 q 115 36 51 -26 q 294 121 179 99 l 294 513 q 279 767 294 675 q 242 886 264 858 q 183 914 219 914 q 117 858 139 914 q 117 682 96 803 l 103 667 l -18 696 q 37 874 -18 806 q 197 942 92 942 q 430 828 357 942 q 503 485 503 715 l 503 132 l 585 132 l 585 535 q 594 699 585 629 q 628 826 604 768 q 699 913 653 883 q 814 942 746 942 q 1073 856 972 942 q 1174 601 1174 771 q 1019 258 1174 397 q 614 106 864 118 l 614 -89 l 536 -99 q 585 104 585 6 l 443 104 q 280 40 336 104 q 224 -117 224 -24 q 291 -265 224 -210 q 471 -319 358 -319 q 683 -226 613 -319 q 726 -42 754 -133 l 740 -29 l 892 -96 m 706 360 l 614 451 l 614 135 q 803 217 728 146 q 910 390 879 289 q 942 618 942 490 q 898 837 942 764 q 785 910 854 910 q 614 533 614 910 l 614 510 l 703 599 l 824 478 l 706 360 z "},"Ź":{"ha":1097,"x_min":-64,"x_max":1061,"o":"m 454 1022 q 571 1293 531 1171 q 711 1203 711 1271 q 676 1146 711 1174 q 578 1078 642 1118 q 478 1006 515 1039 l 454 1022 m 10 -208 l -64 -178 q 81 -25 33 -107 l 94 0 l 36 0 l 36 28 l 111 28 l 611 903 q 424 862 488 890 q 328 786 360 833 q 338 590 239 658 l 321 568 q 121 735 171 649 q 110 876 71 822 q 185 922 129 906 q 337 939 242 938 q 483 938 432 940 q 636 931 535 936 q 663 929 654 929 l 146 28 l 206 28 q 710 901 478 432 q 1029 928 889 899 l 1036 901 l 942 879 q 460 28 749 576 l 531 28 q 698 57 622 28 q 808 135 774 86 q 804 332 897 260 l 821 353 q 1015 180 968 268 q 1022 39 1061 92 q 967 3 1006 15 q 869 -10 929 -8 q 752 -10 810 -12 q 608 -4 694 -8 q 463 0 522 0 l 129 0 l 10 -208 z "},"ź":{"ha":363,"x_min":-35,"x_max":383,"o":"m 61 764 q 131 940 128 856 l 254 1006 q 271 892 269 953 q 74 749 183 819 l 61 764 m 297 -254 q 183 -347 224 -308 l 163 -325 l 196 -297 q 214 -264 214 -283 q 200 -217 214 -246 l 69 75 q 51 133 51 118 q 89 189 51 160 l 150 239 q 158 333 154 294 q 0 319 94 333 l 18 361 l 160 361 q 161 431 161 385 q 158 526 161 460 q 14 574 92 558 q -15 540 0 558 l -35 561 q 97 703 15 607 l 247 663 q 313 544 313 646 l 313 361 l 383 361 l 365 325 q 293 332 314 331 q 172 219 219 268 q 333 -114 264 14 q 351 -172 351 -146 q 297 -254 351 -214 z "},"Ż":{"ha":1097,"x_min":-64,"x_max":1061,"o":"m 571 1011 l 444 1138 l 568 1261 l 694 1135 l 571 1011 m 10 -208 l -64 -178 q 81 -25 33 -107 l 94 0 l 36 0 l 36 28 l 111 28 l 611 903 q 424 862 488 890 q 328 786 360 833 q 338 590 239 658 l 321 568 q 121 735 171 649 q 110 876 71 822 q 185 922 129 906 q 337 939 242 938 q 483 938 432 940 q 636 931 535 936 q 663 929 654 929 l 146 28 l 206 28 q 710 901 478 432 q 1029 928 889 899 l 1036 901 l 942 879 q 460 28 749 576 l 531 28 q 698 57 622 28 q 808 135 774 86 q 804 332 897 260 l 821 353 q 1015 180 968 268 q 1022 39 1061 92 q 967 3 1006 15 q 869 -10 929 -8 q 752 -10 810 -12 q 608 -4 694 -8 q 463 0 522 0 l 129 0 l 10 -208 z "},"ż":{"ha":363,"x_min":-35,"x_max":383,"o":"m 268 876 l 164 772 l 57 879 l 161 983 l 268 876 m 297 -254 q 183 -347 224 -308 l 163 -325 l 196 -297 q 214 -264 214 -283 q 200 -217 214 -246 l 69 75 q 51 133 51 118 q 89 189 51 160 l 150 239 q 158 333 154 294 q 0 319 94 333 l 18 361 l 160 361 q 161 431 161 385 q 158 526 161 460 q 14 574 92 558 q -15 540 0 558 l -35 561 q 97 703 15 607 l 247 663 q 313 544 313 646 l 313 361 l 383 361 l 365 325 q 293 332 314 331 q 172 219 219 268 q 333 -114 264 14 q 351 -172 351 -146 q 297 -254 351 -214 z "}}}
